<!DOCTYPE svg PUBLIC "-//W3C//DTD SVG 1.1//EN" "http://www.w3.org/Graphics/SVG/1.1/DTD/svg11.dtd" [
	<!ENTITY ns_flows "http://ns.adobe.com/Flows/1.0/">
]><svg xmlns="http://www.w3.org/2000/svg" width="930" height="858" viewBox="-0.9 0 930 858" enable-background="new -0.9 0 930 858"><polygon fill-rule="evenodd" clip-rule="evenodd" fill="#B1D068" points="546.5,0 929.1,0 929.1,487 606.5,487"/><polygon fill-rule="evenodd" clip-rule="evenodd" fill="#9FB661" points="399.3,477 929.1,477 929.1,858 567.4,858 469.4,680.3"/><polygon fill="#403B32" points="572.3,858 561.4,842.1 537.4,852.9 525,858"/><polygon fill="#B3B27F" points="521.8,858 496.7,789.2 485.9,792.3 509.9,858"/><path fill="#463D4C" d="M581.8 423.6l-3.7-14.8 94.1-5.1s12.8 18.4 11.7 37.3c-1 18.9-174.2 204.8-174.2 204.8l53.6 194.6s-6.1 7.2-15.3 10.7c-9.2 3.6-16.3 3.1-16.3 3.1l-66.9-204.8s-3.1-9.2 0-14.8c3.1-5.6 119.5-153.8 119.5-153.8l-2.5-57.2z"/><path opacity=".19" fill="#808184" d="M678.6 415.5c-1.8 6.5-4.3 13.1-8.6 26.1-9.2 27.6-176.7 196.2-176.7 196.2l60.9 210.3c5.7-3.5 9.2-7.6 9.2-7.6l-53.6-194.6s173.2-185.9 174.2-204.8c.5-9.5-2.4-18.6-5.4-25.6z"/><path fill="#866F54" d="M290.7 414.4c1.5 1.5 22.5 26.6 22.5 26.6l144.1-88.4 109.3-100.1-25-34.7-250.9 196.6z"/><path fill="#162129" d="M325.1 858c13.5-25 21.2-53.2 21.2-83.3 0-95.6-77.5-173.2-173.2-173.2-95.6-.1-173.1 77.4-173.1 173.1 0 30.1 7.7 58.7 21.2 83.4h17.8c-15-24.1-23.7-52.9-23.7-83.5 0-87.2 70.7-157.8 157.8-157.8s157.9 70.8 157.9 158c0 30.5-8.7 59.3-23.7 83.3h17.8z"/><polygon fill="#FFE2B7" points="487.3,32.7 474.4,113.7 481.9,114.4 479.8,167.5 539.8,166.8 547.2,192 541.8,222 579.9,194.1 571.8,149.1 599,108.3 594.2,58.5"/><path fill="#6D6044" d="M544.5 45.6l2 53.1s6.1-28.6 10.9-27.9c4.8.7 5.4 9.5 4.8 16.3-.7 6.8-6.8 12.9-6.8 12.9l18.4 46.3 28.6-33.4-1.4-43.5-56.5-23.8z"/><path fill="#6D6044" d="M489.9 57.4c1.5.2 16.3 7.8 16.3 7.8s-3.4-9-6.6-10.2c-3.3-1.2-9.7 2.4-9.7 2.4z"/><path fill="#6D6044" d="M487.6 72.2c.1-2.1 2-3.7 4.1-3.6 2.1.2 3.7 2 3.6 4.1l-1.1 15.8c-.1 2.1-2 3.7-4.1 3.6-2.1-.2-3.7-2-3.6-4.1l1.1-15.8z"/><path fill="#FFE2B7" d="M294.6 409.3c-2.7 1.4-45.6 27.9-45.6 27.9l5.4 37.5 27.9 4.1 23.8-15-17.7-1.4-5.4-20.4 13.6-5.4 8.9 5.4 1.4 13.6s4.1-6.8 6.1-12.3c2-5.5-1.4-18.4-1.4-18.4l-17-15.6z"/><path fill="#B6BFB4" d="M757.2 770l-161.5-199.2 40.5-82-9.8-4.8-43.2 87.6-342.1 2.4 33.8-113.3-10.5-2.9-94.3 315.3 10.4 3.1 56.4-188.2 244 207.7 6-7.1 1 .5 102.5-207.6 158.4 195.3 8.4-6.8zm-179.4-187.6l-97.8 198.2-230.1-195.8 327.9-2.4z"/><path fill="#B3B27F" d="M201.9 773.7c0 14.7-11.9 26.6-26.6 26.6-14.7 0-26.6-11.9-26.6-26.6 0-14.7 11.9-26.6 26.6-26.6 14.8 0 26.6 11.9 26.6 26.6z"/><path fill="#B3B27F" d="M780.9 773.7c0 14.7-11.9 26.6-26.6 26.6-14.7 0-26.6-11.9-26.6-26.6 0-14.7 11.9-26.6 26.6-26.6 14.7 0 26.6 11.9 26.6 26.6z"/><path fill="#162129" d="M620.3 858c-15-24.2-23.7-52.9-23.7-83.5 0-87.2 70.7-157.8 157.8-157.8 87.2 0 157.8 70.8 157.8 158 0 30.5-8.7 59.3-23.7 83.3h17.7c13.5-25 21.2-53.2 21.2-83.3 0-95.6-77.5-173.2-173.2-173.2-95.6 0-173.2 77.5-173.2 173.1 0 30.1 7.7 58.7 21.2 83.4h18.1z"/><circle fill="#B6BFB4" cx="488.6" cy="784.5" r="43.9"/><path fill="#074046" d="M754.3 746.4l-265.7-6.5c-24.3 0-43.9 19.7-43.9 43.9 0 24.3 19.7 43.9 43.9 43.9 3.1 0 6.2-.3 9.2-1l256.6-27.2c14.7 0 26.6-11.9 26.6-26.6-.1-14.6-12-26.5-26.7-26.5zm-3.7 51.2l-248.6 23.9c-2.9.6-5.8.9-8.9.9-23.5 0-42.6-17.2-42.6-38.5s19.1-38.5 42.6-38.5l257.5 5.7c14.2 0 25.7 10.4 25.7 23.3.1 12.8-11.5 23.2-25.7 23.2z"/><path fill="#CAB197" d="M524.8 130.6s-5.7 8-18.6 11.4c-12.8 3.3-14.1 3.1-14.1 3.1s4.7-2.6 5.9-3.6c1.2-1-14.1-.3-16.9-1 0 0 14.7.1 29.3-4.3 14.7-4.4 14.3-5.4 14.3-5.4"/><path fill="#CAB197" d="M519.6 128.5s4-.4 5.4 2.2c1.5 2.6 0 6.3 0 6.3s4.5-5.4 2.6-8.5c-2-3.1-8 0-8 0z"/><polygon fill="#AA702F" points="288.9,459 283.4,449.5 288.9,440 299.8,440 305.3,449.5 299.8,459"/><path fill="#FFE2B7" d="M293.4 403.4c-2.5 1.2-41.8 25.6-41.8 25.6l5 34.3 25.6 3.7 21.8-13.7-16.2-1.4-5-18.9h20.6l1.2 12.6s3.7-6.2 5.6-11.1l-16.8-31.1z"/><polygon fill="#B3B27F" points="251.1,450.1 257.4,450.1 260.4,471.1 257.2,492 250.8,492"/><polygon fill="#D1E9DC" points="250.8,492 244.5,492 241.5,471 244.7,450.1 251.1,450.1 254.1,471.1"/><path fill="#463D4C" d="M594.6 421.1s-214.9 58.1-219 61.7c-4.1 3.6-3.1 16.3-3.1 16.3s61.3 167 58.2 168.1l7.7 23 33.2-14.3-8.7-19.4-44.4-142.5 174.8-33.8 1.3-59.1z"/><polygon opacity=".4" fill="#A5A8AB" points="548.3,192 542.8,222 581,194.1 573.8,154.8 541.9,170.7"/><path opacity=".25" fill="#808184" d="M637.5 464.4c5.5-2 8.9-7.1 9.3-14.7-1.9 1.4-3.9 2.9-6.1 4.5-10.9 8.2-242.5 49-242.5 49l57.2 178.2c8.2-3.4 16.2-6.5 16.2-6.5l-8.7-19.4-44.4-142.5 166-32.2s-.2.2-.4.5c20.6-6.4 47.6-14.8 53.4-16.9z"/><path fill="#A0904E" d="M525.5 184.5l59.5-29.7 6.5 44.9s32.9 35.3 56.4 93c18.8 46.1 30.9 117.7 30.9 117.7s-36.3-4.3-60.3-2.5c-24 1.8-38.1 18.7-38.1 18.7s-60-193.1-51.9-209c8-15.9 7.6-10.3 7.6-10.3l-10.6-22.8z"/><polygon fill="#AA702F" points="540,261.6 674.4,366 689.5,377.4 683.6,398.6 530.5,268.5"/><polygon fill="#AA702F" points="691,463.2 730.3,446.5 700.1,339.9 678.9,330.5 661.2,335.4"/><polygon fill="#60553B" points="679.2,330.2 679.1,330.2 715,452.9 730.7,446.2 700.4,339.5"/><path fill="#A0904E" d="M280.4 409.3c1.5 1.5 22.5 26.6 22.5 26.6l144-88.4 109.3-100.1s4.6-27.1-5.1-38.3c-9.7-11.2-19.9 3.6-19.9 3.6s-91.4 86.8-125.1 110.8c-33.7 24-125.7 85.8-125.7 85.8z"/><path fill="#CAB197" d="M487 70.6c1.2 0 12.4 2.7 12.4 2.7s-5.6-7.3-6.8-7.8c-1.2-.5-5.6 5.1-5.6 5.1z"/><rect x="468.5" y="697.2" transform="matrix(.939 -.344 .344 .939 -227.504 208.746)" fill="#B3B27F" width="11.2" height="95.7"/><rect x="433.8" y="698" fill="#B3B27F" width="67" height="9"/><path fill="#403B32" d="M366.3 724.7l74-21.6 4.7 6.4 42.1-10.2-13.9-32.6-32.4 10.8s-60.2 23-69.3 29.1c-9.1 6.1-5.2 18.1-5.2 18.1z"/><polygon fill="#C8B194" points="545,57.8 486.5,44.3 485.6,50.1 545.2,63.2"/><polygon fill="#5C533D" points="545.2,63.2 601.2,75.6 601.1,70.9 545,57.9"/><polygon fill="#856567" points="493.8,0 485.1,27.8 419.2,29.3 653.1,82.9 601,50.3 610.4,9.7 574.2,0"/><path fill="#AA702F" d="M535 510.8c2 0 121.2-6.8 121.2-6.8s17-8.9 18.4-14.3c1.4-5.4-3.4-14.3-3.4-14.3s-20.4-4.1-55.2-.7c-34.7 3.4-72.2 23.2-77.6 29.3-5.5 6.1-3.4 6.8-3.4 6.8z"/></svg>