<svg xmlns="http://www.w3.org/2000/svg" xmlns:xlink="http://www.w3.org/1999/xlink" width="174.3" height="98.1" viewBox="0 0 174.3 98.1"><path opacity=".2" fill="#231F20" enable-background="new" d="M147.4 88c-7.9 0-14.4 1.1-16.1 2.6-1.4-.1-2.8-.1-4.3-.1-9.1 0-16.4 1.5-16.4 3.3s7.4 3.3 16.4 3.3c7.9 0 14.4-1.1 16.1-2.6 1.4.1 2.8.1 4.3.1 9.1 0 16.4-1.5 16.4-3.3.1-1.8-7.3-3.3-16.4-3.3z"/><path opacity=".2" fill="#231F20" enable-background="new" d="M87 92c0-1.2-4.7-2.1-10.5-2.1-5 0-9.2.7-10.2 1.6-1.2 0-2.4-.1-3.7-.1-10.7 0-19.4 1.5-19.4 3.3 0 1.8 8.7 3.3 19.4 3.3s19.4-1.5 19.4-3.3c0-.3-.3-.6-.7-.9 3.4-.2 5.7-.9 5.7-1.8z"/><path fill="#EEE5C3" d="M44.9 74.9c.7.1-7.7 11.1-7.7 11.1l2.7 3 8.3-11.9c0 .1-3.8-2.3-3.3-2.2z"/><path fill="#EEE5C3" d="M64.8 72.9s3.3 3.3 8.1 4.8l4.8 1.5s1.4-.4 1.4-1.5v-2.8s-3.9-.5-7.1-2l-5.4-3.4-1.8 3.4z"/><path opacity=".4" fill="#808184" enable-background="new" d="M66.8 74.5l.2-.3c.6-1.1 1.1-2.3 1.6-3.2-1.3-.9-2-1.5-2-1.5l-1.8 3.4c0-.1.8.6 2 1.6z"/><g opacity=".4" fill="#808184"><path d="M44.9 75.1c-.1 0-.1 0 0 .1v-.1zM47 79.2l1.2-1.8s-2.8-1.7-3.3-2.2c0 .3-.4.9-1 1.9.6.6 1.6 1.4 3.1 2.1z"/></g><path fill="#6C907F" d="M76.5 77.7s-.2 5.4 0 8.2c.2 2.8.4 4.1 1.8 4.3 1.4.2 3.9-2.5 4.4-6.3.5-3.8 0-8.5 0-8.5l-4.9-.5-1.3 2.8z"/><path fill="#6C907F" d="M40.3 88.6s-.8 1.7-1.8 2.9c-1 1.3-1.3 1.9-1.3 1.9l-11.1-10.1s1.3-1.4 3-1.2c1.8.2 6.4 3.1 6.4 3.1l2.6 1.9 2.2 1.5z"/><path fill="#81AFA1" d="M44.9 62.4l3 8-4.3 5s1 1.8 4.3 3.4c3.3 1.6 7.2.6 7.2.6l3.8-3.7 3.7 1.3s2.5-.8 3.7-3.1c1.2-2.3 2.5-4.9 2.5-4.9l-2.9-2.6s.3-2.7-.2-3.9c-.5-1.3-2.3-4.2-2.3-4.2l-18.5 4.1z"/><path opacity=".4" fill="#A6A8AC" enable-background="new" d="M65 61c-.7-1.3-1.6-2.7-1.6-2.7l-18.4 4.2 1.1 2.8c4.1 1.4 10.5-1.3 10.5-1.3 4.4-1.3 7-2.3 8.4-3z"/><path fill="#8A5E3C" d="M123.4 71.5l-5.2 11.6 3 2.9s3.5-9.4 6.1-12.1c2.6-2.8 1-1.3 1-1.3l-4.9-1.1z"/><path fill="#8A5E3C" d="M151.3 64.6s2.3 2.7 6 3.8c3.7 1.1 6.6 1.2 6.6 1.2s-.5 5-1.3 4.9c-.8-.2-.9-.9-.9-.9s-1.7.5-4.9-.6-7.2-4.3-7.2-4.3l1.7-4.1z"/><path opacity=".4" fill="#808184" enable-background="new" d="M151.3 64.5l-1.7 4s.9.7 2.2 1.6c.1-.1.2-.2.3-.4.9-1 1.6-2 2.2-2.8-1.9-1.1-3-2.4-3-2.4z"/><path opacity=".4" fill="#808184" enable-background="new" d="M128.2 72.5l-4.8-1-1.2 2.6c.9.3 2.4.7 3.9 1.2.4-.6.8-1.1 1.1-1.5 2.7-2.8 1-1.3 1-1.3z"/><path fill="#EC6544" d="M107.2 85.1s2.7 1.3 7.2 2.7l7.7 2s.9-3.9-1.1-5.4-4-2.8-8.7-2.1c-4.8.6-5.1 2.8-5.1 2.8z"/><path fill="#EC6544" d="M161.1 72.6c0 .2.3 5.4 1.7 7.3 1.4 2 2.8 3.3 4.1 3.5 1.3.2 1 0 1 0s2-4.2 1.5-7.6l-.6-3.4.2-.9-.6-2.8s-1.7-.6-3.5-.5c-1.9.1-2.1 1.2-2.1 1.2s-1.8 1.7-1.7 3.2z"/><path fill="#B0CEC2" d="M127.3 58.9c-.2.2-5.2 14.2-5.2 14.2s3.2.8 6.1 2c3 1.2 5 1.9 5 1.9l1.9.7 3.5-7.1 5.5 3.6 1.3.6s1.7-.1 6-5.1c4.2-5 5.1-7.4 5.1-7.4s-2.3-.6-4.6-2.8c-2.4-2.2-3.9-4.5-3.9-4.5l-20.5 3.8-.2.1z"/><path opacity=".4" fill="#A6A8AC" enable-background="new" d="M137.4 61.5c5.8-.3 12.1-4.2 12.1-4.2v-.1c-1-1.2-1.6-2.1-1.6-2.1l-20.5 3.8-.2.2c0 .1-.4.9-.8 2.2.5-.1 5.5.5 11 .2z"/><circle fill="#B0CDAC" cx="101.8" cy="64.9" r="9"/><path fill="#8A5E3C" d="M163.9 44.5s-.4 6.5 0 7.2c.4.7.8 1.4.9 1.2.1-.2 0-1.7 0-1.7s1.7 2.5 2.4 3.5.9 1 1.2.8c.2-.2-1.5-3.9-1.5-3.9s.8-1.2 1.5-.1c.7 1.1 1.4 3.1 1.9 3.2.6.1.9-1 .9-1l-1.8-3.6s.1-.7.5-.8l2 3.5s.4.3.9.1c.5-.2-.5-2.9-1-3.9l.1-.6s1.4 2.4 1.7 2.7c.3.2.7-.4.4-1.1-.3-.7-1.3-3.8-4.6-6.4-3.3-2.6-4.2-2.5-4.2-2.5l-1.3 3.4z"/><path fill="#8A5E3C" d="M103.3 42.9s.8-6.4.4-7.1c-.4-.7-.7-1.5-.8-1.2l-.1 1.7s-1.6-2.6-2.2-3.7c-.6-1.1-.9-1.1-1.1-.9-.2.2 1.3 4 1.3 4s-.9 1.1-1.5 0-1.2-3.2-1.8-3.3c-.5-.1-1 1-1 1l1.5 3.6s-.2.7-.6.8l-1.8-3.6s-.4-.3-.9-.1.3 2.9.8 3.9l-.1.5s-1.3-2.5-1.6-2.8c-.3-.3-.7.4-.5 1.1.3.7 1.1 3.9 4.3 6.6 3.2 2.8 4.1 2.7 4.1 2.7l1.6-3.2z"/><path fill="#EEE5C3" d="M65.2 43.6l8.4 3.6 1.6 10s-.6.7-1 1.4c-.4.6-.5 4.9 0 5.2h1s-.5-2.4 0-2.2.9 5.7 1.2 5.9c.3.2.7 0 .7 0v-3.5s-.1-.5.1-.5.7 1.5 1 2.4c.3.9.6 1.5.8 1.4l.4-.2s-.5-2.4-.7-2.9c-.2-.5-.3-1.1-.1-1.1.2 0 1.7 3.1 1.8 3.3.1.1.4.2.6.1.2-.1-1.1-3-1.3-3.3-.2-.3 0-.3.1-.3s1.8 2.6 1.9 2.8c.1.1.4.1.5 0 .1-.1-1.4-3.2-1.4-3.2s-.9-4.4-1.3-5.3c-.4-.8-.6-.9-.6-.9l-1.1-13.6-11.1-4.9-1.5 5.8z"/><path fill="#EEE5C3" d="M29.5 40.6c-.2-.1-17.8 1-17.8 1s-4.8.5-7.1.9-4.4 1.3-4.6 1.7c-.2.4.3.5.3.5l3-.3s.6 3.3.7 3.4c.2.1.3-.1.9 0s.1.7 1.1.7 1.3-.2 2.7-.6c1.4-.4 2.3-.4 2.9-.8.6-.4 1.6-1.3 1.6-1.3l17.3.9-1-6.1z"/><path fill="#5D5163" d="M122.7 37.9s5.9-2.4 10.1-3.2c4.2-.8 12.6-.6 12.6-.6l10.8 1.3 10.2 5.1s-1.3 4.1-1.7 4.4l-.4.3-8.6-4.2-8.6-.6s-.2 3.5.5 6.8c.7 3.4 2 8.7 2 8.7s-6.3 3.9-12.1 4.2c-5.8.3-11.1-.1-11.1-.1s-2-4.6-2.5-6.8-.7-7-.7-7l-8.3 5.5-14-5.5s.2-.9 1-2 1.4-1.9 1.7-2.1c.2-.3 9.8 4.3 9.8 4.3l9.3-8.5z"/><path fill="#EC6544" d="M36.8 38.9c.3-.2 3.2-.3 9.1-1.6l13-1.3 9.9 2s-1.3 1.5-1.6 4.1c-.3 2.6-.6 3.3-.6 3.3l-5.1-.8 4.3 14s2 1.2-10.1 4.6c0 0-7 3-11.1 1 0 0-2.8-7.7-4.3-10.7l-3.3-5.7-7.1-.1s-.8-1.4-1.2-3.9c-.3-2.5 0-3.5 0-3.5l6.7-1.5 1.4.1z"/><path fill="#8A5E3C" d="M116.9 8.7c-.1.1-3.9 6-2.8 12.2 1.1 6.2 4.3 14.3 4.3 14.3s2.4 0 6.6-.5c4.2-.5 5.2-.7 5.2-.7l.4 1.7-2 .7s1.6 5.7 3.7 5.7 5.4-5 5.7-6.2c.3-1.2-1.6-1.5-1.6-1.5l-1-1.9 3.7-1.6s.6-2.9.7-5.5c.2-2.5-.3-4.7-.3-4.7s1.6-.1 2.5-.7c.8-.7.6-1.4 0-2.9-.6-1.6-3.1-2.5-4.6-2.1-1.5.4.2-6.8-2.4-8.4-2.6-1.7-12.6-6-18.1 2.1z"/><path fill="#5F5033" d="M111 17.4c0 .3 2.9-.2 7.2-1.9 4.3-1.7 9.6-6.1 9.6-6.1s1.6 4.2 4.7 5.6c3.1 1.4 5.1 1.6 5.1 1.6s0-1 1.6-1.1c1.6-.2 2.3 0 2.3 0s.7-5.5-2.9-8.8c-3.5-3.3-7.3-3.3-7.3-3.3s-1.8-4-7.8-3.4c-5.9.6-13.1 6.9-12.5 17.4z"/><path fill="#70513A" d="M117.2 26.6s1 1.9 5.5 1.1c4.5-.8 8.8-4.6 8.8-4.6s-5.8 6-7.5 6.7c0 0-.7-1.2-1.9-1.3-1.1-.1-4.1-.7-4.9-1.9z"/><path fill="#70513A" d="M120.9 22.3c0-.2-.9 2.8-.9 2.8l2.6-.2s-1.1-.2-1.3-.8c-.2-.6-.4-1.4-.4-1.8z"/><path fill="#4C3F27" d="M125.3 18.6c0-.6.5-1.1 1.1-1.1.6 0 1.1.5 1.1 1.1v1c0 .6-.5 1.1-1.1 1.1-.6 0-1.1-.5-1.1-1.1v-1z"/><path fill="#4C3F27" d="M115.7 20c0-.5.4-.9.9-.9s.9.4.9.9v.8c0 .5-.4.9-.9.9s-.9-.4-.9-.9v-.8z"/><path fill="#5F5033" d="M125.6 15.2s1.1-.6 1.8-.6 1.4.6 1.4.6-.2-1.5-1.4-1.5c-1.1 0-1.8 1.5-1.8 1.5z"/><path fill="#5F5033" d="M115.7 16.9s1.2-.6 1.8-.6c.7 0 1.6.6 1.6.6s-.5-1.6-1.6-1.7c-1 0-1.8 1.7-1.8 1.7z"/><g fill="#70513A"><path opacity=".65" enable-background="new" d="M130.7 22.5s.6.1.8.4c.2.3.4.9.3 1.5 0 0 .6-1.2.3-1.8-.2-.6-1.1-.2-1.4-.1z"/><path opacity=".65" enable-background="new" d="M117 27.4s-.2-.5.3-.8h1s-.9-.8-1.4-.5l.1 1.3z"/><path d="M134.4 32.4c-10.8 2.9-15.7 2.6-15.8 2.8 0 0 4.4-.2 11.8-1.2l1.5-.3c.8-.3 1.7-.8 2.5-1.3z"/></g><defs><path id="a" d="M36.8 38.8c.3-.2 3.2-.3 9.1-1.6 5.9-1.3 13-1.3 13-1.3l9.9 2s-1.3 1.5-1.6 4.1c-.3 2.6-.6 3.3-.6 3.3l-5.1-.8 4.3 14s2 1.2-10.1 4.6c0 0-7 3-11.1 1 0 0-2.8-7.7-4.3-10.7l-3.3-5.6-7.1-.1s-.8-1.4-1.2-3.9c-.3-2.5 0-3.5 0-3.5l6.7-1.5h1.4z"/></defs><clipPath id="b"><use xlink:href="#a" overflow="visible"/></clipPath><circle clip-path="url(#b)" fill="#F27B27" cx="26.9" cy="36.9" r="2.6"/><defs><path id="c" d="M36.8 38.8c.3-.2 3.2-.3 9.1-1.6 5.9-1.3 13-1.3 13-1.3l9.9 2s-1.3 1.5-1.6 4.1c-.3 2.6-.6 3.3-.6 3.3l-5.1-.8 4.3 14s2 1.2-10.1 4.6c0 0-7 3-11.1 1 0 0-2.8-7.7-4.3-10.7l-3.3-5.6-7.1-.1s-.8-1.4-1.2-3.9c-.3-2.5 0-3.5 0-3.5l6.7-1.5h1.4z"/></defs><clipPath id="d"><use xlink:href="#c" overflow="visible"/></clipPath><circle clip-path="url(#d)" fill="#F27B27" cx="37.2" cy="35" r="2.6"/><defs><path id="e" d="M36.8 38.8c.3-.2 3.2-.3 9.1-1.6 5.9-1.3 13-1.3 13-1.3l9.9 2s-1.3 1.5-1.6 4.1c-.3 2.6-.6 3.3-.6 3.3l-5.1-.8 4.3 14s2 1.2-10.1 4.6c0 0-7 3-11.1 1 0 0-2.8-7.7-4.3-10.7l-3.3-5.6-7.1-.1s-.8-1.4-1.2-3.9c-.3-2.5 0-3.5 0-3.5l6.7-1.5h1.4z"/></defs><clipPath id="f"><use xlink:href="#e" overflow="visible"/></clipPath><circle clip-path="url(#f)" fill="#F27B27" cx="47.5" cy="33" r="2.6"/><defs><path id="g" d="M36.8 38.8c.3-.2 3.2-.3 9.1-1.6 5.9-1.3 13-1.3 13-1.3l9.9 2s-1.3 1.5-1.6 4.1c-.3 2.6-.6 3.3-.6 3.3l-5.1-.8 4.3 14s2 1.2-10.1 4.6c0 0-7 3-11.1 1 0 0-2.8-7.7-4.3-10.7l-3.3-5.6-7.1-.1s-.8-1.4-1.2-3.9c-.3-2.5 0-3.5 0-3.5l6.7-1.5h1.4z"/></defs><clipPath id="h"><use xlink:href="#g" overflow="visible"/></clipPath><circle clip-path="url(#h)" fill="#F27B27" cx="57.8" cy="31.1" r="2.6"/><defs><path id="i" d="M36.8 38.8c.3-.2 3.2-.3 9.1-1.6 5.9-1.3 13-1.3 13-1.3l9.9 2s-1.3 1.5-1.6 4.1c-.3 2.6-.6 3.3-.6 3.3l-5.1-.8 4.3 14s2 1.2-10.1 4.6c0 0-7 3-11.1 1 0 0-2.8-7.7-4.3-10.7l-3.3-5.6-7.1-.1s-.8-1.4-1.2-3.9c-.3-2.5 0-3.5 0-3.5l6.7-1.5h1.4z"/></defs><clipPath id="j"><use xlink:href="#i" overflow="visible"/></clipPath><circle clip-path="url(#j)" fill="#F27B27" cx="33" cy="41" r="2.6"/><defs><path id="k" d="M36.8 38.8c.3-.2 3.2-.3 9.1-1.6 5.9-1.3 13-1.3 13-1.3l9.9 2s-1.3 1.5-1.6 4.1c-.3 2.6-.6 3.3-.6 3.3l-5.1-.8 4.3 14s2 1.2-10.1 4.6c0 0-7 3-11.1 1 0 0-2.8-7.7-4.3-10.7l-3.3-5.6-7.1-.1s-.8-1.4-1.2-3.9c-.3-2.5 0-3.5 0-3.5l6.7-1.5h1.4z"/></defs><clipPath id="l"><use xlink:href="#k" overflow="visible"/></clipPath><circle clip-path="url(#l)" fill="#F27B27" cx="43.3" cy="39.1" r="2.6"/><defs><path id="m" d="M36.8 38.8c.3-.2 3.2-.3 9.1-1.6 5.9-1.3 13-1.3 13-1.3l9.9 2s-1.3 1.5-1.6 4.1c-.3 2.6-.6 3.3-.6 3.3l-5.1-.8 4.3 14s2 1.2-10.1 4.6c0 0-7 3-11.1 1 0 0-2.8-7.7-4.3-10.7l-3.3-5.6-7.1-.1s-.8-1.4-1.2-3.9c-.3-2.5 0-3.5 0-3.5l6.7-1.5h1.4z"/></defs><clipPath id="n"><use xlink:href="#m" overflow="visible"/></clipPath><circle clip-path="url(#n)" fill="#F27B27" cx="53.6" cy="37.1" r="2.6"/><defs><path id="o" d="M36.8 38.8c.3-.2 3.2-.3 9.1-1.6 5.9-1.3 13-1.3 13-1.3l9.9 2s-1.3 1.5-1.6 4.1c-.3 2.6-.6 3.3-.6 3.3l-5.1-.8 4.3 14s2 1.2-10.1 4.6c0 0-7 3-11.1 1 0 0-2.8-7.7-4.3-10.7l-3.3-5.6-7.1-.1s-.8-1.4-1.2-3.9c-.3-2.5 0-3.5 0-3.5l6.7-1.5h1.4z"/></defs><clipPath id="p"><use xlink:href="#o" overflow="visible"/></clipPath><circle clip-path="url(#p)" fill="#F27B27" cx="63.9" cy="35.2" r="2.6"/><defs><path id="q" d="M36.8 38.8c.3-.2 3.2-.3 9.1-1.6 5.9-1.3 13-1.3 13-1.3l9.9 2s-1.3 1.5-1.6 4.1c-.3 2.6-.6 3.3-.6 3.3l-5.1-.8 4.3 14s2 1.2-10.1 4.6c0 0-7 3-11.1 1 0 0-2.8-7.7-4.3-10.7l-3.3-5.6-7.1-.1s-.8-1.4-1.2-3.9c-.3-2.5 0-3.5 0-3.5l6.7-1.5h1.4z"/></defs><clipPath id="r"><use xlink:href="#q" overflow="visible"/></clipPath><circle clip-path="url(#r)" fill="#F27B27" cx="28.8" cy="47" r="2.6"/><defs><path id="s" d="M36.8 38.8c.3-.2 3.2-.3 9.1-1.6 5.9-1.3 13-1.3 13-1.3l9.9 2s-1.3 1.5-1.6 4.1c-.3 2.6-.6 3.3-.6 3.3l-5.1-.8 4.3 14s2 1.2-10.1 4.6c0 0-7 3-11.1 1 0 0-2.8-7.7-4.3-10.7l-3.3-5.6-7.1-.1s-.8-1.4-1.2-3.9c-.3-2.5 0-3.5 0-3.5l6.7-1.5h1.4z"/></defs><clipPath id="t"><use xlink:href="#s" overflow="visible"/></clipPath><circle clip-path="url(#t)" fill="#F27B27" cx="39.1" cy="45.1" r="2.6"/><defs><path id="u" d="M36.8 38.8c.3-.2 3.2-.3 9.1-1.6 5.9-1.3 13-1.3 13-1.3l9.9 2s-1.3 1.5-1.6 4.1c-.3 2.6-.6 3.3-.6 3.3l-5.1-.8 4.3 14s2 1.2-10.1 4.6c0 0-7 3-11.1 1 0 0-2.8-7.7-4.3-10.7l-3.3-5.6-7.1-.1s-.8-1.4-1.2-3.9c-.3-2.5 0-3.5 0-3.5l6.7-1.5h1.4z"/></defs><clipPath id="v"><use xlink:href="#u" overflow="visible"/></clipPath><circle clip-path="url(#v)" fill="#F27B27" cx="49.4" cy="43.2" r="2.6"/><defs><path id="w" d="M36.8 38.8c.3-.2 3.2-.3 9.1-1.6 5.9-1.3 13-1.3 13-1.3l9.9 2s-1.3 1.5-1.6 4.1c-.3 2.6-.6 3.3-.6 3.3l-5.1-.8 4.3 14s2 1.2-10.1 4.6c0 0-7 3-11.1 1 0 0-2.8-7.7-4.3-10.7l-3.3-5.6-7.1-.1s-.8-1.4-1.2-3.9c-.3-2.5 0-3.5 0-3.5l6.7-1.5h1.4z"/></defs><clipPath id="x"><use xlink:href="#w" overflow="visible"/></clipPath><circle clip-path="url(#x)" fill="#F27B27" cx="59.7" cy="41.2" r="2.6"/><defs><path id="y" d="M36.8 38.8c.3-.2 3.2-.3 9.1-1.6 5.9-1.3 13-1.3 13-1.3l9.9 2s-1.3 1.5-1.6 4.1c-.3 2.6-.6 3.3-.6 3.3l-5.1-.8 4.3 14s2 1.2-10.1 4.6c0 0-7 3-11.1 1 0 0-2.8-7.7-4.3-10.7l-3.3-5.6-7.1-.1s-.8-1.4-1.2-3.9c-.3-2.5 0-3.5 0-3.5l6.7-1.5h1.4z"/></defs><clipPath id="z"><use xlink:href="#y" overflow="visible"/></clipPath><circle clip-path="url(#z)" fill="#F27B27" cx="34.9" cy="51.1" r="2.6"/><defs><path id="A" d="M36.8 38.8c.3-.2 3.2-.3 9.1-1.6 5.9-1.3 13-1.3 13-1.3l9.9 2s-1.3 1.5-1.6 4.1c-.3 2.6-.6 3.3-.6 3.3l-5.1-.8 4.3 14s2 1.2-10.1 4.6c0 0-7 3-11.1 1 0 0-2.8-7.7-4.3-10.7l-3.3-5.6-7.1-.1s-.8-1.4-1.2-3.9c-.3-2.5 0-3.5 0-3.5l6.7-1.5h1.4z"/></defs><clipPath id="B"><use xlink:href="#A" overflow="visible"/></clipPath><circle clip-path="url(#B)" fill="#F27B27" cx="45.2" cy="49.2" r="2.6"/><defs><path id="C" d="M36.8 38.8c.3-.2 3.2-.3 9.1-1.6 5.9-1.3 13-1.3 13-1.3l9.9 2s-1.3 1.5-1.6 4.1c-.3 2.6-.6 3.3-.6 3.3l-5.1-.8 4.3 14s2 1.2-10.1 4.6c0 0-7 3-11.1 1 0 0-2.8-7.7-4.3-10.7l-3.3-5.6-7.1-.1s-.8-1.4-1.2-3.9c-.3-2.5 0-3.5 0-3.5l6.7-1.5h1.4z"/></defs><clipPath id="D"><use xlink:href="#C" overflow="visible"/></clipPath><circle clip-path="url(#D)" fill="#F27B27" cx="55.5" cy="47.2" r="2.6"/><defs><path id="E" d="M36.8 38.8c.3-.2 3.2-.3 9.1-1.6 5.9-1.3 13-1.3 13-1.3l9.9 2s-1.3 1.5-1.6 4.1c-.3 2.6-.6 3.3-.6 3.3l-5.1-.8 4.3 14s2 1.2-10.1 4.6c0 0-7 3-11.1 1 0 0-2.8-7.7-4.3-10.7l-3.3-5.6-7.1-.1s-.8-1.4-1.2-3.9c-.3-2.5 0-3.5 0-3.5l6.7-1.5h1.4z"/></defs><clipPath id="F"><use xlink:href="#E" overflow="visible"/></clipPath><circle clip-path="url(#F)" fill="#F27B27" cx="65.8" cy="45.3" r="2.6"/><defs><path id="G" d="M36.8 38.8c.3-.2 3.2-.3 9.1-1.6 5.9-1.3 13-1.3 13-1.3l9.9 2s-1.3 1.5-1.6 4.1c-.3 2.6-.6 3.3-.6 3.3l-5.1-.8 4.3 14s2 1.2-10.1 4.6c0 0-7 3-11.1 1 0 0-2.8-7.7-4.3-10.7l-3.3-5.6-7.1-.1s-.8-1.4-1.2-3.9c-.3-2.5 0-3.5 0-3.5l6.7-1.5h1.4z"/></defs><clipPath id="H"><use xlink:href="#G" overflow="visible"/></clipPath><circle clip-path="url(#H)" fill="#F27B27" cx="30.7" cy="56.9" r="2.6"/><defs><path id="I" d="M36.8 38.8c.3-.2 3.2-.3 9.1-1.6 5.9-1.3 13-1.3 13-1.3l9.9 2s-1.3 1.5-1.6 4.1c-.3 2.6-.6 3.3-.6 3.3l-5.1-.8 4.3 14s2 1.2-10.1 4.6c0 0-7 3-11.1 1 0 0-2.8-7.7-4.3-10.7l-3.3-5.6-7.1-.1s-.8-1.4-1.2-3.9c-.3-2.5 0-3.5 0-3.5l6.7-1.5h1.4z"/></defs><clipPath id="J"><use xlink:href="#I" overflow="visible"/></clipPath><circle clip-path="url(#J)" fill="#F27B27" cx="41" cy="55" r="2.6"/><defs><path id="K" d="M36.8 38.8c.3-.2 3.2-.3 9.1-1.6 5.9-1.3 13-1.3 13-1.3l9.9 2s-1.3 1.5-1.6 4.1c-.3 2.6-.6 3.3-.6 3.3l-5.1-.8 4.3 14s2 1.2-10.1 4.6c0 0-7 3-11.1 1 0 0-2.8-7.7-4.3-10.7l-3.3-5.6-7.1-.1s-.8-1.4-1.2-3.9c-.3-2.5 0-3.5 0-3.5l6.7-1.5h1.4z"/></defs><clipPath id="L"><use xlink:href="#K" overflow="visible"/></clipPath><circle clip-path="url(#L)" fill="#F27B27" cx="51.3" cy="53" r="2.6"/><defs><path id="M" d="M36.8 38.8c.3-.2 3.2-.3 9.1-1.6 5.9-1.3 13-1.3 13-1.3l9.9 2s-1.3 1.5-1.6 4.1c-.3 2.6-.6 3.3-.6 3.3l-5.1-.8 4.3 14s2 1.2-10.1 4.6c0 0-7 3-11.1 1 0 0-2.8-7.7-4.3-10.7l-3.3-5.6-7.1-.1s-.8-1.4-1.2-3.9c-.3-2.5 0-3.5 0-3.5l6.7-1.5h1.4z"/></defs><clipPath id="N"><use xlink:href="#M" overflow="visible"/></clipPath><circle clip-path="url(#N)" fill="#F27B27" cx="61.6" cy="51.1" r="2.6"/><defs><path id="O" d="M36.8 38.8c.3-.2 3.2-.3 9.1-1.6 5.9-1.3 13-1.3 13-1.3l9.9 2s-1.3 1.5-1.6 4.1c-.3 2.6-.6 3.3-.6 3.3l-5.1-.8 4.3 14s2 1.2-10.1 4.6c0 0-7 3-11.1 1 0 0-2.8-7.7-4.3-10.7l-3.3-5.6-7.1-.1s-.8-1.4-1.2-3.9c-.3-2.5 0-3.5 0-3.5l6.7-1.5h1.4z"/></defs><clipPath id="P"><use xlink:href="#O" overflow="visible"/></clipPath><circle clip-path="url(#P)" fill="#F27B27" cx="36.8" cy="61" r="2.6"/><defs><path id="Q" d="M36.8 38.8c.3-.2 3.2-.3 9.1-1.6 5.9-1.3 13-1.3 13-1.3l9.9 2s-1.3 1.5-1.6 4.1c-.3 2.6-.6 3.3-.6 3.3l-5.1-.8 4.3 14s2 1.2-10.1 4.6c0 0-7 3-11.1 1 0 0-2.8-7.7-4.3-10.7l-3.3-5.6-7.1-.1s-.8-1.4-1.2-3.9c-.3-2.5 0-3.5 0-3.5l6.7-1.5h1.4z"/></defs><clipPath id="R"><use xlink:href="#Q" overflow="visible"/></clipPath><circle clip-path="url(#R)" fill="#F27B27" cx="47.1" cy="59.1" r="2.6"/><defs><path id="S" d="M36.8 38.8c.3-.2 3.2-.3 9.1-1.6 5.9-1.3 13-1.3 13-1.3l9.9 2s-1.3 1.5-1.6 4.1c-.3 2.6-.6 3.3-.6 3.3l-5.1-.8 4.3 14s2 1.2-10.1 4.6c0 0-7 3-11.1 1 0 0-2.8-7.7-4.3-10.7l-3.3-5.6-7.1-.1s-.8-1.4-1.2-3.9c-.3-2.5 0-3.5 0-3.5l6.7-1.5h1.4z"/></defs><clipPath id="T"><use xlink:href="#S" overflow="visible"/></clipPath><circle clip-path="url(#T)" fill="#F27B27" cx="57.4" cy="57.1" r="2.6"/><defs><path id="U" d="M36.8 38.8c.3-.2 3.2-.3 9.1-1.6 5.9-1.3 13-1.3 13-1.3l9.9 2s-1.3 1.5-1.6 4.1c-.3 2.6-.6 3.3-.6 3.3l-5.1-.8 4.3 14s2 1.2-10.1 4.6c0 0-7 3-11.1 1 0 0-2.8-7.7-4.3-10.7l-3.3-5.6-7.1-.1s-.8-1.4-1.2-3.9c-.3-2.5 0-3.5 0-3.5l6.7-1.5h1.4z"/></defs><clipPath id="V"><use xlink:href="#U" overflow="visible"/></clipPath><circle clip-path="url(#V)" fill="#F27B27" cx="67.7" cy="55.2" r="2.6"/><defs><path id="W" d="M36.8 38.8c.3-.2 3.2-.3 9.1-1.6 5.9-1.3 13-1.3 13-1.3l9.9 2s-1.3 1.5-1.6 4.1c-.3 2.6-.6 3.3-.6 3.3l-5.1-.8 4.3 14s2 1.2-10.1 4.6c0 0-7 3-11.1 1 0 0-2.8-7.7-4.3-10.7l-3.3-5.6-7.1-.1s-.8-1.4-1.2-3.9c-.3-2.5 0-3.5 0-3.5l6.7-1.5h1.4z"/></defs><clipPath id="X"><use xlink:href="#W" overflow="visible"/></clipPath><circle clip-path="url(#X)" fill="#F27B27" cx="32.6" cy="67" r="2.6"/><defs><path id="Y" d="M36.8 38.8c.3-.2 3.2-.3 9.1-1.6 5.9-1.3 13-1.3 13-1.3l9.9 2s-1.3 1.5-1.6 4.1c-.3 2.6-.6 3.3-.6 3.3l-5.1-.8 4.3 14s2 1.2-10.1 4.6c0 0-7 3-11.1 1 0 0-2.8-7.7-4.3-10.7l-3.3-5.6-7.1-.1s-.8-1.4-1.2-3.9c-.3-2.5 0-3.5 0-3.5l6.7-1.5h1.4z"/></defs><clipPath id="Z"><use xlink:href="#Y" overflow="visible"/></clipPath><circle clip-path="url(#Z)" fill="#F27B27" cx="42.9" cy="65.1" r="2.6"/><defs><path id="aa" d="M36.8 38.8c.3-.2 3.2-.3 9.1-1.6 5.9-1.3 13-1.3 13-1.3l9.9 2s-1.3 1.5-1.6 4.1c-.3 2.6-.6 3.3-.6 3.3l-5.1-.8 4.3 14s2 1.2-10.1 4.6c0 0-7 3-11.1 1 0 0-2.8-7.7-4.3-10.7l-3.3-5.6-7.1-.1s-.8-1.4-1.2-3.9c-.3-2.5 0-3.5 0-3.5l6.7-1.5h1.4z"/></defs><clipPath id="ab"><use xlink:href="#aa" overflow="visible"/></clipPath><circle clip-path="url(#ab)" fill="#F27B27" cx="53.2" cy="63.2" r="2.6"/><defs><path id="ac" d="M36.8 38.8c.3-.2 3.2-.3 9.1-1.6 5.9-1.3 13-1.3 13-1.3l9.9 2s-1.3 1.5-1.6 4.1c-.3 2.6-.6 3.3-.6 3.3l-5.1-.8 4.3 14s2 1.2-10.1 4.6c0 0-7 3-11.1 1 0 0-2.8-7.7-4.3-10.7l-3.3-5.6-7.1-.1s-.8-1.4-1.2-3.9c-.3-2.5 0-3.5 0-3.5l6.7-1.5h1.4z"/></defs><clipPath id="ad"><use xlink:href="#ac" overflow="visible"/></clipPath><circle clip-path="url(#ad)" fill="#F27B27" cx="63.5" cy="61.2" r="2.6"/><defs><path id="ae" d="M36.8 38.8c.3-.2 3.2-.3 9.1-1.6 5.9-1.3 13-1.3 13-1.3l9.9 2s-1.3 1.5-1.6 4.1c-.3 2.6-.6 3.3-.6 3.3l-5.1-.8 4.3 14s2 1.2-10.1 4.6c0 0-7 3-11.1 1 0 0-2.8-7.7-4.3-10.7l-3.3-5.6-7.1-.1s-.8-1.4-1.2-3.9c-.3-2.5 0-3.5 0-3.5l6.7-1.5h1.4z"/></defs><clipPath id="af"><use xlink:href="#ae" overflow="visible"/></clipPath><circle clip-path="url(#af)" fill="#F27B27" cx="38.7" cy="71.1" r="2.6"/><defs><path id="ag" d="M36.8 38.8c.3-.2 3.2-.3 9.1-1.6 5.9-1.3 13-1.3 13-1.3l9.9 2s-1.3 1.5-1.6 4.1c-.3 2.6-.6 3.3-.6 3.3l-5.1-.8 4.3 14s2 1.2-10.1 4.6c0 0-7 3-11.1 1 0 0-2.8-7.7-4.3-10.7l-3.3-5.6-7.1-.1s-.8-1.4-1.2-3.9c-.3-2.5 0-3.5 0-3.5l6.7-1.5h1.4z"/></defs><clipPath id="ah"><use xlink:href="#ag" overflow="visible"/></clipPath><circle clip-path="url(#ah)" fill="#F27B27" cx="49" cy="69.2" r="2.6"/><defs><path id="ai" d="M36.8 38.8c.3-.2 3.2-.3 9.1-1.6 5.9-1.3 13-1.3 13-1.3l9.9 2s-1.3 1.5-1.6 4.1c-.3 2.6-.6 3.3-.6 3.3l-5.1-.8 4.3 14s2 1.2-10.1 4.6c0 0-7 3-11.1 1 0 0-2.8-7.7-4.3-10.7l-3.3-5.6-7.1-.1s-.8-1.4-1.2-3.9c-.3-2.5 0-3.5 0-3.5l6.7-1.5h1.4z"/></defs><clipPath id="aj"><use xlink:href="#ai" overflow="visible"/></clipPath><circle clip-path="url(#aj)" fill="#F27B27" cx="59.3" cy="67.2" r="2.6"/><defs><path id="ak" d="M36.8 38.8c.3-.2 3.2-.3 9.1-1.6 5.9-1.3 13-1.3 13-1.3l9.9 2s-1.3 1.5-1.6 4.1c-.3 2.6-.6 3.3-.6 3.3l-5.1-.8 4.3 14s2 1.2-10.1 4.6c0 0-7 3-11.1 1 0 0-2.8-7.7-4.3-10.7l-3.3-5.6-7.1-.1s-.8-1.4-1.2-3.9c-.3-2.5 0-3.5 0-3.5l6.7-1.5h1.4z"/></defs><clipPath id="al"><use xlink:href="#ak" overflow="visible"/></clipPath><circle clip-path="url(#al)" fill="#F27B27" cx="69.6" cy="65.3" r="2.6"/><path fill="#EEE5C3" d="M40.9 34.1l3.5 3.6-2.5 1.8s2.7.7 4.1 1.5l1.4.7s2.4-3.4 3.7-3.8l1.3-.4-3.9-.5-1.8-4-5.8 1.1z"/><path fill="#E7E7E7" d="M40.9 34.1l1.7 1.8c1.6.1 3.3.1 4.7-.1.2 0 .3 0 .5-.1l-1.2-2.7-5.7 1.1z"/><path fill="#EEE5C3" d="M37 12.3s-1.5.4-1.8 2.2c-.2 1.8 0 3.5 0 3.5s-4.2-2-4.2 2l3.6 3.1s.1 4.3.6 7.7c.5 3.5 1.2 4 1.2 4s6.9 1 10.9.5l7.4-2.2s1.4-20.7-1.2-25.3c-2.4-4.7-16.5 4.5-16.5 4.5z"/><path fill="#CAA558" d="M33.7 16.9s2.4-1.3 8.1-2.4c5.7-1.1 10.3-.7 10.3-.7s1.3-3.3 1.4-3l.7 3s.4.4 1.4.7c.9.3.9.7.9.7s2.2-.7 1.8-3c-.4-2.3-4.3-8.4-8.7-8.2l-5 1.4.3-2.2-2 2.8s-3.1-.4-6.6 2.8c-3.5 3.1-2.6 8.1-2.6 8.1z"/><path fill="#CAA558" d="M43.7 16c.1 0 1.4-.5 2.6-.6 1.2-.1 2 0 2 0s-.3-1-1.7-.9c-1.5 0-2.9 1.5-2.9 1.5z"/><path fill="#CAA558" d="M52.2 15.8l2.4 1s-.7-1.4-1.4-1.6c-.6-.2-1 .6-1 .6z"/><polygon points="44.6,18.5 47.2,18.2 45.9,17.1" fill="none"/><path d="M52.8 19c.2 0 1.8.6 1.8.6s-.2-.9-.6-1.1c-.5-.2-1.2.5-1.2.5z" fill="none"/><path fill="#A4773B" d="M47.7 20.9c0 .5-.4.9-.9.9s-.9-.4-.9-.9v-1c0-.5.4-.9.9-.9s.9.4.9.9v1z"/><path fill="#A4773B" d="M54.1 21.8c0 .4-.3.7-.7.7-.4 0-.7-.3-.7-.7v-.8c0-.4.3-.7.7-.7.4 0 .7.3.7.7v.8z"/><path fill="#CBB199" d="M49.2 25.9h2.6l-1.3-1.6s.3.4.1.8c-.1.4-1.4.8-1.4.8z"/><path fill="#CBB199" d="M41.4 26.1s3.3 1.9 6.3 2.2h5.1s-1.7.8-2.3 1.3c-.5.6-.6 1.5-.6 1.5s-6-1.8-8.5-4.9v-.1z"/><path fill="#E7E7E7" d="M41.1 27.4s-.3-1 .3-1.3l.9-.1s-.8-.7-1.4-.4l.2 1.8z"/><path fill="#E7E7E7" d="M52.4 27.9c.1 0 .4.2.4.4.1.3 0 1 0 1s.4-.4.4-.8-.8-.6-.8-.6z"/></svg>