<!DOCTYPE svg PUBLIC "-//W3C//DTD SVG 1.1//EN" "http://www.w3.org/Graphics/SVG/1.1/DTD/svg11.dtd" [
	<!ENTITY ns_flows "http://ns.adobe.com/Flows/1.0/">
]><svg xmlns="http://www.w3.org/2000/svg" xmlns:xlink="http://www.w3.org/1999/xlink" width="158" height="150" viewBox="0 0 158 150"><defs><symbol id="a" viewBox="-79 -75.3 158 150.3"><path opacity=".2" fill="#231F20" d="M-66.3-48.3l-12.3-4 .3-14.3 44.3-1.3s7-7.7 6.3-7.3 65.5.9 64.9 1.2c-.7.3-2.9 7.6-2.9 7.6l44.3.5-1.3 10.3-18.3 9.3-125.3-2z"/><polygon fill="#E0D4AC" points="-70,12 67,12 67,-60 -70,-60"/><polygon fill="#5A4049" points="16,4 -19,4 -19,-54 16,-54"/><polygon opacity=".2" fill="#231F20" points="16,4 -19,4 -19,-31 16,-31"/><g fill="#5A4049"><polygon points="-56,-37 -41,-37 -41,-19 -56,-19"/><polygon points="-39,-37 -24,-37 -24,-19 -39,-19"/><polygon points="-56,-17 -41,-17 -41,1 -56,1"/><polygon points="-39,1 -39,-17 -24,-17 -24,1"/></g><polygon opacity=".2" fill="#231F20" points="-56,-37 -51.9,-37 -41.5,-19 -56,-19"/><polygon opacity=".2" fill="#231F20" points="-56,-17 -41,-17 -41,1 -56,1"/><polygon opacity=".2" fill="#231F20" points="-39,1 -39,-14.6 -29.6,1"/><g fill="#5A4049"><polygon points="21,-37 36,-37 36,-19 21,-19"/><polygon points="38,-37 53,-37 53,-19 38,-19"/><polygon points="21,-17 36,-17 36,1 21,1"/><polygon points="38,1 38,-17 53,-17 53,1"/></g><polygon opacity=".2" fill="#231F20" points="21,-37 24.8,-37 35.2,-19 21,-19"/><polygon opacity=".2" fill="#231F20" points="21,-17 36,-17 36,1 21,1"/><polygon opacity=".2" fill="#231F20" points="38,1 38,-14.6 47.1,1"/><polygon fill="#5A4049" points="-61,68 58,68 58,47 -61,47"/><polygon opacity=".2" fill="#231F20" points="-61,68 58,68 58,56.4 -61,63.3"/><polygon fill="#F7F7D4" points="64,75 -67,75 -67,68 64,68"/><path fill="#EEF1DF" d="M63.7 9h-141.7v-7.3c0-2.9 2.1-5.7 5.1-5.7h1.3c2.6 0 4.8 1.9 5.2 4.4.4-2.5 2.6-4.4 5.2-4.4h1.3c2.6 0 4.8 1.9 5.2 4.4.4-2.5 2.6-4.4 5.2-4.4h1.3c2.6 0 4.8 1.9 5.2 4.4.4-2.5 2.6-4.4 5.2-4.4h1.3c2.6 0 4.8 1.9 5.2 4.4.4-2.5 2.6-4.4 5.2-4.4h1.3c2.6 0 4.8 1.9 5.2 4.4.4-2.5 2.6-4.4 5.2-4.4h1.3c2.6 0 4.8 1.9 5.2 4.4 1.1-2.5 3.2-4.4 5.9-4.4h1.3c2.6 0 4.8 1.9 5.2 4.4.5-2.5 2.6-4.4 5.3-4.4h1.3c2.6 0 4.8 1.9 5.2 4.4.5-2.5 2.7-4.4 5.3-4.4h1.3c2.6 0 4.8 1.9 5.2 4.4.5-2.5 2.7-4.4 5.3-4.4h1.3c2.6 0 4.8 1.9 5.2 4.4.5-2.5 2.7-4.4 5.3-4.4h1.3c2.6 0 4.8 1.9 5.2 4.4.5-2.5 2.7-4.4 5.3-4.4h1.3c2.6 0 4.8 1.9 5.2 4.4.5-2.5 2.7-4.4 5.3-4.4h1.3c3 0 5.9 2.8 5.9 5.7v7.3h-12.3z"/><polygon fill="#E9806B" points="-60.8,51 58.1,51 75.5,9 -78.3,9"/><polygon fill="#EEF1DF" points="61.1,44 -63.9,44 -67.1,36 64.3,36"/><polygon fill="#EEF1DF" points="-71.2,26 -74.4,18 71.7,18 68.4,26"/><polygon fill="#EEF1DF" points="-28,-52 25,-52 25,-63 -28,-63"/></symbol></defs><use xlink:href="#a" width="158" height="150.3" x="-79" y="-75.3" transform="matrix(1 0 0 -1 79 75)" overflow="visible"/></svg>