<svg xmlns="http://www.w3.org/2000/svg" width="39.5" height="70.9" viewBox="0 0 39.5 70.9"><path opacity=".2" fill-rule="evenodd" clip-rule="evenodd" fill="#231F20" d="M21.9 67.8c-4.1 0-7.4.4-8 .8-1.2-.1-2.7-.1-4.2-.1-4.8 0-8.7.5-8.7 1.2s3.9 1.2 8.7 1.2c4.8 0 8.7-.5 8.7-1.2 1 .1 2.2.1 3.5.1 4.4 0 8-.4 8-1s-3.5-1-8-1z"/><path fill="#5F5033" d="M7.2 64.9l-1.7 1.6.9 1c.3 0 .7 2.4.7 2.4l6.4.4s-1.3-1.5-2.6-1.7c-1.3-.1-1.9-.1-1.9-.1v-3l-1.4-.6h-.4z"/><path fill="#6C907F" d="M13 35.1s-.7 4.3-.3 6l2.1 6.4s-2.1 6-4.1 10.3c-1.9 4.3-2.9 6.7-2.9 6.7l1.7.9s3.2-4.9 3.9-6.8c.7-1.9 3.1-7 3.1-7l1.5 3.1s.6 2.8 1.5 5.6l2.1 6 2.2-.8s-1.4-5-2.2-8.5c-.8-3.5-3-10.4-3-10.4s1.8-5.5 2-6.2c.2-.6-.1-5.9-.3-6.8-.2-.9-7.3 1.1-7.3 1.1v.4z"/><path opacity=".4" fill="#A6A8AC" d="M20.3 34c-.2-1-7.3 1.1-7.3 1.1l.1.2s-.1.4-.1.9c.5 0 1.6-.2 3.4-.4 2-.3 3.6-.6 4.1-.8-.1-.4-.2-.8-.2-1z"/><rect x="20.6" y="64.3" transform="matrix(.963 -.27 .27 .963 -16.835 8.468)" fill="#677A64" width="3.7" height="2.3"/><rect x="7" y="63.3" transform="matrix(.897 .442 -.442 .897 29.406 2.716)" fill="#677A64" width="3.7" height="2.3"/><path fill="#5F5033" d="M20.9 66.8v2.1h2v-.4l.7.3s4.3-1.6 5.4-2.1c1.1-.5 1.6-.5 1.6-.5s-1.8-.9-4.1-.8c-2.3.1-3.2.8-3.2.8l-2.4.6z"/><rect x="33.9" y="40.2" transform="matrix(.804 -.594 .594 .804 -19.538 29.818)" fill="#A1A16C" width="3.3" height="8.8"/><rect x="33" y="40.8" transform="matrix(.892 -.453 .453 .892 -16.707 20.57)" fill="#B0CDAC" width="3.3" height="8.8"/><path fill="#876F54" d="M3.2 38.9s5.9-10.9 8.2-14.2l2.3-3.3.3 1.2s-4.7 6.4-6.2 9.3c-1.5 2.8-3.5 6.8-3.5 6.8l-1.1.2z"/><path fill="#EEE5C3" d="M19.4 4.4s.8 2.5 1.2 4.8c.4 2.4.7 4 .7 4s-2.1.7-4.1.9c-2 .2-1.8.2-1.8.2v1.7s2.3 1.3 1.6 2.2c-.7.9-3.4.4-3.6-.7-.2-1.1.7-1.4.7-1.4s-.7-2.5-.9-4.2-1-6.8 0-8.1c1-1.3 4.4-3.7 6.2.6z"/><path fill="#929497" d="M11.9 9.5"/><path fill="#6D6044" d="M15.8 6.6l.9-.3s-.2-.3-.4-.3c-.3.1-.5.6-.5.6"/><path fill="#6D6044" d="M19.6 6.2l-.9-.3s.2-.3.4-.3l.5.6"/><path fill="#6D6044" d="M16.8 7.6c0 .2-.2.3-.3.3-.2 0-.3-.2-.3-.3v-.5c0-.2.2-.3.3-.3.2 0 .3.2.3.3v.5z"/><path fill="#6D6044" d="M19.7 7.1c0 .2-.2.3-.3.3-.2 0-.3-.2-.3-.3v-.4c0-.2.2-.3.3-.3.2 0 .3.2.3.3v.4z"/><path fill="#CBB199" d="M18.4 8.3l.6 1.6-.7.6s.2-.3.2-.6c0-.4-.3-1.6-.1-1.6z"/><path fill="#6D6044" d="M18.3 10.7l.1.6s-1.1.3-2.3 0c0 0-.4-.3-.2-.5 0 0 .2.3.4.3.3 0 1.1-.1 1.4-.2l.6-.2z"/><path fill="#6D6044" d="M18.4 10.7l.1.6s.9 0 1.8-.4c0 0 .3-.3.1-.4 0 0-.1.3-.3.3s-1 .1-1.2.1c-.3-.1-.5-.2-.5-.2z"/><path fill="#81AFA1" d="M9.2 17s.8-.1 1.8-.3l2.6-.4c.4 0 1.6 1.8 1.9 1.8.5 0-1-1.9 1-1.9s4.4.1 4.4.1l-.3 17.9s-1.9.5-4.3.8c-2.4.3-3.7.4-3.7.4l-3.4-18.4z"/><path fill="#81AFA1" d="M8.6 17.7c-.3.6-4.3 16.7-4.3 16.7s0 1.2.7 1.1c.7 0 4.2-.6 4.2-.6l1.2-2.9-3 .6s2.6-9.4 3-10.1l.5-.6-1.6-4.8-.7.6z"/><path fill="#81AFA1" d="M20.8 16.3s.5-.1.5 1.6c-.1 1.5 1.3 9.2 4 13.5 2.7 4.3 6.2 7.9 6.2 7.9l-1.8 1.7s-3-3.1-5.2-6.6-4.2-9.2-4.5-10.1c-.3-.9.8-8 .8-8z"/><polygon fill="#6C907F" points="16.4,29.6 16,28.9 16.4,28.2 17.1,28.2 17.5,28.9 17.1,29.6"/><polygon fill="#6C907F" points="16.8,32.7 16.4,32.1 16.8,31.4 17.6,31.4 18,32.1 17.6,32.7"/><path opacity=".4" fill="#BBBDBF" d="M9.2 34.8l1-2.5-.5-.3-1.4.3-1.4 2.8c1.1-.1 2.3-.3 2.3-.3z"/><path d="M19.5 16.5" fill="none"/><path fill="#6D6044" d="M1.2 48.2c.2 0 3 1 3 1l4.4-11.4-1.5-1-4.1 1.6-3 7.3 1.2 2.5z"/><path d="M11.7 34.4c.5-.3.8-.7.7-1l-.4-.3-.6 1.3h.3z" fill="none"/><polyline fill="#E7E7E7" points="32.2,47.3 34.3,46.1 32.4,40.9 30.9,39.7 29.5,40.9"/><path fill="#CBB199" d="M16 11.4s1 .3 2.1.2c1.1-.1 1.9-.4 1.9-.4s-1.2.5-1.2.7v.1s-2.2-.1-2.8-.6z"/><path fill="#EEE5C3" d="M13 6.2s-1.3.2-1.1 1.5c.2 1.3.6 1.9 1.2 2 .6.1 1.3-.2 1.3-.2l-1.2-3.2c-.1-.1-.3-.3-.2-.1z"/><path fill="#6D6044" d="M13.2 10.1c-.2.3-.2.5-.2.5l-1.1-1s-.4-2 .1-3.1.7-1.3.7-1.3l2.4-.3s-.8.6-1.2 1.9c-.4 1.3-.5 2-.5 2s-.1-2.4-.9-2.3c-.8 0-.4 1.9 0 2.3l.7.4"/><path opacity=".4" fill="#929497" d="M19.6 5h-.2l.1-.5v-.1c-1.8-4.3-5.2-1.9-6.2-.6-.2.3-.4.8-.4 1.4h-.1l-.5 1c.3 0 1-.1 1.7-.2.6.1 1.9.4 3.3.2l2.4-.7-.1-.5z"/><path fill="#DCEBE2" d="M13.1 17.6s2 6.4 2 6.5c0 .1 1.5 2 1.5 2l1.2-2-.5-4.5-1.1-2.8s-.1 1-.8 1c-.6 0-1.3-1-1.7-.9-.4.2-.7.5-.6 1"/><path fill="#6C907F" d="M16.2 16.3s.7 3.9.8 5.3c.2 1.4-.4 3.9-.4 3.9l2-6.3-2.4-2.9z"/><path fill="#4E614B" d="M15.1 17.2h1.1l-.3 1.5h-.3l-.1-.1c-.2-.2-.7-.8-.6-1 0-.2.2-.4.2-.4z"/><polygon fill="#4E614B" points="15.6,25.5 16.7,26.2 17.5,24.9 15.6,18.1 15.4,18.3"/><polygon fill="#B0CEC2" points="15.4,17.3 14.4,19.8 13,16.7 13.9,15.9 14,15.9"/><polygon fill="#B0CEC2" points="15.4,15.7 15.4,17.3 16.9,18.7 16.4,16.5"/><polygon fill="#6C907F" points="17.3,21.6 16.7,26.2 18.4,23.9"/><polygon fill="#6C907F" points="13,16.5 11.5,19.6 15.8,24.7"/><polygon fill="#6C907F" points="13.1,16.7 11.5,19.8 15.9,24.9"/><polygon fill="#6C907F" points="14.4,21.8 13.6,24.1 16.7,26.2"/><rect x="31.1" y="42" transform="matrix(.941 -.338 .338 .941 -13.774 13.83)" fill="#B1B17E" width="3.3" height="8.8"/><path fill="#EEE5C3" d="M31.6 39.5l1.6 1.6s-.5 1.3-.4 1.9c.1.6-.4.9-.7.4-.1-.7-.1-1.4-.1-1.4l-2 .8-.5-1.3 2.1-2z"/><path opacity=".4" fill="#BBBDBF" d="M28.4 39.6c.8.9 1.3 1.4 1.3 1.4l1.8-1.9s-.5-.5-1.2-1.3l-1.9 1.8z"/><rect x="28.2" y="38.7" transform="matrix(.73 -.683 .683 .73 -18.916 31.559)" fill="#677A64" width="4.5" height="2.1"/><rect x="6.8" y="32.9" transform="matrix(.439 -.899 .899 .439 -25.454 27.265)" fill="#677A64" width="4.5" height="2.1"/><path fill="#876F54" d="M19.5 15.9s-3.8 9.2-5.9 12.3l-6.4 9.5.7.7s6.2-8.1 6.9-9.3c.7-1.2 4.1-8.6 6.1-12.5v-.6h-1.4z"/><path fill="#EEE5C3" d="M8.5 34.6l1.8-3.6 1.9.5.3.7-1 2-.5.7h-1.5l-.8.5s-.4-.4-.2-.8z"/><polygon opacity=".4" fill="#808184" points="16.6,51.6 14.8,47.5 14.6,48.1 16.3,52"/><path fill="#677A64" d="M12.2 5.8c.1 0 3-.3 4.9-.6 2-.3 2.5-.6 2.5-.6l.3-2.7s-2.3-1.9-3.5-1.9c-1.2 0-4.9 3.4-4.9 3.4l.7 2.4z"/><polygon fill="#DCEBE2" points="16.9,3.9 16.2,2.9 16.9,1.9 18.3,1.9 19,2.9 18.3,3.9"/><polygon fill="#5F5033" points="3,38.6 0,45.9 1.2,48.2 7.1,36.9"/><path fill="#4E614B" d="M13.9 5.4c.1 0 1.8.5 3.6.2 1.7-.3 3.9-1 3.9-1s.2-.3-3.1 0c-3.5.5-4.4.8-4.4.8z"/><path fill="#CBB199" d="M15.9 7.1l1-.4s-.1 0-.3-.1l-.2-.1s-.5.5-.5.6z"/><path fill="#CBB199" d="M18.6 6.8l1-.3s-.1 0-.3-.1l-.2-.1s-.5.4-.5.5z"/></svg>