<!DOCTYPE svg PUBLIC "-//W3C//DTD SVG 1.1//EN" "http://www.w3.org/Graphics/SVG/1.1/DTD/svg11.dtd" [
	<!ENTITY ns_flows "http://ns.adobe.com/Flows/1.0/">
]><svg xmlns="http://www.w3.org/2000/svg" width="3000" height="723" viewBox="0 0 3000 723"><path fill-rule="evenodd" clip-rule="evenodd" fill="#BAB661" d="M0 14.1c108-11 351-15 554-14s666 12 787 11 1053-1 1255 1l202 2h202v604h-3000v-604z"/><path fill-rule="evenodd" clip-rule="evenodd" fill="#A5A58C" d="M3000 101.3c-108-11-351-7.1-554-6.1s-666 4.1-787 3.1-1054-3.2-1256-1.2l-201 4.1h-202v621.9h3000v-621.8z"/><path fill-rule="evenodd" clip-rule="evenodd" fill="#9F9F8A" d="M3000 129.1c-108-11-351-15-554-14s-666 12-787 11-1053-1-1255 1l-202 2h-202v594h3000v-594z"/><path fill-rule="evenodd" clip-rule="evenodd" fill="#BAB661" d="M3000 144.3c-108-11-351-15-554-14s-666 12-787 11-1053-1-1255 1l-202 2h-202v578.9h3000v-578.9z"/><path fill="#A7A34A" d="M0 284.7l331 4.2s459.5-87.3 518.7-90.7c110.3-6.3 367.3 4.1 374.2 6.2 6.9 2.1 457.5 37.8 457.5 37.8l334-45.8s236.1 21.7 242.7 18.9c6.6-2.8 137.2-.1 149 2 11.8 2.2 592.9 67.4 592.9 67.4v438.5h-3000v-438.5z"/></svg>