<svg xmlns="http://www.w3.org/2000/svg" width="65.6" height="69" viewBox="0 0 65.6 69"><ellipse opacity=".2" fill-rule="evenodd" clip-rule="evenodd" fill="#231F20" cx="11.8" cy="67.2" rx="11.8" ry="1.7"/><ellipse opacity=".2" fill-rule="evenodd" clip-rule="evenodd" fill="#231F20" cx="53" cy="67.2" rx="11.8" ry="1.7"/><path fill="#3F3A31" d="M32.4 63.5s5.6-.4 5.7-.4c.1 0 1.4-.5 1.4-.5l.4.5 1.6-.8-1.5-2.1-.5-.5-1.5.7.3.5-3.3 1.4s-1.5.3-2.1.5c-.6.1-.5.7-.5.7z"/><polygon fill="#B1B17E" points="35.4,56.5 34.6,56.7 37,63.2 37.8,63"/><path fill="#453C4B" d="M31.3 49.5l-.5-1.6c.2-.1-4.1-11.8-4.1-11.8s-.1-.9.2-1.1l14.5-4.1-.3-.9s1.7-.8 3.9-1c2.2-.2 2.6.4 2.6.4s.9 1.3.8 2.6c-.1 1.3-12.2 14.4-12.2 14.4l3.8 13.6s-.4.5-1.1.8c-.6.3-1.1.2-1.1.2l-4.7-14.4s-.2-.6 0-1 8.4-10.8 8.4-10.8l-11.6 2.3 3.1 10 .6 1.4s-2.1.8-2.3 1z"/><path opacity=".19" fill="#808184" d="M48.1 30.3c-.1.5-.3.9-.6 1.8-.6 1.9-12.4 13.7-12.4 13.7l4.3 14.7c.4-.2.6-.5.6-.5l-3.8-13.6s12.1-13 12.2-14.4c.2-.6 0-1.2-.3-1.7z"/><path fill="#876F54" d="M21 30.2c.1.1 1.6 1.9 1.6 1.9l10.1-6.2 7.7-7s.3-1.9-.4-2.7c-.7-.8-1.4.3-1.4.3s-6.4 6.1-8.8 7.8c-2.4 1.6-8.8 5.9-8.8 5.9z"/><path fill="#162129" d="M12.7 43.3c-6.7 0-12.1 5.5-12.1 12.2 0 6.7 5.4 12.1 12.1 12.1s12.1-5.4 12.1-12.1c.1-6.7-5.4-12.2-12.1-12.2zm0 23.2c-6.1 0-11.1-5-11.1-11.1s5-11.1 11.1-11.1 11.1 5 11.1 11.1c0 6.2-5 11.1-11.1 11.1z"/><path fill="#FFE2B7" d="M34.7 3.5l-.9 5.7h.5l-.1 3.7h4.2l.5 1.8-.4 2.1 2.7-2-.6-3.1 1.9-2.9-.3-3.5s-1.1-2.4-4.2-2.7c-3-.3-3.3.9-3.3.9z"/><path fill="#6D6044" d="M38.7 4.4l.1 3.7s.4-2 .8-2c.4.1.4.7.4 1.2s-.5.9-.5.9l1.3 3.2 2-2.3-.1-3.1-1.1-1.3-2.9-.3z"/><path fill="#6D6044" d="M34.9 5.2c.1 0 1.1.5 1.1.5s-.2-.6-.4-.7l-.7.2z"/><path fill="#6D6044" d="M34.8 6.3c0-.1.1-.3.3-.3.1 0 .3.1.3.3l-.1 1.1c0 .1-.1.3-.3.3-.1 0-.3-.1-.3-.3l.1-1.1z"/><path fill="#FFE2B7" d="M21.2 29.9c-.2.1-3.2 2-3.2 2l.4 2.6 2 .3 1.7-1-1.2-.1-.4-1.4 1-.4.6.4.1 1s.3-.5.4-.9l-.2-1.4-1.2-1.1z"/><path fill="#B7C0B4" d="M53.7 55.2l-11.3-14 2.8-5.7-.7-.3-3 6.1-24 .2 2.4-7.9-.7-.2-6.6 22.1.7.2 3.9-13.2 17.1 14.5.4-.5h.1l7.2-14.6 11.1 13.7.6-.4zm-12.6-13.2l-6.9 13.9-16.1-13.7 23-.2z"/><path fill="#AC7031" d="M38.1 37c.1 0 8.5-.5 8.5-.5s1.2-.6 1.3-1l-.2-1s-1.4-.3-3.9 0c-2.4.2-5.1 1.6-5.4 2.1-.5.3-.3.4-.3.4z"/><circle fill="#B1B17E" cx="12.9" cy="55.4" r="1.9"/><circle fill="#B1B17E" cx="53.4" cy="55.4" r="1.9"/><path fill="#162129" d="M53.5 43.3c-6.7 0-12.1 5.4-12.1 12.1 0 6.7 5.4 12.1 12.1 12.1s12.1-5.4 12.1-12.1c0-6.6-5.4-12.1-12.1-12.1zm0 23.2c-6.1 0-11.1-5-11.1-11.1s5-11.1 11.1-11.1 11.1 5 11.1 11.1c-.1 6.2-5 11.1-11.1 11.1z"/><circle fill="#B7C0B4" cx="34.8" cy="56.2" r="3.1"/><path fill="#043F46" d="M53.4 53.5l-18.6-.5c-1.7 0-3.1 1.4-3.1 3.1 0 1.7 1.4 3.1 3.1 3.1.2 0 .4 0 .6-.1l18-1.9c1 0 1.9-.8 1.9-1.9 0-1-.8-1.8-1.9-1.8zm-.2 3.6l-17.4 1.7-.6.1c-1.6 0-3-1.2-3-2.7 0-1.5 1.3-2.7 3-2.7l18 .4c1 0 1.8.7 1.8 1.6s-.8 1.6-1.8 1.6z"/><path fill="#CBB199" d="M37.4 10.3s-.4.6-1.3.8l-1 .2s.3-.2.4-.3l-1.2-.1s1 0 2.1-.3c1-.2 1-.2 1-.3"/><path fill="#CBB199" d="M37 10.2s.3 0 .4.2v.4s.3-.4.2-.6h-.6z"/><path opacity=".4" fill="#808184" d="M42.6 5.3s-1.1-2.4-4.3-2.7c-3.2-.3-3.5.9-3.5.9l-.2 1.2 8.1 1.8-.1-1.2z"/><polygon fill="#AC7031" points="20.8,33.4 20.5,32.7 20.8,32 21.6,32 22,32.7 21.6,33.4"/><path fill="#FFE2B7" d="M21.2 29.5c-.2.1-2.9 1.8-2.9 1.8l.3 2.4 1.8.3 1.5-1-1.1-.1-.3-1.3.9-.3.6.3.1.9s.3-.4.4-.8l-.1-1.2-1.2-1z"/><polygon fill="#B1B17E" points="18.6,35.7 18.2,35.7 18,34.2 18.2,32.7 18.6,32.7 18.8,34.2"/><polygon fill="#D2E9DC" points="18.2,35.7 17.7,35.7 17.5,34.2 17.7,32.7 18.2,32.7 18.4,34.2"/><path fill="#453C4B" d="M29.9 37.1l11.6-2.3c1.4-.4 3.3-1 3.7-1.2.7-.2.9-1.1.3-2.5-.5-1.1-2.1-1.3-4.3-1.3h-.1l.2.9s-14.2 3.8-14.5 4.1c-.3.3-.2 1.1-.2 1.1s4.3 11.7 4.1 11.8l.5 1.6c.2-.2 2.3-1 2.3-1l-.5-1.2-3.1-10z"/><polygon opacity=".4" fill="#A6A8AC" points="39,14.7 38.6,16.8 41.3,14.8 40.8,12 38.6,13.2"/><path opacity=".25" fill="#808184" d="M45.3 33.7c.4-.1.6-.5.7-1l-.4.3c-.8.6-17 3.4-17 3.4l4 12.5c.6-.2 1.1-.5 1.1-.5l-.7-1.3-3.1-10 11.6-2.3c1.5-.3 3.4-.9 3.8-1.1z"/><path fill="#A1914E" d="M37.4 14.1l4.2-2.1.5 3.1s2.3 2.5 3.9 6.5c1.3 3.2 2.2 8.2 2.2 8.2s-2.5-.3-4.2-.2c-1.7.1-2.7 1.3-2.7 1.3s-4.2-13.5-3.6-14.6c.6-1.1.5-.7.5-.7l-.8-1.5z"/><polygon fill="#AC7031" points="38.4,19.5 47.9,26.8 48.9,27.6 48.5,29.1 37.8,20"/><polygon fill="#AC7031" points="49,33.7 51.8,32.5 49.7,25 48.2,24.4 46.9,24.7"/><polygon fill="#6D6044" points="48.2,24.3 48.2,24.3 50.7,32.9 51.8,32.5 49.7,25"/><path fill="#A1914E" d="M20.2 29.9c.1.1 1.6 1.9 1.6 1.9l10.1-6.2 7.7-7s.3-1.9-.4-2.7c-.7-.8-1.4.3-1.4.3s-6.4 6.1-8.8 7.8l-8.8 5.9z"/><polygon fill="#856566" points="30,3.2 46.4,7 42.7,4.7 43.4,1.9 35.6,0 34.6,3.1"/><path fill="#CBB199" d="M34.7 6.1c.1 0 .9.2.9.2s-.4-.5-.5-.5l-.4.3z"/><rect x="33.4" y="50" transform="matrix(.939 -.344 .344 .939 -16.32 14.909)" fill="#B1B17E" width=".8" height="6.7"/><rect x="30.9" y="50" fill="#B1B17E" width="5" height="1"/><path fill="#3F3A31" d="M26.3 52l5.2-1.5.3.5 2.9-.7-1-2.3-2.3.8s-4.2 1.6-4.9 2c-.5.3-.2 1.2-.2 1.2z"/></svg>