<svg xmlns="http://www.w3.org/2000/svg" xmlns:xlink="http://www.w3.org/1999/xlink" width="1491.857" height="654.023" viewBox="329.429 19.009 1491.857 654.023" enable-background="new 329.429 19.009 1491.857 654.023"><path fill="#C9A457" d="M465.223 629.512l1.104 19.521s-5.287 2.549-8.692 2.1c-3.406-.45-5.772.325-5.772.325l.729-21.231 12.631-.715z"/><path fill="#C9A457" d="M401.585 633.106l-1.818 16.941s-2.318 3.839-6.25 2.612c-3.93-1.228-6.02-1.92-6.02-1.92l1.76-22.218 12.328 4.585z"/><path fill="#273035" d="M442.604 340.531l18.609 143.217 11.929 151.384s-7.643 1.397-17.319.979c-9.681-.42-14.336-3.838-14.336-3.838l-7.867-139.243-18.268-97.655-9.619 100.679 4.747 140.688s-6.555 3.645-14.305 3.17c-7.75-.477-15.282-5.634-15.282-5.634l-5.923-147.587 7.438-143.955 60.196-2.205z"/><path fill="#181B1C" d="M443.894 331.378l-.249 12.272s-13.862 4.588-33.74 5.106c-19.877.521-28.193-3.476-28.193-3.476l-1.428-14.583 62.664.562"/><rect x="404.448" y="183.159" transform="matrix(-.998 .056 -.056 -.998 840.651 353.432)" fill="#97B0B7" width="21.777" height="10.844"/><path fill="#B6D2DA" d="M460.369 191.025l-37.934-4.979-20.649 1.167-35.655 6.167-21.102 154.164 16.238-.917 13.006-77.436 6.057 73.032s14.963 2.115 37.028 1.771c22.063-.344 31.313-5.389 31.313-5.389l.563-71.233 9.438 79.547 17.323-.979c.003-.001-4.715-121.982-15.626-154.915z"/><path fill="#443B4A" d="M502.875 665.493l-43.118-2.403s-3.524-4.768-4.998-4.1c-1.471.667 1.147 4.315 1.147 4.315l-7.272-.555.947-17.432 17.815-.789 34.978 12.128c.001.003 3.669 4.742.501 8.836z"/><path fill="#443B4A" d="M402.416 647.815c-2.413.034.912 16.136.912 16.136l-7.538.064s-3.443-6.461-4.297-4.48c-.854 1.979.266 4.71.266 4.71l-49.562 2.8s-3.542-11.459 15.587-14.624l30.12-6.805 14.512 2.199z"/><path fill="#C9A457" d="M459.295 338.676c.804 1.403 1.576 79.198 1.576 79.198s-7.973 6.243-7 17.05-2.491 16.158.885 15.88c3.377-.276 1.268-9.847 1.268-9.847s2.787-4.109 3.692 13.187c.904 17.298-1.033 19.247 1.08 19.128l2.113-.118-.144-21.716s2.618-1.956 3.066 1.274c.449 3.233-2.671 21.512 1.244 22.015 3.915.505 2.991-22.254 2.991-22.254s-1.705 21.097.923 22.759c2.628 1.66 3.347-1.64 3.347-1.64l.823-20.683s-.363 19.209 1.101 19.486c1.463.279 2.563-25.126.787-37.335-1.773-12.209-3.563-18.263-3.563-18.263l2.125-81.82-16.314 3.699z"/><path fill="#231F20" d="M475.607 334.979l-16.313 3.696c.297.521.59 11.505.842 25.134 4.973.099 9.854.34 14.714.295l.757-29.125z" opacity=".1"/><path fill="#C9A457" d="M469.605 469.063c.864-6.598.462-16.591.462-16.591s-.793 9.821-.462 16.591z"/><path fill="#C9A457" d="M348.031 332.521l-9.388 81.841s-5.078 3.056-6.161 15.666c-1.082 12.607-4.499 19.856-2.367 20.467 2.133.608 3.896-12.651 3.896-12.651s-1.655 28.188.416 29.154c2.072.965 3.231.371 3.231.371l.396-22.509s2.648 21.321 3.695 23.302c1.046 1.979 3.053.351 3.053.351l-.504-22.569 4.361 23.839s.423 2.651 1.436.165c1.015-2.489-.947-23.448-.947-23.448s3.438 20.765 4.558 20.529 2.293-39.031 1.875-44.9c-.419-5.869-3.527-7.317-3.527-7.317l13.575-80.306-17.598-1.985z"/><path fill="#231F20" d="M365.632 334.503l-17.601-1.981-2.82 24.594c5.282 1.437 10.68 2.995 16.053 3.228l4.368-25.841z" opacity=".1"/><path fill="#C9A457" d="M420.843 76.681l3.128 29.751s6.039-4.204 5.538 4.032c-.5 8.235-4.079 13.264-4.079 13.264l-2.513 58.068-2.253 19.919s-5.033 9.171-12.559 8.432c-4.344-.426-5.289-25.284-5.289-25.284l-.733-12.992s-7.19.887-16.95-.974l-9.76-1.862s-3.848-85.226-2.277-91.589c1.571-6.364 7.363-14.897 21.373-14.723 14.01.175 26.374 13.958 26.374 13.958z"/><path fill="#C9A457" d="M375.181 105.81s-3.157-4.648-4.838-.209c-1.68 4.439-.79 11.63.334 14.463l3.585 3.658.919-17.912z"/><path fill="#876F53" d="M381.135 147.107s5.495 1.137 14.878.607c9.385-.53 9.581-3.438 9.581-3.438s-5.325 8.266-14.307 9.497c-8.981 1.232 7.116-2.211-10.152-6.666z"/><path fill="#876F53" d="M389.328 138.317l-7.66-1.016 4.114-16.886s-4.477 16.907 3.464 16.458"/><path fill="#5E4F32" d="M404.369 109.771c-.083-1.495-1.365-2.639-2.859-2.554-1.495.084-2.638 1.366-2.554 2.86l.286 5.052c.084 1.495 1.365 2.638 2.857 2.554 1.495-.084 2.64-1.365 2.556-2.859l-.286-5.053z"/><path fill="#5E4F32" d="M384.119 110.191c-.051-.896-.819-1.583-1.716-1.532-.896.051-1.583.819-1.532 1.716l.367 6.496c.051.896.817 1.583 1.716 1.533.896-.051 1.583-.819 1.532-1.716l-.367-6.497z"/><path fill="#5E4F32" d="M406.798 101.488s-6.7-3.242-9.185-2.378c-2.485.865 1.26-3.329 4.527-3.152 3.27.178 4.658 5.53 4.658 5.53z"/><path fill="#5E4F32" d="M382.115 100.348l-7.837 2.253s.457-4.732 3.322-5.257c2.868-.523 4.515 3.004 4.515 3.004z"/><path fill="#5E4F32" d="M423.957 89.055s-4.785.754-11.739-2.715c-6.955-3.47-29.871-7.484-29.871-7.484l-.788-13.955s13.388-10.892 21.619-10.393c8.234.5 24.075 16.019 25.709 19.305l-4.93 15.242z"/><path fill="#5E4F32" d="M381.234 78.338l-.763-13.473c-7.962 4.31-8.172 9.15-7.898 13.962.271 4.812 3.693 5.584 3.693 5.584l4.968-6.073z"/><polygon fill="#97B0B7" points="401.786,187.213 395.893,190.442 395.311,212.197 403.813,202.307 404.144,201.923 402.828,187.154"/><polygon fill="#97B0B7" points="421.132,188.626 411.994,193.487 412.98,210.951 421.749,199.523"/><path fill="#6B907F" d="M422.652 198.415c-.963.055-2.992 15.417-15.166 14.6 0 0-7.624-2.159-6.938-9.922.688-7.763 1.683-5.015 1.683-5.015s1.622.49 1.583 4.23c-.035 3.345-1.411 5.872 2.625 7.358.477.175 1.027.336 1.668.482 1.865.427 3.498-.261 4.892-1.535 3.122-2.855 5.043-8.656 5.72-11.467.979-4.066 2.972 1.323 2.972 1.323"/><polygon fill="#6B907F" points="410.864,214.644 421.066,335.655 414.696,342.107 408.94,335.851 408.172,214.796"/><path fill="#A6C0C8" d="M425.859 182.567l-13.865 10.92s6.761 4.325 8.034 14.028c1.271 9.704.244 4.331.244 4.331l10.468-19.78-4.881-9.499z"/><path fill="#5E806F" d="M411.049 217.342s-2.492.743-3.128.177c-.636-.567-1.676-9.243-1.676-9.243s.868 2.707 3.811 1.521l2.942-1.184s-1.889 7.639-1.949 8.729z"/><polygon fill="#A6C0C8" points="403.267,201.371 395.893,190.442 401.238,186.525 402.824,185.487 404.392,201.307"/><path fill="#DCECE3" d="M482.908 333.693s-6.086 1.223-14.372 1.93c-8.287.708-18.469-.076-18.469-.076l4.35 25.73s2.506-.504 13.533-.764c11.026-.263 16.421-.929 16.421-.929l-1.463-25.891z"/><path fill="#DCECE3" d="M369.994 331.506l-.541 22.477s-11.848 1.758-18.405 1.041c-6.557-.717-11.786-3.553-11.786-3.553l3.559-20.359s19.876-.642 28.979.292"/><path fill="#876F53" d="M398.666 104.944s5.533 1.226 6.551 1.621c1.02.395-3.5-4.79-3.5-4.79s-.663 2.763-3.051 3.169z" opacity=".7"/><path fill="#876F53" d="M377.686 106.129s5.533 1.226 6.553 1.621c1.018.395-3.5-4.791-3.5-4.791s-.665 2.764-3.053 3.17z" opacity=".7"/><path fill="#5E4F32" d="M536.249 640.692c-.362 3.062 0 29.447 0 29.447h-11.206s-.723-5.422-2.892-3.254c-2.168 2.17-1.627 6.146-1.627 6.146l-62.354-2.169s1.084-12.459 7.591-14.001c6.506-1.542 41.568-13.231 41.568-13.231l28.92-2.938z"/><path fill="#5E4F32" d="M576.01 638.333c0 3.253 1.446 30.604 1.446 30.604h7.952s.317-6.025 2.688-4.22c2.371 1.809 3.096 4.22 3.096 4.22l49.157-3.495s-1.084-11.206-15.182-15.184c-14.098-3.976-23.495-9.566-23.495-9.566l-2.53-3.7-23.132 1.341z"/><polygon fill="#5C5062" points="506.013,186.193 544.923,175.296 587.816,179.924 529.501,298.968"/><path fill="#CBB198" d="M501.971 78.11c-.005 2.167 0 80.276 0 80.276s5.25 2.226 17.129 1.693c11.881-.533 17.958-1.693 17.958-1.693l-.831 11.81-4.418 13.11s4.146 4.144 9.396 3.59c5.249-.552 10.498-1.658 10.498-1.658l4.975-6.208s-1.659-22.38 0-40.133c1.656-17.753 2.485-19.977 2.485-19.977s12.154-54.134-5.25-66.29c-17.408-12.154-51.84-17.002-51.942 25.48z"/><path fill="#231F20" d="M553.909 52.632c-17.404-12.156-51.836-17.004-51.938 25.478-.001.489-.001 4.854-.001 11.309 20.43-.716 40.856-2.328 61.285-3.924.304-13.62-1.569-27.432-9.346-32.863z" opacity=".1"/><path fill="#6D5F43" d="M542.306 78.11c-.273 1.043 1.105 31.933 1.105 31.933s1.383-11.55 7.737-10.169c6.354 1.381 0 19.047 0 19.047h9.113s6.629-13.894 7.185-15.918c.553-2.025-1.658-24.893-1.658-24.893h-23.482z"/><path fill="#231F20" d="M565.789 78.11h-23.482c-.101.382.021 4.776.217 10.187 8.063-.165 16.072-.788 24.044-1.604-.405-4.703-.779-8.583-.779-8.583z" opacity=".1"/><path fill="#876F53" d="M506.115 141.476s13.737 4.808 36.152-4.308c0 0-7.295 7.457-22.414 9.116.001 0 1.395-.716-13.738-4.808z"/><path fill="#876F53" d="M510.223 112.764l-3.133 21.205 6.989 1.446s-3.856-1.206-3.495-6.506c.362-5.301-.361-16.145-.361-16.145z"/><path fill="#6D5F43" d="M522.754 96.376s5.531-2.491 9.874 2.008c0 0-1.922-5.14-6.26-5.14-4.337.001-3.614 3.132-3.614 3.132z"/><path fill="#6D5F43" d="M503.958 98.384s2.653-4.742 7.952-3.495c0 0-.239-2.851-3.978-2.609-3.734.241-3.974 6.104-3.974 6.104z"/><path fill="#6D5F43" d="M525.163 104.833c0-1.265 1.025-2.291 2.289-2.291 1.265 0 2.29 1.025 2.29 2.291v3.372c0 1.265-1.025 2.29-2.29 2.29-1.264 0-2.289-1.025-2.289-2.29v-3.372z"/><path fill="#6D5F43" d="M507.108 104.269c.014-.963.805-1.737 1.771-1.726.964.013 1.737.807 1.725 1.771l-.037 3.01c-.014.964-.807 1.738-1.771 1.726-.963-.013-1.737-.807-1.723-1.771l.035-3.01z"/><polygon fill="#61A172" points="544.923,175.296 549.623,256.264 539.14,268.915 528.463,261.686 530.707,205.711 532.392,174.384 496.849,181.354 483.475,305.923 483.475,321.082 507.072,322.249 508.416,507.844 509.5,634.046 534.803,637.609 537.694,510.735 546.008,390.057 552.153,390.779 564.804,511.87 574.925,631.154 598.42,628.573 593.36,502.783 587.215,327.454 590.107,268.554 598.42,296.387 601.674,303.065 628.061,294.218 599.866,175.296 565.166,169.673"/><path fill="#CBB198" d="M601.674 303.065l-5.422 109.352s-8.675.361-9.037 9.036c-.361 8.676-5.422 31.447-1.808 32.532 3.615 1.084 2.53 0 2.53 0l3.217-14.108s-2.494 34.472.759 35.314l3.977-25.905s-.36 25.062 3.978 25.905l1.808-24.821s1.809-2.894 3.253-.723c1.445 2.169-.36 25.783 2.893 25.544 3.253-.241 1.808 0 1.808 0l2.35-25.185s.904 22.05 1.988 23.134l1.084 1.085s1.084-50.604 0-53.136c-1.084-2.53-4.699-7.229-4.699-7.229l16.268-116.934-24.947 6.139z"/><path fill="#CBB198" d="M609.636 475.086l-.01.105s.704-.118.01-.105z"/><path fill="#231F20" d="M623.73 317.664l2.884-20.735-24.941 6.137-.773 15.638c7.601.254 15.235-.161 22.83-1.04z" opacity=".1"/><path fill="#CBB198" d="M505.886 322.102l-10.844 38.264s-13.736 5.18-15.543 2.95c-1.808-2.229-37.593-85.002-37.593-85.002s-3.252-8.314 0-10.844c3.253-2.53 12.29-2.892 12.29-2.892l27.471 62.876 3.615-6.372 20.604 1.02z"/><path fill="#231F20" d="M485.282 321.082l-2.535 4.47c2.646 8.254 9.311 14.349 17.243 17.355l5.896-20.806-20.604-1.019z" opacity=".1"/><path fill="#CBB198" d="M457.901 273.055s-1.897 8.873 6.055 7.427l7.966-3.94.537-9.263-14.558 5.776z"/><path fill="#667A64" d="M497.21 623.854v23.748s6.868-2.521 23.856-.835c16.987 1.688 22.771 3.493 22.771 3.493v-22.049s-13.375-8.314-28.556-8.314c-15.181-.001-18.071 3.957-18.071 3.957z"/><path fill="#667A64" d="M565.527 625.238s1.444 21.648 2.528 21.527 11.93-5.222 26.025-4.298c14.097.923 15.543.522 16.266 0 .725-.521 0-27.271 0-27.271s-14.191-.194-26.236 1.768c-12.043 1.964-18.687 6.78-18.583 8.274z"/><circle fill="#667A64" cx="541.825" cy="280.07" r="3.511"/><circle fill="#667A64" cx="541.825" cy="295.078" r="3.511"/><path fill="#DFE15B" d="M485.672 86.778l84.814-4.627s8.84-53.794-33.43-55.055c0 0-41.162-.534-40.334 38.194l-.275 16.861-10.775 4.627z"/><path fill="#667A64" d="M544.923 175.296c.724 1.084 12.651 29.024 12.651 29.024l5.713-31.917-7.348-14.018-11.016 16.911z"/><polygon fill="#4D604A" points="524.143,172.404 517.452,204.32 532.628,181.354 532.628,168.066"/><polygon fill="#667A64" points="534.803,181.311 530.836,203.301 524.143,172.404 536.61,164.593 536.181,170.173"/><path fill="#667A64" d="M591.914 297.471c0 1.807 3.615 15.904 3.615 15.904s11.928-1.084 21.326-2.892c9.396-1.808 15.182-5.061 15.182-5.061v-24.941l-40.123 16.99z"/><polygon fill="#667A64" points="479.499,306.508 508.416,303.065 508.416,327.454 481.516,327.454"/><path fill="#666032" d="M507.941 179.209c-22.895-14.371-67.481 14.458-67.481 14.458-24.941 25.962-13.375 45.608-9.76 53.82 3.615 8.212-1.446 16.368 27.002 17.09 28.449.723 42.76-10.121 42.76-10.121v-4.699c-65.787 31.085-67.956-4.699-67.956-4.699-24.939-62.533 66.871-66.51 67.956-66.028l3.163 1.038 3.05-.655"/><path fill="#666032" d="M452.75 183.844c23.405-9.477 36.85-6.259 44.04-1.861l.059-.629 1.917-.403c-19.173-11.149-40.684-3.37-58.306 5.997-19.881 10.567-38.677 66.062-10.844 76.046 27.833 9.982 70.773-13.676 70.773-13.676v-2.932s-29.666 14.262-59.931 16.548c-30.263 2.288-28.192-62.697 12.292-79.09z"/><path fill="#CBB198" d="M440.46 253.733s-3.977 25.665 1.445 24.58c5.422-1.084 4.338-2.892 4.338-2.892s0 3.321 3.615 2.926c3.613-.395 5.781-3.648 5.781-3.648s.997 2.57 3.935 2.188c2.936-.382 4.743-3.634 4.743-3.634s1.808 3.976 4.337 3.253c2.529-.723 2.169-28.556 2.169-28.556s-18.073-2.891-30.363 5.783z"/><path fill="#876F53" d="M530.489 102.085l-5.326-.783s1.35-.603 1.892-1.506c.542-.903 3.434 2.289 3.434 2.289z"/><path fill="#876F53" d="M511.501 102.085l-5.326-.783s1.352-.603 1.894-1.506c.54-.904 3.432 2.289 3.432 2.289z"/><path fill="#895F3C" d="M721.578 621.257l3.375 21.464s4.337 3.036 8.675 2.072c4.337-.965 4.337-2.171 4.337-2.171v-25.301l-16.387 3.936z"/><path fill="#231F20" d="M737.965 631.433v-14.109l-16.388 3.936 1.736 11.042c4.866.218 9.869.037 14.652-.869z" opacity=".2"/><path fill="#895F3C" d="M635.309 624.551v23.872s1.928 2.635 5.302 2.635c3.375 0 6.267-2.635 6.267-2.635l1.446-27.166-13.015 3.294z"/><path fill="#231F20" d="M635.309 624.551v13.437c3.969.694 7.991 1.246 12.037 1.604l.978-18.335-13.015 3.294z" opacity=".2"/><line x1="646.876" y1="648.423" x2="648.322" y2="621.257" fill="none"/><path fill="#013F46" d="M633.382 479.48c-.964 4.818-2.41 154.86-2.41 154.86s6.748 2.081 19.762 0c13.012-2.081 17.082-6.199 17.082-6.199v-146.25l-32.507-2.408-1.927-.003z"/><path fill="#013F46" d="M633.382 479.48c-.964 4.818-2.41 154.86-2.41 154.86s6.748 2.081 19.762 0c13.012-2.081 17.082-6.199 17.082-6.199v-146.25l-32.507-2.408-1.927-.003z"/><path fill="#231F20" d="M635.309 479.48h-1.927c-.215 1.072-.454 9.359-.693 21.588 11.736.845 23.459 2.773 35.127 4.137v-23.314l-32.507-2.411z" opacity=".2"/><path fill="#013F46" d="M703.746 485.265l8.675 142.88s13.013 3.111 21.207 0c8.193-3.11 12.531-10.821 12.531-10.821l-12.531-137.844-29.882 5.785z"/><path fill="#231F20" d="M703.746 485.265l1.28 21.083c10.278.162 20.671-.284 30.87-1.901l-2.27-24.964-29.88 5.782z" opacity=".2"/><path fill="#EEF1DF" d="M632.9 168.311s26.986-9.155 46.749-11.084c19.761-1.929 42.895 2.409 42.895 2.409l-49.16 119.043-40.484-110.368z"/><path fill="#895F3C" d="M737.965 396.104l-1.683 15.448s-4.582 7.204-2.654 20.698c1.927 13.494 1.931 11.084 1.931 11.084s.962 1.929 2.406-1.927c1.446-3.856-1.444-13.494 0-10.604 1.446 2.894 4.339 30.843 8.194 31.084 3.854.241 3.262-3.131 3.262-3.131s-6.796-25.705-3.262-24.099c3.534 1.604 4.563 24.821 8.063 24.22 3.5-.604 0-25.666 0-25.666s3.5 14.941 6.394 23.617c0 0 4.338.964 3.854 0-.48-.965-3.854-24.58-3.854-24.58s4.821 23.402 7.229 22.545c0 0-7.709-46.145-11.084-48.08-3.375-1.935-1.929-10.611-1.929-10.611l-16.867.002z"/><path fill="#231F20" d="M760.598 417.766c-1.449-6.004-2.835-10.476-3.837-11.051-3.375-1.936-1.929-10.611-1.929-10.611h-16.867l-1.683 15.448s-1.242 1.958-2.16 5.735c8.844.436 17.68.696 26.476.479z" opacity=".2"/><path fill="#895F3C" d="M609.284 403.858c0 1.4-2.894 16.111-2.894 25.145l2.894 22.525 3.373-10.604s.481 28.917 3.854 28.917-3.854-27.953 0-27.472c3.854.479 3.854 28.436 6.267 27.472l2.408-.965s-1.444-26.988 0-26.988c1.446 0 3.375 23.133 5.784 24.099l2.409.965-2.409-25.544s1.931 22.648 4.337 23.134l2.409.481s-8.675-56.372-9.157-58.31c-.479-1.936-4.337-8.201-4.337-8.201l-14.938 5.346z"/><path fill="#231F20" d="M628.561 406.715c-.479-1.936-4.337-8.201-4.337-8.201l-14.938 5.347c0 1.22-2.188 12.51-2.757 21.372 8.4 1.033 16.931 2.178 25.402 2.45-1.709-10.932-3.18-20.203-3.37-20.968z" opacity=".2"/><path fill="#895F3C" d="M631.243 444.291l-.271-2.884s.096 1.129.271 2.884z"/><path fill="#876F53" d="M672.054 31.384s-28.232 6.42-27.347 36.146c.887 29.727 2.53 72.293 2.53 72.293s6.868 2.53 19.158 0l2.169 28.194s3.253 5.422 5.781 5.784c2.53.361 5.424 0 5.424 0s6.145 2.168 5.781-13.013c-.359-15.182.018-26.749.018-26.749s7.214 2.53 12.272-13.736c5.062-16.266 30.84-88.557-25.786-88.919z"/><path fill="#70513A" d="M655.189 116.785c-1.089-.065 14.458 2.057 25.303-2.453l-12.651 8.878s1.084-5.608-12.652-6.425z"/><path fill="#70513A" d="M657.72 91.219c.279-1.988-4.338 16.073-4.338 16.073h6.146c-.001 0-3.615-3.228-1.808-16.073z"/><path fill="#4D3F28" d="M674.709 81.066c0-1.297 1.052-2.349 2.35-2.349 1.297 0 2.352 1.052 2.352 2.349v5.883c0 1.297-1.052 2.349-2.352 2.349-1.298 0-2.35-1.052-2.35-2.349v-5.883z"/><path fill="#4D3F28" d="M653.064 82.894c0-.927.751-1.678 1.678-1.678.926 0 1.676.751 1.676 1.678v4.729c0 .926-.75 1.676-1.676 1.676-.926 0-1.678-.75-1.678-1.676v-4.729z"/><path fill="#4D3F28" d="M674.709 73.098s4.217-1.686 5.783 1.206c0 0-.12-3.857-2.894-4.097-2.769-.241-2.889 2.891-2.889 2.891z"/><path fill="#4D3F28" d="M650.972 76.473s3.254-3.131 5.482-2.169c2.228.963.607-3.133-1.714-3.133-2.323 0-3.768 5.302-3.768 5.302z"/><polygon points="676.383,180.308 689.167,164.223 686.818,148.428 677.059,158.981" fill="none"/><path fill="#DCECE3" d="M659.527 183.32l13.854 86.029 1.088-32.319.171-5.059 6.573-51.07 7.952-16.678 3.733-9.83 44.341 3.866s27.229 144.718 27.229 145.616-1.444 103.313-2.169 103.795c-.723.481-4.096 6.264-16.386 5.301-12.289-.963-17.35-4.096-17.35-4.096l5.781-92.052-7.95-38.075 3.371 58.076 28.917 144.345s-20.239 13.494-41.445 13.494h-28.194l-13.736-29.881-4.098 31.565s-19.518-.963-31.326-4.096-12.771-4.819-12.771-4.819l4.816-71.088s-14.938 2.651-21.205 2.41c-6.267-.242-7.229-1.688-7.229-1.688l6.746-118.563 14.7-130.127 36.564-10.121-1.977 25.065z"/><path fill="#231F20" d="M740.414 175.121c-1.939-10.314-3.171-16.862-3.171-16.862l-44.341-3.866-3.733 9.83-6.956 14.588c19.516 1.162 39.693.993 58.201-3.69z" opacity=".1"/><path fill="#DCECE3" d="M728.567 408.874s4.812 2.977 16.441 4.019l-12.71-63.443-3.731 59.424z"/><path fill="#231F20" d="M660.023 177.053l1.487-18.794-32.492 8.994c8.078 6.666 19.438 8.413 29.241 9.638l1.764.162z" opacity=".1"/><polygon fill="#B7C0B4" points="676.383,231.516 693.385,205.249 689.167,185.249 680.492,185.249 674.709,234.579"/><path fill="#D7D9CB" d="M697.807 179.398c-.479.723-19.303 21.383-19.303 21.383l3.072-29.64 10.206-5.641 6.025 13.898z"/><polygon fill="#B7C0B4" points="665.672,231.325 648.322,204.285 659.527,183.32 667.814,234.771"/><path fill="#D7D9CB" d="M644.688 181.634c.003.057.111.229.313.499 2.385 3.177 17.539 19.89 17.539 19.89l-3.013-43.213-6.146 1.488-8.693 21.336z"/><circle fill="#152128" cx="679.917" cy="307.354" r="2.858"/><circle fill="#152128" cx="679.917" cy="356.571" r="2.858"/><circle fill="#152128" cx="679.917" cy="403.858" r="2.858"/><path fill="#3F3930" d="M729.771 642.622s-8.679-5.509-8.194 5.801c.482 11.312 0 14.08 0 14.08h8.194v-3.253l3.371 3.253h43.376s5.304-9.485-12.048-14.08c-17.351-4.595-26.507-5.801-26.507-5.801h-8.192z"/><path fill="#3F3930" d="M635.624 646.464s3.372 5.271 9.638 2.636l6.268-2.636s3.373-2.442 3.373 3.47v14.587h-8.436c-2.65-.963-1.206 2.41-1.206 2.41l-49.159 4.338s-7.228-5.543 6.268-10.724l33.254-14.081z"/><path fill="#4D3F28" d="M645.408 71.354c6.299.899 18.175-2.611 28.325-7.824 14.018-7.198 14.755-11.351 14.755-11.351s12.707 38.065-5.737 89.502c0 0 11.639 2.848 19.753.431l8.115-2.417s14.017-69.345 0-98.116c-14.019-28.772-14.019-22.132-37.624-21.395-23.607.737-42.79 33.403-44.264 48.792l-1.477 15.389 8.115 2.323s5.903 25.939-8.115 36.522c0 0 4.708 15.173 19.889 14.089l-1.265-40.62c.004.001-.629-25.347-.47-25.325z"/><path fill="#4D3F28" d="M643.643 71.518"/><path fill="#EEF1DF" d="M667.088 148.999c-.723.481-14.022 8.537-14.022 8.537l-2.094 25.784 17.423-17.692-1.307-16.629z"/><polygon fill="#DBD899" points="661.188,182.88 653.064,157.536 667.088,148.886 668.521,167.473"/><path fill="#EEF1DF" d="M677.059 158.981l6.868 20.604 10.663-17.169s-3.434-17.023-3.976-16.645h-5.214l.003 4.172-8.344 9.038z"/><path fill="#DBD899" d="M685.399 145.771l.003 4.172 1.416-1.515s3.389-2.454 3.501-2.521l.111-.068s-1.717.158-3.116.068c-1.4-.091-1.915-.136-1.915-.136z"/><path fill="#70513A" d="M675.572 76.473l-1.486 2.916s4.402-.343 5.945.4c0 0-.971-3.03-4.459-3.316z"/><path fill="#70513A" d="M653.649 78.717l-1.486 2.916s4.401-.343 5.946.4c-.001 0-.972-3.03-4.46-3.316z"/><path fill="#FFE2B7" d="M1786.924 235.665c-.724 2.892 2.168 83.499 2.168 83.499s-3.135 100.487-1.928 107.477c1.205 6.989 4.337 0 3.854 11.566-.479 11.567-.479 23.858-2.167 23.617-1.688-.242-1.688-1.688-1.688-1.688s.964-11.325-1.205-9.88c-2.17 1.446-3.133 30.845-5.303 31.567-2.169.724-1.445-19.761-1.927-21.931-.482-2.169-1.93-3.132-3.373 9.883l-1.445 13.013-2.411.24.724-23.374s-2.891 16.867-2.649 19.759-1.447 3.132-1.931 1.446c-.479-1.688.483-21.93.483-21.93s-2.891 14.941-3.614 18.073c-.724 3.131-2.41 2.169-2.41 2.169s5.303-46.511 6.748-49.643l2.649-3.854-2.409-85.548-1.205-99.524 19.039-4.937z"/><path fill="#231F20" d="M1786.924 235.665l-19.038 4.94.175 14.438c6.286-1.837 12.578-3.608 18.896-5.288-.171-7.868-.213-13.373-.033-14.09z" opacity=".2"/><path fill="#666032" d="M1677.918 353.141s5.422 100.126 6.506 140.609c1.085 40.484 4.241 80.607 4.241 80.607l27.929-3.979s1.447-49.882 0-83.137c-1.445-33.255 2.531-85.667 3.614-90.366 1.086-4.699 16.99 65.425 21.328 83.86 4.337 18.435 3.366 66.869 2.948 76.99-.421 10.12 18.016 5.424 23.8 5.783 5.782.361 5.348-4.698 5.927-5.783l5.279-52.772s-20.604-123.982-24.581-140.974c-3.979-16.986-2.804-25.664-2.804-25.664l-74.188 3.256.001 11.57z"/><path fill="#231F20" d="M1744.485 557.73c-.421 10.118 18.015 5.422 23.799 5.781 5.784.361 5.348-4.697 5.927-5.781.145-.271.547-3.706 1.069-8.705-10.168-.86-20.334-2.308-30.5-2.896-.083 5.249-.203 9.362-.295 11.601z" opacity=".2"/><path fill="#231F20" d="M1686.87 547.893c.958 15.836 1.795 26.467 1.795 26.467l27.929-3.979s.254-8.717.441-21.29c-10.076.097-20.193-.49-30.165-1.198z" opacity=".2"/><path fill="#231F20" d="M1731.213 369.596c8.331-.396 16.878 1.379 25.167 1.514-.605-3.144-1.108-5.577-1.471-7.125-3.979-16.986-2.803-25.664-2.803-25.664l-20.726.91c.465 10.121 1.619 20.244-.167 30.365z" opacity=".2"/><path fill="#231F20" d="M1720.321 339.715l-42.403 1.859v11.566s.577 10.65 1.391 26.406c12.472-.683 24.867-3.516 36.726-8.508-.472-10.784 2.404-20.964 4.286-31.323z" opacity=".2"/><path fill="#231F20" d="M1752.364 349.291c-.756-7.277-.259-10.971-.259-10.971l-74.188 3.254v3.98c24.513 3.007 49.483 4.204 74.447 3.737z" opacity=".2"/><path fill="#81AFA1" d="M1682.255 189.759c-1.446 0-18.796 3.253-18.796 3.253l-11.205 35.785s15.182 8.313 22.411 9.037 7.229 0 7.229-1.084l.361-46.991z"/><path fill="#81AFA1" d="M1773.345 191.566c-.724 1.084-6.506 24.218-5.061 34.339l16.628-5.422s2.529-28.194-10.122-29.641c-12.651-1.445-1.445.724-1.445.724z"/><path fill="#81AFA1" d="M1673.58 191.159s31.617-11.212 53.857-9.353c22.24 1.86 49.146 8.54 49.146 8.54s-11.554 153.035-13.361 152.673c-1.807-.36-15.903 2.529-41.566 0-25.664-2.529-35.063-.724-36.146-1.444-1.085-.724-3.254-1.446-3.254-1.446l-8.676-148.97z"/><path d="M1736.114 168.793c.479.723 3.854 4.098 4.58 7.952.722 3.855-.243 6.505-1.205 6.747-.964.241-5.141.383-5.141.383l.802-15.804.964.722z" fill="none"/><path fill="#B0CDAC" d="M1668.157 191.204c-.396-1.008 46.629-9.398 46.629-9.398l-2.529 188.323s-9.036 3.615-24.938 4.338c-15.906.723-22.052-3.976-21.688-5.061.359-1.084 5.781-115.307 5.781-115.307s2.168-49.159-3.255-62.895z"/><path fill="#B0CDAC" d="M1735.752 181.083c-.361 1.807-.361 183.624-.361 183.624s11.206 5.422 22.411 1.445c11.204-3.978 13.735-10.844 13.735-10.844s1.445-96.148 2.891-115.668c1.447-19.519 2.531-43.737 5.784-48.437 3.253-4.698-44.46-10.12-44.46-10.12z"/><path fill="#FFE2B7" d="M1650.808 233.496c-1.085 1.446-19.156 80.607-19.519 81.691s-1.807 7.952 6.868 9.398c8.675 1.446 54.22 3.615 54.22 3.615l2.169-18.073-40.485-9.398 18.274-57.921-21.527-9.312z"/><path fill="#81AFA1" d="M1688.82 331.299s5.018 1.673 4.646 1.116c-.371-.558 10.597-39.039 10.597-39.039l-4.09-1.115-11.153 39.038z"/><defs><path id="a" d="M1688.82 331.299s5.018 1.673 4.646 1.116c-.371-.558 10.597-39.039 10.597-39.039l-4.09-1.115-11.153 39.038z"/></defs><clipPath id="b"><use xlink:href="#a" overflow="visible"/></clipPath><path fill="#81AFA1" d="M1759.883 332.385s-5.018 1.673-4.646 1.116c.37-.557-10.6-39.039-10.6-39.039l4.094-1.115 11.152 39.038z" clip-path="url(#b)"/><path fill="#81AFA1" d="M1748.626 292.723s-5.142 1.24-4.532 1.516c.612.275 11.692 38.724 11.692 38.724l4.062-1.22-11.222-39.02z"/><defs><path id="c" d="M1748.626 292.723s-5.142 1.24-4.532 1.516c.612.275 11.692 38.724 11.692 38.724l4.062-1.22-11.222-39.02z"/></defs><clipPath id="d"><use xlink:href="#c" overflow="visible"/></clipPath><path fill="#81AFA1" d="M1687.777 329.446s3.371-4.078 3.352-3.408c-.019.67 29.667 27.498 29.667 27.498l-2.879 3.112-30.14-27.202z" clip-path="url(#d)"/><path fill="#302833" d="M1719.945 570.834v87.021h-10.188s.36-6.146-1.808-4.339c-2.169 1.809-2.895 4.339-2.895 4.339s-61.811 5.422-62.895 5.422-3.253-3.49 2.891-6.986c6.146-3.496 42.654-14.039 42.654-14.039l-1.771-71.418h34.012z"/><path fill="#302833" d="M1742.23 570.834v87.021h10.187s-.361-6.146 1.808-4.339c2.169 1.809 2.895 4.339 2.895 4.339s61.81 5.422 62.895 5.422c1.084 0 3.254-3.49-2.893-6.986-6.145-3.496-42.652-14.039-42.652-14.039l1.771-71.418h-34.011z"/><path fill="#AFCEC2" d="M1650.04 214.641c1.808.723 22.989 9.761 22.989 9.761l.724 22.411-27.472-7.591 3.759-24.581z"/><path fill="#AFCEC2" d="M1774.543 223.013l-.828 26.025 17.971-7.229s-.309-24.942-1.415-24.22c-1.107.724-15.728 5.424-15.728 5.424z"/><path fill="#443B4A" d="M1678.674 554.477c1.445-.359 47.354-1.807 47.354-1.807s-1.447 22.049-2.53 21.688c-1.084-.361-13.375 3.612-24.579 4.337-11.206.724-18.073 0-18.073 0l-2.172-24.218z"/><path fill="#443B4A" d="M1737.922 550.501c-.362 1.807-2.531 25.664-2.531 25.664s9.499 3.896 23.187 2.852c13.686-1.044 23.183-7.551 23.183-7.551s-1.906-17.351-2.268-18.796c-.362-1.446-11.451 1.078-23.136 0-11.684-1.079-18.435-2.169-18.435-2.169z"/><path fill="#FFE2B7" d="M1768.662 77.762v81.65s-1.124 1.797-15.274 2.695c-14.149.898-15.724 1.124-15.948 1.797-.224.674-1.347 19.317-1.347 19.317l-11.23 17.521-7.86-17.97-1.125-52.337s-6.513-1.123-6.064-11.456c.45-10.333-11.453-60.425 33.472-58.853-.006.002 25.376-3.141 25.376 17.636z"/><path fill="#231F20" d="M1768.662 77.762c0-20.777-25.382-17.634-25.382-17.634-31.244-1.094-35 22.801-34.541 40.933 20.086-.885 40.134-2.991 59.923-5.649v-17.65z" opacity=".2"/><path fill="#E0AE55" d="M1771.189 79.875c-.898.673-23.359 19.317-37.513 25.157-14.151 5.84-11.23 5.615-11.23 5.615l-2.247 9.66s-1.798-6.963-5.84-5.391-6.2 5.132-2.247 12.355l3.88 3.5.842 49.159s4.351 4.957-9.87 5.84c-11.017.685-14.392 3.046-15.063 3.945l-.677.899s-4.718-9.21 1.349-15.275 12.163-9.21 14.395-11.906l2.229-2.695c-1.123-3.593.672-5.391.672-5.391l1.575-2.246s-10.336 2.109-14.826-1.417c-4.492-3.525 3.146-18.574 5.392-31.154 2.245-12.579-2.355-20.625 3.37-32.345 5.728-11.721 21.34-30.997 62.67-16.397 0 0 5.614-1.231 3.146 36.447 0 0-.002 12.441 1.797 20.342 1.797 7.901-.225 11.371-2.021 14.915-1.796 3.544-2.692 4.096-2.692 4.096s.649-54.395-.351-56.562c-1.005-2.167 3.26-11.151 3.26-11.151z"/><path fill="#231F20" d="M1768.046 71.788c-41.33-14.6-56.944 4.677-62.67 16.397-2.487 5.089-3.025 9.485-3.022 13.861 14.306-.9 28.608-1.941 42.914-3.243 12.365-7.745 25.246-18.422 25.924-18.929 0 0-4.27 8.984-3.271 11.152.177.382.302 2.391.388 5.433 1.149-.13 2.302-.263 3.451-.397.608-25.218-3.714-24.274-3.714-24.274z" opacity=".2"/><path fill="#E0AE55" d="M1771.189 108.235c.304-4.619.481-8.649.568-12.173-1.15.134-2.302.267-3.451.397.402 14.222-.038 51.129-.038 51.129s.898-.552 2.694-4.096c1.797-3.544 3.818-7.014 2.021-14.915"/><path fill="#CBB198" d="M1755.995 144.697c-.482.242-8.193 4.337-21.811 1.084 0 0 7.472 4.337 14.219 4.337 6.748 0-.966-1.083 1.445-2.289 2.412-1.205 6.147-3.132 6.147-3.132z"/><path fill="#CBB198" d="M1747.922 140.118l10.36-3.854-7.352-12.17s3.017 9.879 2.052 11.206c-.962 1.325-5.06 4.818-5.06 4.818z"/><path fill="#C9A457" d="M1755.945 105.838s2.649-1.085 5.542.12c2.891 1.206 3.732 1.446 3.732 1.446s-2.528-4.577-6.146-4.216c-3.611.362-3.128 2.65-3.128 2.65z"/><path fill="#C9A457" d="M1733.222 107.404l10.122-2.892s.359-2.169-3.375-2.169-6.747 5.061-6.747 5.061z"/><path fill="#C9A457" d="M1735.933 113.612c0-1.497 1.214-2.711 2.712-2.711 1.495 0 2.712 1.214 2.712 2.711v4.939c0 1.497-1.216 2.711-2.712 2.711-1.496 0-2.712-1.214-2.712-2.711v-4.939z"/><path fill="#C9A457" d="M1758.826 114.335c0-1.231.997-2.229 2.229-2.229 1.23 0 2.229.999 2.229 2.229v4.338c0 1.231-.999 2.229-2.229 2.229-1.229 0-2.229-.998-2.229-2.229v-4.338z"/><path fill="#DFE15B" d="M1697.17 99.011c.124 2.086 88.053-9.38 88.053-9.38l-10.107-4.717s12.58-42.68-37.735-44.251c-50.318-1.572-41.11 43.244-40.211 58.348z"/><path fill="#B0B07D" d="M1562.806 228.994s5.069 50.927 7.253 75.019h77.743c-.111-20.924.817-82.925.817-82.925 1.927 24.58 6.941 105.268 6.941 105.268l21.203 1.446-.963-15.422s-.481-2.892-5.781-59.28c-5.303-56.389-6.268-95.427-6.268-95.427l-61.934-2.893s-46.99 8.675-49.157 8.675c0 0-4.097 20.726-8.435 55.909-4.338 35.181-9.159 95.425-9.159 95.425l3.375 2.41c3.375 2.409 19.276-1.446 19.276-1.446l5.089-86.759z"/><path fill="#231F20" d="M1591.252 167.898c16.829 4.039 36.785 1.804 48.21-11.36l-37.642-1.758s-6.555 1.21-14.879 2.727c-2.253 4.136-.052 9.144 4.311 10.391z" opacity=".2"/><path fill="#FFE2B7" d="M1596.814 80.604c-4.091-28.9 7.089-33.537 26.174-34.899 19.086-1.363 23.994 6.815 23.994 6.815s1.637 84.251 1.637 85.068c0 .817-6.271 4.908-15.271 5.453l-17.176-2.182.271 19.631s-6.543 1.091-13.903 1.091c-7.363 0-6.545-4.363-6.545-4.363l.817-59.166s-4.906-2.454-6.816-9.816c-1.908-7.362 5.999-7.088 5.999-7.088l.819-.544z"/><path fill="#231F20" d="M1647.456 76.964l-.474-24.445s-4.908-8.178-23.994-6.815c-18.338 1.309-29.367 5.654-26.575 31.631 16.884 3.103 34.115 2.372 51.043-.371z" opacity=".2"/><path fill="#CBB198" d="M1640.015 123.875c.505-.113-10.48 3.072-20.603-3.434 0 0 2.711 6.868 11.206 7.048 8.493.18-6.398-.075 9.397-3.614z"/><path fill="#CBB198" d="M1633.688 116.826l9.94-2.53-6.687-11.928s3.796 7.771 1.986 9.759c-1.807 1.988-5.24 3.976-5.24 3.976v.723h.001z"/><path fill="#FFE2B7" d="M1662.788 326.114l2.169 72.652s-4.698-.723-4.338 13.015c.359 13.733-1.446 15.182.724 15.182 2.169 0 2.892-6.868 2.892-6.868s-.359 24.221 1.446 24.58c1.809.361 3.253-.723 3.253-.723s-2.169-15.544-.36-15.184c1.808.361 1.808 16.988 3.614 17.352 1.808.362 3.253-2.53 3.253-2.53s-2.528-17.711-.723-18.435c1.809-.725 1.445 19.157 3.252 19.52 1.809.361 1.084-18.073 1.084-18.073s1.809 18.073 3.615 17.714c1.807-.361-.724-43.017-1.808-45.546l-3.615-2.17-.361-74.1-14.097 3.614z"/><path fill="#231F20" d="M1676.966 339.027l-.081-16.528-14.097 3.615.366 12.31c4.56.457 9.197.695 13.812.603z" opacity=".2"/><line x1="1677.246" y1="396.599" x2="1676.885" y2="322.499" fill="none"/><path fill="#FFE2B7" d="M1540.974 318.523l2.895 81.689s0-2.168-.726 5.784c-.724 7.952-2.891 54.581-2.891 54.581s.359 1.446 2.529 2.169c2.169.723.724-24.58.724-24.58s1.445 24.219 1.445 26.025c0 1.808 3.253.724 3.253-2.894 0-3.614-1.084-22.771-1.084-22.771l3.253 26.388s2.531.361 4.338-1.085c1.809-1.445-2.53-20.242-2.53-24.941 0-4.696 3.252-3.976 3.252-3.976s3.255 27.833 5.063 28.556c1.808.725 1.808.725.724-17.712-1.084-18.435 2.531-17.351 2.531-17.351l1.808 14.098s2.168 3.614 2.168-16.266c0-19.881-8.313-19.881-8.313-19.881l-1.807-88.197s-6.689-.8-6.191-.8c.492.003-10.805 1.028-10.441 1.164z"/><path fill="#231F20" d="M1557.602 318.162s-5.957-.712-6.207-.792c-.557.09-10.767 1.024-10.421 1.154l.435 12.208c5.418 1.193 10.936 2.045 16.506 2.601l-.313-15.171z" opacity=".2"/><path fill="#FFE2B7" d="M1551.41 317.362l-.018.007.018-.007z"/><path fill="#FFE2B7" d="M1543.859 400.055l.007.158-.007-.158z"/><path fill="#6D5F43" d="M1643.991 608.779c-.724 3.612 1.443 53.496 1.443 53.496l13.017-.725s2.168-8.675 4.337-5.783l2.169 2.894 48.437 2.168s5.783-8.675-3.613-10.12c-9.398-1.446-30.362-10.844-30.362-10.844l-2.17-38.315-33.258 7.229z"/><path fill="#231F20" d="M1678.512 623.914l-1.266-22.364-33.255 7.229c-.238 1.188-.162 7.392.046 15.176 11.491-.104 22.984.411 34.475-.041z" opacity=".2"/><path fill="#6D5F43" d="M1594.831 611.19c0 1.926 1.447 54.698 1.447 54.698l-13.736 3.614s0-8.676-2.891-6.506c-2.896 2.168-2.17 5.783-2.17 5.783l-36.87.36s-13.012-7.592 4.339-12.65c17.35-5.062 20.242-7.229 20.242-7.229l3.612-3.612-5.781-36.146 31.808 1.688z"/><path fill="#231F20" d="M1595.237 627.371c-.229-8.647-.406-15.509-.406-16.182l-31.808-1.688 3.076 19.231c9.812.202 19.505-.329 29.138-1.361z" opacity=".2"/><path fill="#443B4A" d="M1647.393 326.357c-.35-6.853-.874-14.575-.902-21.158-14.363.338-60.275 1.984-75.568 2.873 1.288 14.92-.865 29.593-1.4 37.995-1.444 22.651-2.41 136.394-1.931 148.925.482 12.53-3.372 107.475-3.372 107.475s0 5.784 6.747 7.713c6.747 1.931 22.17 1.445 22.17 1.445s1.927 2.893 1.445-9.158c-.481-12.05-1.445-70.363 1.444-108.921 2.894-38.557 17.209-115.3 17.209-115.3 13.493 31.809 26.421 107.81 26.421 107.81s-.733 7.49 2.64 38.818c3.373 31.327 9.199 73.062 9.199 73.062 8.675-.479 22.609-1.733 22.609-1.733-.966-19.762-5.783-114.704-5.783-114.704s-19.483-126.708-20.928-155.142z"/><path fill="#231F20" d="M1647.703 574.384c1.798 13.71 3.171 23.551 3.171 23.551 8.677-.479 22.611-1.733 22.611-1.733-.228-4.622-.662-13.361-1.198-24.035-8.141.873-16.326 1.625-24.584 2.217z" opacity=".2"/><path fill="#231F20" d="M1564.217 602.464s0 5.784 6.747 7.713c6.747 1.931 22.17 1.445 22.17 1.445s1.927 2.893 1.445-9.158c-.164-4.143-.39-13.753-.49-26.146-9.66.808-19.334 1.26-28.903 1.418-.548 14.345-.969 24.728-.969 24.728z" opacity=".2"/><path fill="#443B4A" d="M1574.965 158.868l6.368-.977 7.766 45.085s36.284-.794 36.284-2.24c0-1.446 2.007-45.418 2.007-45.418l6.427.435 3.03 46.248 10.594 4.157-1.716 111.141h-75.377c-1.927 0-8.89-105.649-8.89-105.649l14.405-6.648-.898-46.134z"/><path fill="#6D5F43" d="M1594.089 69.151c-.274.819-.034 12.192-.034 12.192s4.121 3.35 4.94 9.076l.816 5.726 4.636-27.811-10.358.817z"/><path fill="#231F20" d="M1604.447 68.333l-10.358.817c-.146.439-.146 3.915-.113 7.043 2.841 1.39 5.774 2.164 8.694 2.808l1.777-10.668z" opacity=".2"/><path fill="#B0B07D" d="M1603.085 71.877l46.079-2.727s.544-29.174-.273-29.174c-.815 0-1.36-5.727-22.354-5.18l-35.72 10.908.547 28.083 11.721-1.91z"/><path fill="#A1914E" d="M1591.361 73.787l33.809 4.908s8.18-6.543 20.994-5.181c12.816 1.362 17.724 4.363 17.724 4.363l-15.542-13.087s-10.904-4.909-32.99-.546c-22.086 4.362-23.995 9.543-23.995 9.543z"/><polygon fill="#5C5062" points="1580.855,216.952 1639.654,214.541 1637.245,262.254 1581.34,264.183"/><path fill="#666032" d="M1651.492 312.136s9.158 3.856 17.352 2.411c8.191-1.446 13.493-4.338 13.493-4.338l.965 21.207s-7.229 3.373-18.313 3.373h-11.086l-2.411-22.653z"/><path fill="#666032" d="M1532.323 321.739s.479 4.338 13.012 4.338l18.313-.963 1.445-19.761s-8.675 3.854-17.35 3.374c-8.675-.482-15.904-5.301-15.904-5.301l.484 18.313z"/><path fill="#5E4F32" d="M1635.316 583.477c-.726 2.894 6.506 36.869 6.506 36.869l30.363-1.444 12.288-6.507 1.445-36.869-50.602 7.951z"/><path fill="#6D5F43" d="M1617.423 84.112c0-.542 5.604-2.892 8.495-2.53 0 0 .724-2.53-2.529-2.169-3.255.362-5.966 4.699-5.966 4.699z"/><path fill="#6D5F43" d="M1639.473 81.943s3.073-1.807 4.7-.361c1.626 1.446 2.892 2.35 2.892 2.35s-1.266-4.699-3.978-4.699c-2.711-.001-3.614 2.71-3.614 2.71z"/><path fill="#6D5F43" d="M1619.412 91.793c0-1.148.93-2.078 2.077-2.078 1.147 0 2.079.93 2.079 2.078v3.072c0 1.148-.932 2.08-2.079 2.08-1.147 0-2.077-.932-2.077-2.08v-3.072z"/><path fill="#6D5F43" d="M1638.659 91.071c0-.749.605-1.355 1.354-1.355.748 0 1.355.607 1.355 1.355v3.795c0 .749-.607 1.356-1.355 1.356s-1.354-.608-1.354-1.356v-3.795z"/><path fill="#CBB198" d="M1638.207 89.132s2.531-1.084 3.977.904c1.446 1.988 1.266 1.265 1.266 1.265s-.178-3.795-3.253-4.157c-3.073-.362-1.99 1.988-1.99 1.988z"/><path fill="#CBB198" d="M1617.423 90.274c.544-.542 3.073-1.614 5.784-1.626.296-.001 1.266-.181 1.266-.181s0-2.168-2.892-1.988c-2.893.181-4.158 3.795-4.158 3.795z"/><path fill="#5E4F32" d="M1548.564 583.477c.971 1.939 52.051-1.444 51.327.725l-.724 36.146-39.762 2.169-7.952-.723c.003-.002-3.612-39.764-2.889-38.317z"/><path fill="#EFE6C3" d="M1485.967 481.443s3.615 42.034 4.6 77.505c.984 35.47.984 40.064 1.645 59.769.658 19.708-1.645 43.354-1.973 44.995-.327 1.64-2.956.656-2.956.656s1.315-12.15 0-10.838c-1.313 1.312-4.271 9.193-4.271 9.193l-46.962.656s6.898-2.953 19.375-9.852c12.482-6.896 21.348-14.12 21.348-14.12s-.98-41.381-2.951-61.745c-1.973-20.36-6.567-60.098-7.886-78.16-1.312-18.062-4.925-32.514-4.925-32.514l19.704.659 5.583 3.938-.331 9.858z"/><path fill="#EFE6C3" d="M1512.569 473.889s3.281 16.421 4.597 26.603c1.316 10.182 2.629 13.795 2.629 13.795s-2.957 22.332-7.88 52.217c-4.929 29.886-13.141 71.266-13.141 71.266l-3.609 17.735 1.64.656 4.603-15.767s4.925.655 10.836 10.512c5.909 9.854 6.568 13.137 6.568 13.137l34.479 2.628-21.347-17.732s-2.951-.986-6.24-7.228c-3.282-6.239-9.853-16.091-9.853-16.091s4.271-27.261 13.142-59.772c8.864-32.513 11.821-51.561 11.821-51.561s-.985-2.628-2.301-20.033c-1.313-17.406-4.6-29.886-4.6-29.886l-21.344 9.521z"/><path fill="#DFC292" d="M1465.369 492.113c-1.587-14.455-4.251-25.122-4.251-25.122l19.708.659 5.582 3.938-.328 9.854s.408 4.788.993 12.479c-8.563-.516-15.78-1.154-21.704-1.808z"/><path fill="#DFC292" d="M1538.186 491.311c-3.549 1.094-10.369 2.595-21.98 3.134-1.521-9.571-3.715-20.556-3.715-20.556l21.346-9.521c-.003-.003 2.911 11.091 4.349 26.943z"/><path fill="#846465" d="M1527.676 305.742s5.586 41.708 8.868 89.984c3.285 48.275 4.924 89.983 4.924 89.983s-10.509 5.913-46.303 4.271c-35.798-1.645-51.562-5.581-51.562-5.581s5.587-45.979 6.564-71.926c.986-25.942 0-42.032 0-42.032s16.096-35.47 16.751-59.117l60.758-5.582z"/><path fill="#5C5062" d="M1500.254 630.235c8.041 11.52 20.215 15.461 23.978 15.181 2.901-.217 4.352.807 4.865 1.287 1.684 1.838 2.85 2.229 2.85 2.229l21.347 17.733-34.48-2.628s-.658-3.283-6.567-13.137c-5.911-9.854-10.836-10.512-10.836-10.512l-4.603 15.767-1.64-.656 3.609-17.735c-.003.003.561-2.83 1.477-7.529z"/><path fill="#5C5062" d="M1455.424 653.53c2.564-1.414 4.959-2.841 7.174-4.22 4.21 2.726 7.469 2.553 13.301 2.37 7.004-.219 15.973-8.75 15.979-8.756-.555 11.066-1.443 19.811-1.641 20.785-.327 1.64-2.956.656-2.956.656s1.315-12.15 0-10.838c-1.313 1.312-4.271 9.193-4.271 9.193l-46.962.656c.001.006 6.899-2.947 19.376-9.846z"/><path fill="#5E4849" d="M1466.281 318.997c.355-2.615.592-5.162.658-7.579l60.756-5.584s.323 2.451.866 6.815c-3.591.541-10.645 1.607-24.515 3.704-18.948 2.863-31.532 2.919-37.765 2.644z" opacity=".22"/><polygon fill="#EFE6C3" points="1570.549,461.317 1568.501,454.585 1555.615,456.485 1557.664,464.831"/><path fill="#E1AF58" d="M1538.186 134.967s10.838 23.318 20.361 37.769c9.522 14.45 11.167 16.419 11.167 16.419s-13.467 4.598-34.483 6.897c-21.018 2.297-28.568 1.314-28.568 1.314s-3.941-28.9-4.602-41.053c-.656-12.149 36.125-21.346 36.125-21.346z"/><path fill="#EFE6C3" d="M1486.297 170.33c.438.655 10.072 1.749 26.053 3.503 15.986 1.751 26.932-.218 26.932-.218s4.38-30.873 1.75-49.702c-2.626-18.83-1.094-53.203-28.682-56.924-27.587-3.722-39.188 16.199-39.628 39.409-.441 23.209 4.157 49.92 13.575 63.932z"/><path fill="#E1AF58" d="M1520.418 105.478c-.3 0-9.993 3.129-9.993 3.129s.704-3.938 4.945-5.049c4.243-1.109 5.048 1.92 5.048 1.92z"/><path fill="#98933A" d="M1516.5 115.955c0-.953-.713-1.955-1.664-1.955h-.697c-.951 0-1.639 1.002-1.639 1.955v4.842c0 .953.688 1.203 1.639 1.203h.697c.951 0 1.664-.25 1.664-1.203v-4.842z"/><path fill="#98933A" d="M1535.5 114.54c0-.442-.699-.54-1.311-.54h-.789c-.61 0-.9.098-.9.54v3.4c0 .442.29.061.9.061h.789c.609 0 1.311.381 1.311-.061v-3.4z"/><path fill="#DFC292" d="M1531.121 125.567l4.441 8.785-5.147.505s3.935-.807 1.817-3.938c-2.121-3.13-2.521-6.259-1.111-5.352z"/><path fill="#F8A065" d="M1536.572 144.849s-3.53 1.009-11.31 1.209c-7.771.206-15.748-1.312-15.748-1.312l19.185 9.793s-.504-3.734.908-5.652c1.414-1.919 6.965-4.038 6.965-4.038z"/><path d="M1536.872 281.439s-1.313 8.211-4.271 21.346l-2.956 13.139s1.313 3.284-26.602 5.583c-27.913 2.298-37.438 1.968-37.438 1.968s-1.311-21.016-4.268-29.554l-2.957-8.539s16.424 6.894 43.022 4.269c26.604-2.629 35.47-8.212 35.47-8.212z" fill="none"/><path fill="#EFE6C3" d="M1562.049 421.017c.879.656 13.139 18.169 13.354 18.826.219.658-.438 6.789-.438 6.789l-3.719 11.384-21.239 1.974-4.158-4.603-.218-7.225 1.969.658 2.407 5.691-1.532-7.882 2.41.438 1.533 3.724s-.439-8.099-3.286-14.671c-2.848-6.567-2.848-15.762-2.848-15.762l15.327-1.1.438 1.759z"/><path fill="#DFC292" d="M1521.428 112.947l-12.215 1.818s3.737-2.323 7.672-3.533c3.937-1.211 4.543 1.715 4.543 1.715z"/><path fill="#DFC292" d="M1538.693 112.848l-7.674-1.211s1.312-1.616 3.635-1.717c2.322-.099 4.039 2.523 4.039 2.523"/><polygon fill="#DFC292" points="1553.291,453.713 1550.885,447 1550.119,447 1551.707,452.711"/><polygon fill="#DFC292" points="1550.773,456.155 1547.6,448.82 1547.271,449.694 1549.021,455.17"/><path fill="#DFC292" d="M1548.205 435.668s8.787 2.433 9.225 2.738c.438.304-.146 1.979-.146 1.979l-7.316-1.219s7.168 1.978 7.316 2.586c.146.61-.439 2.13-.439 2.13l-6.877-1.52s5.707 2.278 6.438 2.586c.729.304 0 1.521-.146 2.282-.146.76-5.465-2.638-5.465-2.638l4.734 4.004-.148.914-3.052-1.05-5.147-4.123.146-12.476s1.609-.608 3.223-.151c1.608.456 2.194 2.891 2.194 2.891l-4.103.76"/><path fill="#EFE6C3" d="M1547.39 435.851s8.785 2.342 9.225 2.636c.438.296-.146 1.903-.146 1.903l-7.319-1.174s7.177 1.904 7.319 2.489c.146.589-.438 2.05-.438 2.05l-6.882-1.461s5.709 2.195 6.442 2.488c.732.293 0 1.463-.146 2.196-.146.729-5.466-2.538-5.466-2.538l4.733 3.854-.147.879-3.052-1.012-5.146-3.968.146-12.006s1.609-.584 3.222-.146c1.609.438 2.194 2.781 2.194 2.781l-4.102.731"/><path fill="#DFC292" d="M1551.998 448.325s.692 4.105 1.293 5.424l.605 1.312-.952-6.422-.946-.314z"/><polygon fill="#DFC292" points="1571.854,456.155 1571.246,458.016 1550.007,459.987 1548.726,458.567"/><path fill="#F8A065" d="M1532.602 186.529s-11.819.657-22.328 2.955c-10.513 2.301-28.572 3.94-37.111 4.6-8.539.655-20.688.985-26.274 10.508-5.582 9.523-21.347 30.541-34.81 51.559-13.465 21.021-32.188 52.218-32.514 56.818-.328 4.595-.986 11.164 8.212 11.493 9.19.33 22.657-.036 41.38 1.606 18.717 1.639 33.168 1.932 33.168 1.932h1.313s.984-8.502.659-11.787c-.332-3.283-6.242-2.771-24.964-5.069-18.716-2.299-36.125-5.821-36.125-5.821s10.184-14.076 20.691-29.51c10.51-15.436 24.631-28.224 24.631-28.224s3.61 5.925 7.556 28.586c3.939 22.662 5.58 36.787 5.58 36.787s14.124 1.976 42.365-2.295c28.246-4.268 28.246-4.269 28.246-4.269s.323 23.644 1.312 47.618c.984 23.979 12.479 68.313 12.479 68.313s-.984 3.283 8.865.982c9.853-2.297 8.536-2.626 8.536-2.626s-5.58-26.929-7.879-54.517c-2.302-27.587-4.271-43.35-4.271-43.35s-1.315-49.591-.985-77.506c.327-27.914-8.869-51.89-12.479-55.5-3.608-3.61-5.253-3.283-5.253-3.283z"/><path fill="#EFE6C3" d="M1458.382 319.21c1.969 7.007 6.331 8.317 6.331 8.317l1.874-11.323s6.792-.937 8.544-2.471c1.748-1.532.438-2.627.438-2.627l-12.043 1.753s7.228-4.596 11.389-7.445c4.156-2.845 2.845-4.817 2.845-4.817l-16.639 6.35s9.19-7.883 13.136-10.509c3.941-2.629 4.818-6.129 3.723-7.004-1.098-.878-14.451 9.194-14.451 9.194s-2.187-.215-1.968-1.752c.218-1.535 13.573-12.258 13.573-12.258s1.975-4.163.875-5.257c-1.094-1.096-17.624 14.89-17.624 14.89s-1.975 17.95-.003 24.959z"/><path fill="#EFE6C3" d="M1516.072 220.027s-1.094-7.881-3.725-19.704c-2.625-11.823-4.814-24.741-4.16-30.431l.658-5.694-19.483 1.095 5.032 26.931c.001 0 16.644 8.759 21.678 27.803z"/><path fill="#E1AF58" d="M1498.448 82.094s.326 3.94 20.359 15.435c20.034 11.497 28.246 14.453 28.246 14.453s4.269-20.693-14.778-45.65c-19.05-24.961-38.757-19.707-43.023-12.153 0 0-24.302-4.597-33.496 50.903-9.197 55.504.329 70.281.329 70.281s3.282 5.584 24.956 8.538c21.678 2.957 26.601-.983 26.601-.983s-20.029-18.392-18.717-60.757c1.311-42.365 9.523-40.067 9.523-40.067z"/><path fill="#EC6541" d="M1538.693 245.644s-1.232 30.733-4.662 50.599l-1.755 10.158-11.858 1.792s12.781-25.767 14.945-51.383l3.33-11.166z"/><path fill="#EFE6C3" d="M879.093 446.586c4.302-4.408 6.879-6.646 8.403-7.781.213-.56.394-.977.527-1.209 1.472-2.578 3.677-3.312 3.677-4.415 0-1.103-.734-55.163-.734-55.163l15.813 2.938v59.581s3.311 3.309 4.414 6.252c1.103 2.943-4.414 23.538-4.414 23.538-.857 6.297-2.278 16.239-2.886 17.598-.894 2.012-3.798 1.789-3.574.226.179-1.255.646-13.114.821-17.783-2.154.604-2.058 2.216-3.066 2.412-.896 4.074-2.229 17.163-2.896 18.052-.67.895-2.682-.223-2.682-.223l1.223-19.979c-1-.698-1.963-1.345-2.918-1.625-.959 3.829-1.918 15.721-2.104 17.579-.226 2.234-1.341 2.905-2.012 2.458-.526-.353-.227-14.09-.072-19.954-.597-.026-1.195-.175-1.905-.601l-.129-.079c-.566 1.122-1.167 2.888-1.692 5.663-1.563 8.268-2.233 11.173-2.233 11.173s-2.235-1.117-2.013-2.46c.226-1.34-.021-14.054.883-17.976.4-1.734 1.104-4.06 1.768-6.108.435-1.484.919-3.141 1.43-4.857-.518-.314-2.185-.952-3.854 2.576-2.013 4.245-2.683 9.16-3.575 8.938-.893-.224-5.362-9.385 3.8-18.771z"/><path fill="#538861" d="M710.27 423.622s3.436-1.699.968-10.01c-2.466-8.313-8.702-6.15-3.909-14.396 4.795-8.241 10.955-12.682 7.085-18.407-3.866-5.73-4.853-2.684 2.917-8.272 7.771-5.597 5.701-5.29 5.938-14.521.242-9.229 1.857-10.386 5.389-11.877 3.527-1.494-2.543-2.559-5.358.096-2.816 2.649-17.159 7.574-20.119 17.721-2.958 10.146 2.646 7.346-.519 10.425-3.166 3.076-8.693 6.394-7.584 18.175 1.109 11.778 4.227 5.681 4.044 9.905-.184 4.223-1.691 24.59 11.148 21.161z"/><path fill="#538861" d="M699.862 423.801s1.056-10.919-10.712-15.223c-11.769-4.3-4.837 5.229-12.453 2.324-7.617-2.902-13.06-10.252-19.437-2.897-6.375 7.354-3.509 4.624-11.639 2.78-8.13-1.846-9.881-.722-14.292 4.597-4.411 5.313-9.579 8.336-10.611 11.939-1.029 3.604 4.729.174 7.738-.979 3.008-1.147 12.241 3.705 16.962-.713 4.718-4.424 6.585-8.388 9.556-7.064 2.978 1.32 8.355 7.758 14.374 4.293s9.146-7.89 11.261-4.502c2.113 3.385 3.299 14.559 9.985 11.762 6.691-2.798 9.268-6.317 9.268-6.317z"/><path fill="#538861" d="M666.842 348.061s-5.051 1.918-8.834 10.127c-3.784 8.215.788 6.806-1.532 12.896-2.324 6.094-6.404 8.724-2.273 15.134 4.132 6.412 5.517 6.965 4.292 11.464-1.227 4.501-3.301 14.589 4.057 17.436 7.358 2.85 10.576 3.042 13.696 9.486 3.121 6.444 9.834 13.373 16.152 8.93 6.315-4.453 7.061-7.857 7.061-7.857s-8.379-19.757-15.196-19.563c-6.812.19-10.916 4.069-11.901-6.43-.989-10.499-5.852-6.784-7.677-8.687-1.822-1.898 5.744-9.043 4.246-14.885-1.495-5.842-4.979-1.327-4.214-7.187.769-5.854 6.951-11.789 4.539-16.327-2.413-4.533 2.109-5.313 5.49-8.09-.003-.002-2.25-1.267-7.906 3.553z"/><path fill="#EFE6C3" d="M858.604 531.378c1.104 1.104 10.298 122.461 10.298 122.461s1.837 8.462 0 11.405c-1.839 2.94-71.716 1.837-71.716 1.837s1.473-6.985 8.459-8.825c6.987-1.84 45.975-5.883 47.076-17.284 1.104-11.4-16.92-107.757-16.92-107.757l22.803-1.837z"/><path fill="#231F20" d="M835.801 533.215l22.803-1.837c.266.265 1.012 7.611 1.98 18.569-7.037.8-14.072 2.054-21.107 3.354-2.144-11.887-3.676-20.086-3.676-20.086z" opacity=".2"/><path fill="#EFE6C3" d="M795.346 531.378c1.105.733-10.298 123.2-10.298 123.2s3.678 12.172 1.475 12.71c-2.206.531-17.656.935-22.437 0-4.78-.941-10.666.558-10.666.558l-39.35-2.231s-3.313-9.196 23.169-12.142c26.478-2.938 35.671 6.623 36.042-34.198.366-40.821 1.104-100.035 1.104-100.035l20.961 12.138z"/><path fill="#231F20" d="M774.384 519.237l20.961 12.141c.295.196-.307 9.115-1.343 22.065-6.67-.516-13.342-1.025-20.01-1.536.219-18.869.392-32.67.392-32.67z" opacity=".2"/><path fill="#C9A457" d="M775.732 161.379s4.655 8.889 0 12.729c-4.659 3.844-4.659 6.417-6.496 10.831-1.84 4.412-4.6 2.735-7.637 2.288-3.031-.448.525 5.752 20.996 5.593 20.472-.16 22.803 3.518 23.658-7.514.859-11.034 0-20.594 0-20.594l-30.521-3.333z"/><path fill="#B7C0B4" d="M854.555 346.756c0 1.102 16.184 193.446 16.184 193.446s-28.685 9.195-66.934 7.728c-38.248-1.476-59.578-14.715-59.578-14.715s29.056-195.653 30.157-194.918c1.103.736 80.171 8.459 80.171 8.459z"/><path fill="#B7C0B4" d="M854.555 346.756c0 1.102 16.184 193.446 16.184 193.446s-28.685 9.195-66.934 7.728c-38.248-1.476-59.578-14.715-59.578-14.715s29.056-195.653 30.157-194.918c1.103.736 80.171 8.459 80.171 8.459z"/><path fill="#B7C0B4" d="M773.247 341.495c1.103.733 80.172 8.455 80.172 8.455 0 .78 8.083 97.094 12.826 153.505-.953 11.521-3.518 22.265-9.444 31.425-17.653 25.01-60.313 5.884-92.678 7.356 32.363-1.475 75.023 17.651 92.678-7.356 5.928-9.16 8.491-19.901 9.444-31.425 1.963 23.398 3.354 39.941 3.354 39.941s-28.684 9.192-66.932 7.727c-38.248-1.473-59.578-14.715-59.578-14.715s29.055-195.651 30.158-194.913z"/><path fill="#81AFA1" d="M820.355 185.675s36.407 1.594 53.323 6.861c0 0-5.883 49.896-8.092 55.169 0 0-6.25-1.7-8.457 19.806-2.206 21.507-4.782 63.797-4.782 63.797l9.563 205.583s-19.123 5.521-52.222 4.778c-33.102-.734-49.649-11.763-49.649-11.763s14.71-174.323 14.344-206.689c-.368-32.363-4.781-63.507-8.091-69.452l-3.311-5.943s-5.898-16.508-7.162-32.909c-.418-5.45-2.697-16.426-2.697-16.426s1.891-4.604 20.771-7.789c18.88-3.188 32.362-5.394 32.362-5.394l4.414 11.157 9.686-10.786z"/><path fill="#231F20" d="M806.256 185.306l4.414 11.157 9.686-10.788s14.997.658 30.218 2.522c5.562 2.656 9.343 5.772 6.262 8.083-27.952 20.596-66.199 13.241-97.09 1.47-1.305-.323-2.675-.876-3.963-1.587 2.658-1.601 7.896-3.737 18.11-5.463 18.878-3.188 32.363-5.394 32.363-5.394z" opacity=".1"/><path fill="#231F20" d="M852.892 342.98l.828 17.764c-26.729-.758-53.777-1.48-80.781-1.98.323-5.492.604-10.586.831-15.201 26.373-.657 52.748-1.032 79.122-.583z" opacity=".2"/><path fill="#EFE6C3" d="M769.236 60.88l-3.436 105.917s5.148 3.678 21.33 3.678h17.407l1.717 23.045 4.414 2.943 12.802-6.375 8.285-89.246s13.978-46.34-34.08-46.828c.002.001-16.183-3.432-28.439 6.866z"/><path fill="#C9A457" d="M761.877 74.04s13.242 19.581 60.314 35.819l1.292 76.379s22.56 3.914 38.007 7.345c15.447 3.434 12.751 16.671 20.276 2.386 4.617-8.754 3.683-5.722-5.882-8.743-9.562-3.025-.733-18.512-12.504-25.848l-11.765-7.335s10.293-17.647-1.477-19.857l-11.77-2.208s21.332-54.43-9.561-75.761c-30.895-21.33-52.959-19.288-61.053-7.435-8.09 11.847-5.884 22.881-5.884 22.881l.007 2.377z"/><path fill="#B99850" d="M767.762 48.783c.918-1.346 2.025-2.557 3.297-3.629-3.449 7.995-5.069 16.699.086 23.144 16.183 19.124 47.075 14.712 55.901 36.774 5.883 16.183-7.354 33.838 0 51.488 7.354 16.184 25.006 22.066 36.777 35.307.746.995 1.335 2 1.8 3.014-1.215-.505-2.578-.953-4.131-1.297-15.448-3.431-38.007-7.345-38.007-7.345l-1.292-76.379c-47.073-16.238-60.314-35.819-60.314-35.819v-2.376c-.002-.001-2.207-11.035 5.883-22.882z"/><path fill="#CBB198" d="M781.984 120.948l-4.412 17.896 10.051 2.45s-3.675-1.962-5.025-6.13c-1.348-4.165-.614-14.216-.614-14.216z"/><path fill="#CBB198" d="M779.778 151.105c-.939-.283 10.68 4.329 24.048.561l-21.229 6.059c.001 0 9.442-2.945-2.819-6.62z"/><path fill="#C9A457" d="M806.256 106.481s-5.64-6.375-12.013-5.639l-6.374.736s2.695-4.907 6.619-4.659c3.923.245 10.788 5.883 11.768 9.562z"/><path fill="#C9A457" d="M778.795 101.695s-4.901-3.313-7.6 0c0 0 1.473-5.284 3.8-4.784 2.329.5 3.8 4.784 3.8 4.784z"/><path fill="#5E4F32" d="M780.299 112.49c0-1.019-.824-1.841-1.84-1.841s-1.84.822-1.84 1.841v5.219c0 1.016.824 1.839 1.84 1.839 1.017 0 1.84-.823 1.84-1.839v-5.219z"/><path fill="#5E4F32" d="M799.866 111.759c0-1.299-1.057-2.352-2.353-2.352-1.302 0-2.354 1.053-2.354 2.352v6.679c0 1.301 1.053 2.354 2.354 2.354 1.297 0 2.353-1.053 2.353-2.354v-6.679z"/><rect x="767.762" y="329.47" fill="#6B907F" width="89.002" height="24.273"/><path fill="#6B907F" d="M870.358 667.854c-.233.729-22.853.204-48.203 0l-25.354-.199s-1.469-9.195 10.299-12.139c11.77-2.941 29.425-5.517 29.425-5.517s6.251 6.618 17.282 6.987c11.034.363 16.55-4.047 16.55-4.047s1.474 10.337.001 14.915z"/><path fill="#6B907F" d="M787.359 668.045c-.232.729-22.854.203-48.204 0l-25.352-.206s-1.471-9.189 10.297-12.134c11.77-2.941 29.422-5.518 29.422-5.518s6.25 6.62 17.282 6.987c11.036.368 16.554-4.045 16.554-4.045s1.472 10.336.001 14.916z"/><path fill="#81AFA1" d="M864.119 195.562c3.678 2.614 11.769.082 16.919 21.21 5.146 21.124 25.741 114.903 25.741 114.903v39.733h-21.438l-5.04-40.706s-8.091-61.133-19.857-89.474c-11.771-28.343-7.356-3.507-7.356-3.507l7.423-46.309 3.608 4.15z"/><path fill="#81AFA1" d="M764.086 195.562c-3.678 2.614-11.769.082-16.919 21.21-5.147 21.124-23.744 115.407-23.744 115.407l-1.997 39.23h21.438l5.04-40.706s8.091-61.133 19.857-89.474c11.771-28.343 7.356-3.507 7.356-3.507l-7.423-46.309-3.608 4.149z"/><path fill="#231F20" d="M891.158 392.133c-.112-8.074-.191-14.115-.191-14.115l15.813 2.938v11.313c-5.097.229-10.357.006-15.622-.136z" opacity=".2"/><path fill="#BA5D81" d="M744.568 443.326c1.199.279-14.234 11.877-24.722-4.879-10.48-16.757-26.895-41.758-2.758-76.797 0 0-22.57 19.389-9.896 56.747 0 0 13.721 44.287 36.944 26.908l.432-1.979z"/><path fill="#BA5D81" d="M740.808 462.722s-8.676-5.002-12.959-20.924c-4.275-15.923-82.512-6.516-65.37-84.835 0 0-15.76 41.813 17.617 62.894 0 0 3.14 4.628 44.21 18.505 0-.003 9.048 24.024 16.502 24.36z"/><path fill="#BA5D81" d="M731.313 477.91s-10.439-94.893-104.567-54.649c0 0 44.709-18.525 71.838-.349 27.132 18.182 29.85 46.85 32.521 55.957 2.666 9.108.208-.959.208-.959z"/><path d="M881.77 461.499c-.883 4.715 18.022 10.664 25.012 13.241 6.986 2.571 10.148-12.875 7.354-19.125-2.793-6.252-20.595-15.938-24.271-15.69-3.679.246-6.989 15.69-8.095 21.574z" fill="none"/><path fill="#6B907F" d="M874.485 194.076l-19.368-5.148s-2.208 58.35-.245 61.047c.734 1.012 4.095 5.329 4.095 5.329s2.208-4.045 4.905-4.842c2.696-.798 10.613-56.386 10.613-56.386z"/><path fill="#6B907F" d="M762.688 191.625l7.525 59.328s-1.22 7.414-4.411 6.497c-3.188-.921-7.226-19.426-10.166-26.781-2.94-7.358-8.152-33.406-8.152-33.406l15.204-5.638z"/><polygon fill="#6B907F" points="914.136,384.637 879.528,386.844 879.528,353.743 914.136,353.743"/><path fill="#CBB198" d="M800.81 110.53l-9.931-2.944s3.494-.918 4.231-2.574l5.7 5.518z"/><path fill="#CBB198" d="M780.583 111.264l-9.931-2.943s3.494-.917 4.229-2.572l5.702 5.515z"/><path fill="#BA5D81" d="M754.505 469.416c9.479 2.05 18.823-3.972 20.875-13.449 2.051-9.479-3.968-18.827-13.445-20.876-9.479-2.054-18.827 3.966-20.88 13.447-2.053 9.478 3.97 18.826 13.45 20.878z"/><path fill="#A95477" d="M746.394 490.805c9.231 1.997 18.333-3.864 20.33-13.093 1.998-9.229-3.862-18.337-13.095-20.336-9.23-1.997-18.334 3.869-20.332 13.101-1.998 9.229 3.866 18.331 13.097 20.328z"/><circle fill="#BA5D81" cx="738.578" cy="487.559" r="15.395"/><path fill="#BA5D81" d="M772.038 451.417c.297-.499 21.971 8.896 36.721 11.148 0 0-33.465-6.204-38.875-9.024l2.154-2.124z"/><path fill="#A95477" d="M764.189 473.775c1.014-.346 32.42-2.017 41.306 10.818 0 0-24.846-13.844-38.858-8.225l-2.448-2.593z"/><path fill="#BA5D81" d="M750.761 490.624s26.201-1.101 33.834 15.787c0 0-13.187-17.314-34.438-12.99l.604-2.797z"/><path fill="#EFE6C3" d="M742.136 362.307l-4.32 57.471s6.174 5.829 7.488 9.726c1.318 3.896 2.492 8.29-1.868 10.286-4.358 1.995-5.238 20.137-5.238 20.137s-2.471 3.896-4.825 2.675c-2.356-1.215-3.646-.503-6.286-.723-2.643-.216.078-5.928-2.673-4.824-2.752 1.104-3.004 2.925-6.185 1.744-3.177-1.183-2.891-2.184-2.314-4.181.573-2.002-3.364-1.082-3.359-3.188.006-2.104 7.474-31.89 7.474-31.89s1.465-.39 2.505-3.065c1.04-2.679 2.286-58.864 2.286-58.864l4.515-.243 12.8 4.939z"/><path fill="#231F20" d="M724.817 357.607l4.515-.244 12.805 4.941-1.448 19.279c-5.517-.195-10.984-.646-16.457-1.12.349-12.229.585-22.856.585-22.856z" opacity=".2"/><polygon fill="#6B907F" points="750.136,374.165 713.134,375.125 715.952,356.116 751.922,348.743"/><path fill="#81AFA1" d="M1348.869 354.176s-5.929 122.184-8.427 153.393c-2.497 31.208-4.993 104.235-4.993 117.97 0 13.729-.625 10.608-.625 10.608s12.482 4.993 19.35 1.873c0 0 6.242-88.636 10.611-129.205 4.368-40.571 16.854-101.738 16.854-101.738l4.213-.469 2.343 108.14 2.34 121.714s10.453 3.432 15.448 2.185l4.992-1.25s-.624-96.12.623-127.328c1.25-31.208 5.309-121.872 2.811-156.824l-2.809-16.073h-56.801l-5.93 17.004z"/><path fill="#A8B0A5" d="M1348.283 366.102c.368-7.447.586-11.926.586-11.926l5.93-17.009h56.801l2.809 16.073c.281 3.904.477 8.511.604 13.646-22.243 2.294-44.487 2.03-66.73-.784z" opacity=".31"/><path fill="#81AFA1" d="M1421.43 181.434c1.404.467 6.555 3.746 6.555 3.746s18.726 106.265 19.66 129.671c.938 23.407 14.514 112.351 14.514 112.351v3.747l-21.533 1.401-14.98-93.624-9.829-89.414 3.274-66.589 2.339-1.289z"/><path fill="#5E4F32" d="M1390.064 639.268v26.217h18.726l.468-5.617 3.277 4.682h60.855s-17.32-13.575-59.452-23.405l-23.874-1.877z"/><path fill="#5E4F32" d="M1352.614 639.268v26.217h-18.728l-.467-5.617-3.279 4.682h-60.854s17.321-13.575 59.452-23.405l23.876-1.877z"/><rect x="1457.374" y="457.943" transform="matrix(.993 -.12 .12 .993 -49.241 180.66)" fill="#A1A16C" width="30.838" height="81.045"/><polygon fill="#B0CDAC" points="1476.337,540.425 1445.529,539.009 1449.247,458.037 1480.057,459.459"/><path fill="#876F53" d="M1260.765 389.971s54.897-101.017 76.193-131.453l21.294-30.438 2.657 11.467s-43.677 59.552-57.354 85.578c-13.678 26.027-32.425 63.081-32.425 63.081l-10.365 1.765z"/><path fill="#EFE6C3" d="M1409.979 70.431s7.441 22.686 10.988 44.664c3.541 21.976 6.749 36.51 6.749 36.51s-19.512 6.732-37.589 8.503c-18.076 1.775-16.305 1.775-16.305 1.775l-.048 15.948s21.313 11.701 14.935 20.205c-6.38 8.509-31.191 3.899-33.316-6.377-2.129-10.281 6.025-12.764 6.025-12.764s-6.025-22.682-8.509-38.99c-2.481-16.304-9.216-62.735 0-74.787 9.219-12.055 40.408-34.386 57.07 5.313z"/><path fill="#929497" d="M1340.857 118.283"/><path fill="#6D5F43" d="M1376.547 91.34l8.594-2.729s-1.465-2.577-3.792-2.324c-2.322.252-5.003 5.054-5.003 5.054"/><path fill="#6D5F43" d="M1411.851 86.937l-8.595-2.727s1.466-2.578 3.791-2.325c2.326.252 5.005 5.051 5.005 5.051"/><path fill="#6D5F43" d="M1385.5 105c0 1.657-1.343 3-3 3h-1c-1.657 0-3-1.343-3-3v-6c0-1.657 1.343-3 3-3h1c1.657 0 3 1.343 3 3v6z"/><path fill="#6D5F43" d="M1411.5 98.944c0 1.834-1.714 3.056-3.568 3.056h-.285c-1.854 0-3.146-1.222-3.146-3.056v-5.358c0-1.834 1.292-3.585 3.146-3.585h.285c1.854 0 3.568 1.751 3.568 3.585v5.358z"/><path fill="#CBB198" d="M1400.712 106.662l5.657 14.557-6.76 5.402s1.765-2.537 2.093-5.841c.333-3.31-2.533-14.338-.99-14.118z"/><path fill="#6D5F43" d="M1399.666 129.047l.551 5.955s-9.812 3.09-20.844 0c0 0-3.419-2.316-1.872-4.298 0 0 1.526 2.536 3.849 2.865 2.327.333 10.162-.554 12.587-1.764 2.42-1.209 5.729-2.758 5.729-2.758z"/><path fill="#6D5F43" d="M1400.576 129.047l.553 5.756s8.088.435 16.397-3.683c0 0 2.386-2.456.876-3.971 0 0-.854 2.396-2.646 2.984-1.797.593-9.006 1.259-11.102.526-2.095-.732-4.078-1.612-4.078-1.612z"/><path fill="#81AFA1" d="M1315.797 187.607s7.114-1.188 16.327-2.607c7.591-1.167 16.608-2.494 24.239-3.442 3.466-.433 15.224 16.45 17.854 16.226 4.246-.364-9.479-17.864 8.821-17.812 18.128.052 40.392.574 40.392.574l-3.092 176.124s-15.262-1.211-37.451 1.873c-22.188 3.092-35.677-1.107-35.677-1.107l-31.413-169.829z"/><path fill="#81AFA1" d="M1309.834 193.264c-3.088 5.292-39.701 153.953-39.701 153.953s-.441 11.026 6.176 10.585c6.616-.438 38.818-5.806 38.818-5.806l11.029-26.395-28.019 5.735s23.604-87.319 28.019-93.288l4.408-5.963-14.696-44.429-6.034 5.608z"/><polygon fill="#6B907F" points="1381.934,305 1378.392,297.5 1381.934,290 1389.012,290 1392.553,297.5 1389.012,305"/><polygon fill="#6B907F" points="1386.09,332 1382.551,325.5 1386.09,319 1393.17,319 1396.708,325.5 1393.17,332"/><path fill="#BBBDBF" d="M1315.566 351.996l9.48-22.688-4.891-2.388-13.311 2.723-12.582 25.772c10.418-1.606 21.304-3.419 21.304-3.419z" opacity=".4"/><path d="M1410.645 182.726" fill="none"/><path fill="#6D5F43" d="M1242.238 475.988c2.207.438 27.785 9.264 27.785 9.264l41.029-104.986-14.127-8.822-37.925 14.997-27.791 67.936 11.029 21.611z"/><path d="M1339.204 348.395c4.933-2.314 7.64-6.453 6.366-9.09-1.271-2.642-3.961-2.952-3.961-2.952l-5.193 11.625 2.788.417z" fill="none"/><polyline fill="#E6E7E8" points="1433.59,505.4 1456.405,505.403 1464.762,454.425 1458.128,438.45 1441.451,441.211"/><path fill="#CBB198" d="M1378.215 135.224s9.266 2.755 19.409 1.547c10.144-1.214 17.976-4.084 17.976-4.084s-10.807 4.304-11.139 6.62c-.332 2.315-.22 1.213-.22 1.213s-20.071-.22-26.026-5.296z"/><path fill="#EFE6C3" d="M1350.618 86.951s-11.913 1.656-10.255 13.565c1.65 11.909 5.622 17.535 11.249 18.195 5.622.663 11.907-1.982 11.907-1.982l-11.248-29.445s-2.315-1.658-1.653-.333z"/><path fill="#6D5F43" d="M1352.376 123.461c-1.511 3.079-1.185 4.478-1.185 4.478l-10.334-9.656s-4.1-18.085.609-28.361c4.704-10.275 6.432-12.193 6.432-12.193l22.377-2.335s-7.799 5.319-11.343 17.724c-3.542 12.406-4.606 18.433-4.606 18.433s-1.063-21.978-8.506-21.624c-7.443.355-3.898 17.604 0 21.624 3.896 4.022 6.207 3.668 6.207 3.668"/><path fill="#929497" d="M1411.798 76.321c-.651.028-1.321.063-2.039.106l.521-5.057-.301-.939c-16.659-39.699-47.851-17.368-57.067-5.313-2.062 2.691-3.317 7.104-4.009 12.506l-1.002.105s-1.381 1.547-5.027 9.19c2.896-.396 8.899-1.092 16.057-1.92 5.347 1.208 17.833 3.396 30.324 1.452 7.993-1.243 16.965-3.466 23.929-5.377-.505-1.764-.974-3.368-1.386-4.753z" opacity=".4"/><path fill="#DCECE3" d="M1351.612 192.49s18.854 58.89 18.854 59.882c0 .991 13.896 18.858 13.896 18.858l10.917-18.858-4.96-42.018-10.256-26.134s-.518 8.925-7.724 8.821c-5.233-.078-11.799-9.644-15.828-7.889-3.76 1.64-6.072 4.419-5.234 8.992"/><path fill="#6B907F" d="M1380.504 180.91s6.021 35.701 7.545 48.935c1.523 13.235-3.699 35.731-3.699 35.731l18.906-58.229-22.752-26.437z"/><path fill="#4D604A" d="M1370.275 189.027s3.418.432 6.726 0l3.312-.427-2.903 13.855-3.054.018-.727-.913c-1.749-2.213-6.021-7.807-5.669-9.213.439-1.76 2.315-3.32 2.315-3.32z"/><polygon fill="#4D604A" points="1374.957,265.576 1384.943,272.306 1392.75,260.286 1374.957,197.202 1373.471,198.964"/><polygon fill="#AFCEC2" points="1373.471,190.187 1363.989,213.438 1350.949,184.22 1358.936,177 1360.561,177"/><polygon fill="#AFCEC2" points="1373.471,175.586 1373.198,189.789 1387.011,202.474 1382.209,182.168"/><polygon fill="#6B907F" points="1390.898,229.401 1384.928,272.306 1400.576,250.854"/><polygon fill="#6B907F" points="1350.971,182.726 1336.958,211.319 1377.001,258.518"/><polygon fill="#6B907F" points="1351.411,184.488 1337.399,213.081 1377.442,260.279"/><polygon fill="#6B907F" points="1363.579,231.797 1356.284,252.973 1384.928,272.306"/><rect x="1427.021" y="460.321" transform="matrix(.986 .169 -.169 .986 105.7 -237.13)" fill="#B0B07D" width="30.839" height="81.045"/><path fill="#EFE6C3" d="M1464.875 439.474l6.007 20.263s-9.882 8.347-11.979 13.236c-2.104 4.896-7.313 5.364-6.876-.096.432-5.457 3.687-11.196 3.687-11.196l-19.248-2.945 2.078-12.391 26.331-6.871z"/><path fill="#BBBDBF" d="M1437.955 425.808c2.225 10.744 4.05 17.561 4.05 17.561l22.683-6.915s-1.604-6.131-3.72-16.203l-23.013 5.557z" opacity=".4"/><rect x="1433.62" y="426.528" transform="matrix(.972 -.235 .235 .972 -61.796 353.844)" fill="#667A64" width="41.688" height="19.597"/><rect x="1294.078" y="334.611" transform="matrix(.439 -.899 .899 .439 428.47 1374.869)" fill="#667A64" width="41.69" height="19.601"/><path fill="#876F53" d="M1410.645 180s-35.161 83.858-54.358 112.154c-19.204 28.291-59.356 86.653-59.356 86.653l6.631 5.803s55.289-74.728 61.903-86.087c6.618-11.365 43.038-79.984 54.038-115.794v-2.729h-8.858z"/><path fill="#EFE6C3" d="M1309.4 349.718l16.211-33.415 17.201 5.04 2.758 6.132-9.154 19.5-3.584 7.025h-14.5l-7.496 3.75s-3.182-4.43-1.436-8.032z"/><path fill="#667A64" d="M1343.693 83.253c1.062-.419 27.291-3.19 45.366-5.524 18.079-2.335 23.348-5.269 23.348-5.269l2.53-24.716s-21.271-17.72-32.257-17.72c-10.985 0-45.725 31.191-45.725 31.191l6.738 22.038z"/><polygon fill="#DCECE3" points="1386.805,66 1380.284,55 1386.805,44 1399.846,44 1406.369,55 1399.846,66"/><polygon fill="#5E4F32" points="1258.559,386.441 1230.768,454.375 1241.796,475.988 1296.488,371.441"/><path fill="#4D604A" d="M1358.936 80.355c1.063.354 17.014 4.608 32.968 2.125 15.948-2.48 35.798-8.861 35.798-8.861s1.771-3.189-29.065 0c-30.841 3.19-39.701 6.736-39.701 6.736z"/><path fill="#CBB198" d="M1377.407 95.992c-.06.175 9.604-3.234 9.604-3.234s-1.267-.353-2.831-1.164c-1.563-.809-1.563-1.11-1.563-1.11s-4.909 4.598-5.21 5.508z"/><path fill="#CBB198" d="M1402.445 92.705c-.061.173 9.604-3.234 9.604-3.234s-1.269-.355-2.835-1.163c-1.563-.808-1.563-1.113-1.563-1.113s-4.902 4.599-5.206 5.51z"/><path fill="#81AFA1" d="M1334.824 636.146l.259.099c-.136.51-.259-.099-.259-.099z"/><rect x="1385.195" y="620.789" fill="#667A64" width="33.969" height="21.616"/><rect x="1323.942" y="620.381" transform="matrix(1 .018 -.018 1 11.897 -24.681)" fill="#667A64" width="33.968" height="21.617"/><g><path fill="#895F3C" d="M866.846 416.289l-2.169 6.499s-6.22-1.61-9.714 3.278c0 0-5.736 10.896-7.971 15.508 0 0-.98 1.537-.563 3.076.416 1.533 2.743 2.281 6.113-4.365 1.922-3.784 2.168-4.052 2.168-4.052s1.991-.033 1.398 1.049c-.597 1.083-11.087 28.678-12.104 31.371 0 0-.421.904.595 1.708 1.015.808 2.479-.802 2.479-.802l9.268-19.384s.943-.388.384 1.29c-.562 1.675-7.914 21.635-8.122 22.767-.201 1.131.133.919 1.029 1.492.898.581 1.528-.259 1.528-.259s10.212-23.964 10.104-23.646c-.104.312.696-.7 1.606-.279.911.42-8.569 22.879-9.161 24.662 0 0-.247 1.081 1.08 1.643 1.331.562 1.293-.385 1.293-.385l10.913-23.613s.14-.421.979-.141c.836.281-8.225 23.231-8.225 23.231s.175 1.224.94 1.362c.769.14 5.985-10.936 10.531-21.412 4.544-10.478 10.031-24.139 9.308-28.575 0 0 .033-.804-1.19-1.325l2.413-7.234-14.773-4.23-.137.766z"/><path fill="#895F3C" d="M867.441 433.641s-2.063 5.915-8.716 5.541c0 0-.479-.087-3.011-.98.206-.499.342-.819.396-.917.593-1.082-1.398-1.049-1.398-1.049s-.247.268-2.168 4.052c-3.37 6.646-5.697 5.898-6.113 4.365-.418-1.539.563-3.076.563-3.076 2.233-4.611 7.971-15.508 7.971-15.508 3.495-4.891 9.714-3.278 9.714-3.278l2.169-6.499.143-.77 5.935 1.7-5.485 16.419z"/><path fill="#895F3C" d="M852.528 440.268c-1.401 2.77-2.622 4.25-3.602 4.934.354-.774 1.087-2.3 2.761-5.384 2.757-5.093 3.093-6.3 5.588-4.871 2.481 1.422 6.83 3.522 9.802-.548-.826 1.587-3.227 5.057-8.374 4.769 0 0-.474-.085-3.001-.983.206-.498.341-.815.394-.918.597-1.083-1.396-1.051-1.396-1.051s-.254.269-2.172 4.052z" opacity=".57"/><path fill="#493B24" d="M967.059 644.259c.43.854.643 3.208 1.281 12.62.644 9.41 0 11.764 0 11.764l-9.41-.429-1.498-4.989-2.351 3.775h-52.834s5.776-9.338 25.882-13.189c20.106-3.85 20.106-3.705 20.106-3.705l1.284-7.416 17.54 1.569z"/><path fill="#5F5133" d="M952.299 668.214c.147.662-48.553 0-48.553 0l-5.994-19.037-2.35.858-8.561-11.123s4.279-4.708 10.27-10.481c5.988-5.774 7.273-6.631 7.273-6.631l6.629-4.706 10.48 11.979s-4.065 2.139-3.852 7.7c.216 5.562 6.849 18.396 6.849 18.396s13.046 4.922 21.604 5.777c8.558.852 5.777 5.343 6.205 7.268z"/><path fill="#222D35" d="M993.369 348.646s5.133 52.19 12.407 106.949c7.271 54.76 6.844 75.293 6.844 75.293s-16.256 24.813-45.777 55.615c-29.516 30.802-45.771 49.195-45.771 49.195s-1.285 2.564-10.698-5.135c-9.408-7.7-6.843-10.268-6.843-10.268s23.958-23.103 49.626-52.19c25.667-29.091 38.071-48.343 38.071-48.343s-3.42-17.543-13.688-51.764c-10.269-34.226-16.684-44.491-16.684-44.491s-.431 20.534.426 59.895c.855 39.354 5.562 109.519 5.989 130.907l2.992 34.221s-7.697 2.143-12.402 2.143c-4.706 0-8.983-2.565-8.983-2.565s-6.419-54.761-11.979-126.632c-5.563-71.871-11.98-171.121-11.98-181.814l68.45 8.984z"/><path fill="#42474F" d="M924.918 339.662l47.956 6.294 21.635 13.856c.826 7.934 2.074 19.629 3.653 33.562l-73.003-46.759c-.156-3.349-.241-5.733-.241-6.953z"/><path fill="#42474F" d="M960.856 423.513s-.056 2.602-.085 7.696l-31.733-20.325c-.778-11.827-1.482-22.852-2.08-32.555l75.099 48.1c1.158 9.444 2.403 19.265 3.721 29.169.218 1.646.429 3.261.634 4.845l-40.374-25.859c-3.32-8.088-5.182-11.071-5.182-11.071z"/><path fill="#42474F" d="M961.282 483.405c.064 3.018.152 6.218.261 9.562l-28.1-17.998c-.784-10.932-1.557-21.935-2.294-32.691l29.751 19.057c.083 6.536.204 13.89.382 22.07z"/><path fill="#42474F" d="M979.002 472.928l31.151 19.951c1.643 16.556 2.2 27.08 2.384 32.75l-23.343-14.951c-1.839-7.728-5.064-20.356-10.192-37.75z"/><path fill="#42474F" d="M964.406 555.004c6.16-7.38 11.233-13.821 15.253-19.111l19.957 12.782c-4.508 5.791-10.151 12.732-16.859 20.424l-18.221-11.67-.13-2.425z"/><path fill="#42474F" d="M964.406 555.004l-1.278 1.523-24.69-15.814c-.517-6.25-1.03-12.67-1.538-19.234-.347-4.449-.692-9.008-1.042-13.642l27.021 17.311c.477 9.887 1.006 20.036 1.527 29.856z"/><path fill="#42474F" d="M965.593 587.813l.572.365c.571 11.188.992 20.409 1.106 26.137.041 2.051.102 4.021.178 5.909l-20.268-12.979c5.366-5.724 11.521-12.233 18.412-19.432z"/><path fill="#42474F" d="M944.337 605.422l-16.02-10.261c4.244-4.459 8.842-9.364 13.625-14.587.84 9.01 1.647 17.339 2.395 24.848z"/><path fill="#42474F" d="M941.943 580.574c1.499-1.639 3.015-3.303 4.545-4.999l19.104 12.234c-6.891 7.2-13.046 13.711-18.409 19.435l-2.847-1.822c-.747-7.509-1.554-15.838-2.393-24.848z"/><path fill="#42474F" d="M948.878 648.108s-.396-3.385-1.077-9.563l17.452 11.178c-2.4.494-5.214.953-7.392.953-4.706 0-8.983-2.568-8.983-2.568z"/><path fill="#42474F" d="M921.07 635.701s-1.285 2.564-10.698-5.135c-9.408-7.7-6.843-10.268-6.843-10.268s2.296-2.215 6.221-6.127l19.482 12.479c-5.364 5.887-8.162 9.051-8.162 9.051z"/><path fill="#222D35" d="M994.867 364.749c-3.366 1.233-19.177 6.663-33.99 5.526-14.142-1.09-30.357-7.939-34.967-10.002-.482-8.688-.887-14.646-.887-16.844l68.582 8.981c-.001.003.446 4.541 1.262 12.339z" opacity=".3"/><path fill="#80708A" d="M979.894 174.958c-.963.32-38.504-.641-38.504-.641l-.641 15.401s-1.604 3.849 8.341 4.491c9.948.641 31.123-5.774 31.123-5.774l-.319-13.477z"/><path fill="#A6A8AB" d="M976.471 176.643s-17.918-1.697-24.923-1.432c-7.006.269-6.047.4-6.047.4v5.389h30.596l.374-4.357z"/><ellipse fill="#895F3C" cx="976.67" cy="87.995" rx="4.933" ry="12.161"/><path fill="#895F3C" d="M974.974 109.934l-8.557 74.009s18.822 10.695 12.406 23.102c-6.417 12.406-41.066 7.7-42.778-.856-1.712-8.555 17.539-22.246 17.539-22.246l.855-23.956s-9.198.426-21.816-.642c-12.621-1.069-22.89-6.845-22.89-6.845s-.43-87.271 19.04-101.817c0 0 18.818-9.623 33.795.857 14.972 10.48 14.972 36.573 12.406 58.394z"/><path fill="#4D3F28" d="M951.343 35.923c13.795-1.766 7.699 6.256 20.693 7.059 12.996.802 11.712 12.512 14.438 15.401 2.729 2.887-.316 9.464-.316 9.464l-6.506 33.613-3.181 8.687-3.423-11.121 4.278-3.852 2.78-8.342-1.283-6.632s-3.209-.214-6.203 7.487c-2.994 7.7-3.209 8.77-3.209 8.77l-6.203-13.048 2.138-23.102-34.647-10.055s-5.138 4.92-6.418 7.701c-1.206 2.612-1.092 4.09-4.798.183.599-4.684 1.986-14.529 7.153-19.97 6.097-6.415 10.91-.479 24.707-2.243z"/><polygon fill="#4D3F28" points="949.09,76.831 937.861,74.986 942.593,70.976"/><polygon fill="#4D3F28" points="921.819,74.023 916.444,74.827 918.289,70.173"/><path fill="#4D3F28" d="M944.5 85.333v6.259s-.057 1.604-1.903 1.683c-1.844.081-2.275-1.202-2.275-2.246 0-1.042.267-6.498.267-6.498s.233-.56 1.757-.642c1.522-.079 2.154.803 2.154 1.444z"/><path fill="#4D3F28" d="M922.5 85.41v4.412s-.375 1.13-1.678 1.188c-1.299.056-1.771-.85-1.771-1.584 0-.735.104-4.581.104-4.581s.455-.395 1.53-.452c1.077-.059 1.815.563 1.815 1.017z"/><path fill="#70513A" d="M925.748 86.538s-1.202 7.7-2.887 13.476c-1.688 5.775-3.611 10.187-3.611 10.187l10.029 4.332-4.094-5.213s1.524-19.653 1.767-22.058c.24-2.41-1.284-1.286-1.204-.724z"/><path fill="#70513A" d="M946.363 117.9s-7.782 2.406-15.078 2.488c-7.302.079-11.953-.322-11.953-.322s2.404.24 5.374 2.807c2.965 2.567 5.214 5.294 5.214 5.294s9.544-3.77 16.443-10.267z"/><path fill="#BBBDBF" d="M885.271 416.91l-17.067-7.062c1.712-2.666 3.593-6.302 5.575-10.677l16.152 5.751c-2.778 7.317-4.66 11.988-4.66 11.988z" opacity=".36"/><path fill="#BBBDBF" d="M1025.945 341.454l12.973 13.226c-7.922 6.104-11.628 7.854-11.628 7.854l-12.179-10.888 9.937-9.285s.181-.209.897-.907z" opacity=".35"/><path fill="#4D3F28" d="M946.914 188.91c3.588-3.167 6.669-5.354 6.669-5.354l.366-10.201c2.891.248 6.166.5 9.45.688 1.514.085 2.887.128 4.144.142l-1.086 9.371s2.697 1.53 5.705 4.102c-1.952.769-4.7 1.446-8.604 1.7-7.073.459-13.154-.03-16.644-.448z"/><path fill="#5E5264" d="M977.165 175.772s-4.333 1.08-13.796.54c-9.466-.54-18.933-1.619-18.933-1.619l-.641 16.034s8.663 1.622 19.731.9c11.068-.721 12.996-4.864 12.996-4.864l.643-10.991z"/><path fill="#895F3C" d="M1014.657 351.964l-5.258 4.392s-4.45-4.633-9.991-2.304c0 0-10.603 6.269-14.926 9.017 0 0-1.641.796-2.092 2.324-.449 1.53 1.143 3.387 7.498-.504 3.616-2.217 3.975-2.313 3.975-2.313s1.711 1.017.637 1.627c-1.073.607-24.487 18.595-26.761 20.354 0 0-.836.553-.396 1.771.439 1.217 2.534.62 2.534.62l18.063-11.641s1.004.168-.352 1.301c-1.355 1.131-18.092 14.261-18.857 15.111-.77.858-.375.854.09 1.814.461.965 1.435.581 1.435.581s21.27-15.044 21.015-14.825c-.256.212.959-.229 1.514.604.553.832-19.302 14.98-20.742 16.188 0 0-.777.793.061 1.965.834 1.171 1.302.353 1.302.353l21.678-14.377s.341-.283.908.396c.565.681-19.188 15.463-19.188 15.463s-.491 1.131.089 1.655c.58.521 10.825-6.172 20.196-12.707 9.366-6.534 21.208-15.278 22.914-19.442 0 0 .451-.663-.313-1.754l5.849-4.886-10.355-11.359-.527.576z"/><path fill="#895F3C" d="M1006.056 367.045s-4.857 3.955-10.329.145c0 0-.358-.321-2.043-2.414.434-.317.72-.518.815-.572 1.074-.61-.637-1.627-.637-1.627s-.357.098-3.975 2.313c-6.355 3.891-7.947 2.034-7.498.504.451-1.529 2.092-2.324 2.092-2.324 4.323-2.748 14.926-9.017 14.926-9.017 5.542-2.329 9.991 2.304 9.991 2.304l5.258-4.392.52-.582 4.162 4.562c-3.18 2.657-13.282 11.1-13.282 11.1z"/><path fill="#5E5264" d="M1002.565 186.937s-17.97 1.285-21.392 1.285c-3.423 0-53.26 1.282-56.257 1.282-2.994 0-6.417 1.284-5.988 7.702.43 6.417-4.705 59.036-14.12 101.816-9.406 42.779-25.664 93.369-35.932 109.411l17.004 7.06s11.229-27.914 19.25-54.227c8.022-26.309 16.363-60.639 16.363-60.639l2.888 51.977s19.572 9.307 36.257 10.588c16.686 1.285 34.651-5.773 34.651-5.773l11.551-123.207s15.722 15.722 35.615 32.405c19.892 16.686 25.347 32.086 25.347 32.086s-5.772 10.908-23.101 25.988c-17.327 15.082-19.252 17.326-19.252 17.326l-9.947 9.307 12.194 10.908s11.55-5.455 37.54-30.804c25.988-25.346 25.668-29.518 25.026-35.293-.646-5.775-20.536-31.443-37.221-50.694-16.686-19.251-35.615-40.749-40.427-47.165-4.807-6.419-10.049-11.339-10.049-11.339z"/><rect x="1008.745" y="345.663" transform="matrix(-.7 -.714 .714 -.7 1486.354 1335.459)" fill="#80708A" width="29.731" height="19.893"/><polygon fill="#5F5133" points="1033.462,363 1035.573,359 1033.462,355 1029.239,355 1027.132,359 1029.239,363"/><rect x="862.867" y="403.854" transform="matrix(-.942 -.337 .337 -.942 1565.046 1098.815)" fill="#80708A" width="29.731" height="19.894"/><polygon fill="#5F5133" points="886.513,420 888.622,417.001 886.513,414 882.291,414 880.181,417.001 882.291,420"/><path fill="#392E3F" d="M931.42 355.6s-2.67-1.076-3.795-1.556c-1.122-.479-3.241-1.44-3.241-1.44l-5.134-90.96 12.17 93.956z" opacity=".5"/><polygon fill="#70513A" points="947.105,84.036 936.112,79.786 934.912,82.754"/><polygon fill="#70513A" points="921.281,81.376 915.266,82.499 920.717,78.809"/></g><path fill="#CBB198" d="M1136.942 197.791l-18.543 145.154-6.356 98.007 19.604 1.588 7.417-101.183 20.13-105.424-1.062-40.261c.001 0-13.772-10.595-21.19 2.119z"/><path fill="#538861" d="M1280.266 374.764s1.638-11.757-4.371-16.268c-6.01-4.512-8.01 2.773-14.358 0s-4.271-10.245-13.238-8.752c-8.97 1.492-8.573 4.085-14.489 1.781-5.915-2.303-1.281-1.322-8.92 2.127-7.64 3.449-9.02 4.512-4.534 4.844 4.485.333 10.694-.126 12.074 1.828 1.38 1.951-.596 2.289 6.44 1.83 7.033-.457 3.562 3.916 11.842 5.643 8.279 1.727 8.886-2.761 10.825 0 1.938 2.758-6.339 11.729 2.286 14.488 8.62 2.76 21.501 2.897 16.443-7.521z"/><path fill="#538861" d="M1312.795 374.807c-1.146-.074-4.837-18.23 0-25.02 4.84-6.785 11.283.113 15.307-9.545 4.022-9.659-2.99-14.144 11.385-16.558 14.373-2.416 13.339-1.381 20.583-3.796 7.245-2.413 5.52 1.765 0 5.195-5.521 3.43-2.934 15.282-17.249 21.146-14.316 5.865-7.941 8.85-13.456 17.988-5.519 9.142-10.368 11.001-16.57 10.59z"/><path fill="#538861" d="M1432.857 351.971s-7.59 4.229-18.283 4.01c-10.695-.215-11.385-3.924-20.354 0-8.973 3.927-5.521 13.584-13.456 12.896-7.935-.688-15.998-2.415-17.831 3.45-1.832 5.86-15.989 9.093-20.987 7.651-4.992-1.442-2.231-19.643 6.736-23.998 8.97-4.354 16.216-1.594 20.354-8.838 4.141-7.244 10.462-4.483 17.135-4.832 6.672-.344 2.875-4.828 15.984-5.519 13.111-.689 40.708 9.314 30.702 15.18z"/><polygon fill="#CBB198" points="1261.865,569.61 1264.164,619.284 1249.445,622.047 1244.387,569.61"/><polygon fill="#CBB198" points="1154.099,612.688 1163.386,563.832 1149.203,559.021 1136.797,610.221"/><path fill="#CBB198" d="M1271.063 208.534c2.775.866 57.037 123.273 57.037 123.273l-103.215 17.938s-8.057-17.938-6.93-17.938c1.132 0 76.564-17.48 76.564-17.48l-35.637-77.275v-37.447l12.181 8.929z"/><path fill="#4D604A" d="M1277.963 195.195l-36.744-14.941-20.688-5.475s-10.363-.803-17.648-1.695c-7.284-.889-21.972 4.631-21.972 4.631l-47.377 13.339 18.396 46.917 11.285 5.375s4.815 36.939 2.977 62.239c-1.844 25.3-2.089 26.964-2.089 26.964l-.675 20.873-39.556 203.307s30.816 20.699 90.154 19.78c59.337-.92 66.236-6.897 66.236-6.897l-36.339-219.867s-7.359-38.636-5.061-45.075l15.226-63.43 9.591 3.173 14.284-49.218z"/><path fill="#EDF0DF" d="M1362.936 376.271"/><path fill="#9C4D6E" d="M1323.501 413.679s21.731-71.409 91.073-66.581c0 0-34.496-6.896-60.717 17.248-26.216 24.148-30.356 49.333-30.356 49.333z"/><path fill="#9C4D6E" d="M1312.807 403.674s.347-54.851 37.604-76.583c-.003-.001-38.294 12.417-37.604 76.583z"/><path fill="#9C4D6E" d="M1282.104 396.775s-2.966-43.512-48.297-40.709c0 0 38.636-2.755 48.297 40.709z"/><path fill="#538861" d="M1304.646 372.973c.574-1.822 6.301-19.227-2.084-26.002l-8.388-6.771c-1.379-4.485-3.104-10.351-12.071-10.695-8.972-.347-7.591-4.1-15.183-4.464-7.588-.367-6.209 3.083-1.724 6.876 4.482 3.797 3.666 10.788 7.354 15.054s10.003.127 12.88 4.957c2.88 4.83-1.95 19.108 4.949 22.836 6.905 3.727 11.935 5.605 14.267-1.791z"/><path fill="#846465" d="M1315.308 73.983s-45.659-15.511-104.239 0c-58.58 15.507-75.449 35.515-83.2 40.256-7.752 4.738-1.292 13.908-1.292 13.908l193.049-38.521c-.003.001-1.302-11.337-4.318-15.643z"/><path fill="#846465" d="M1243.371 75.705s-7.749-19.384-10.768-21.536c-3.016-2.156-8.185-2.584-30.584 6.893-22.396 9.474-22.83 12.491-22.83 12.491v18.953l64.182-16.801z"/><path fill="#5E4F32" d="M1258.671 128.148s2.271 32.947 23.433 44.936c0 0-17.938 8.769-52.207 6.931l-34.268-1.839s36.339-53.14 61.176-50.028"/><path fill="#A96F36" d="M1261.405 187.376l-15.663-7.107-4.523 45.744h-52.486l-9.541-48.297-14.841 2.553s7.362 40.685 2.303 54.023l-5.062 13.34s5.52 18.019 6.44 41.436c.919 23.42-.923 41.819-.923 41.819h-2.762l-2.758 18.397 5.062 2.759-29.9 224.925s28.521 18.86 75.899 12.88c47.374-5.979 55.652-6.438 55.652-6.438l-25.759-226.768-3.679-38.177 16.559-67.154s-5.059-29.898 0-41.857c5.06-11.958 5.982-22.078 5.982-22.078z"/><path fill="#538861" d="M1109.409 419.251s8.533-17.479 3.229-21.438c-5.301-3.956-8.173-2.921-9.669-11.546-1.493-8.625-2.187-12.305-8.05-15.982-5.864-3.682-5.859-8.614-5.519-15.114.343-6.506-5.177 4.07-4.828 8.614.343 4.545-3.828 14.715-.021 22.395 3.812 7.678 1.398 12.163 4.849 17.338 3.448 5.177 12.948 15.302 18.202 17.312 5.257 2.006 1.807-1.579 1.807-1.579z"/><path fill="#538861" d="M1096.759 424.1c-.584 1-5.103 10.045-13.818 11.465-8.72 1.414-12.181-5.026-15.105 1.473-2.927 6.499-6.033 12.367-11.896 12.021-5.863-.346-7.244-3.764-10.352.017-3.104 3.776-6.208-.256-1.725-6.001 4.484-5.744.349-12.989 8.283-16.783 7.933-3.794 8.274 3.217 13.105-2.188 4.829-5.402 5.981-9.069 18.975-8.626 12.992.444 15.035 4.377 12.533 8.622z"/><path fill="#538861" d="M1102.971 421.438s-21.85 1.365-23.919-5.689c-2.068-7.055-.23-5.675-6.672-3.604-6.438 2.069-11.958 0-14.373-4.484-2.413-4.484-3.05-6.208-10.495-4.484-7.439 1.727-2.957-5.175-9.856-11.384l-6.899-6.211s1.036-1.174 8.624 3.554c7.591 4.728 10.695-.446 16.558 2.657 5.865 3.104 5.521 1.037 13.111 2.07 7.589 1.033 7.589 6.554 12.418 7.934s9.521-3.108 15.292 3.675c5.77 6.777 11.157 12.154 6.211 15.966z"/><path fill="#9C4D6E" d="M1150.116 481.309c0 7.527-6.104 13.627-13.625 13.627-7.525 0-13.628-6.1-13.628-13.627 0-7.524 6.104-13.625 13.628-13.625 7.523 0 13.625 6.098 13.625 13.625z"/><circle fill="#9C4D6E" cx="1158.569" cy="471.306" r="14.662"/><circle fill="#9C4D6E" cx="1172.886" cy="455.456" r="16.213"/><path fill="#9C4D6E" d="M1136.491 492.521s3.39 14.487 0 27.599c0 0 5.941-12.879 1.506-27.599-4.436-14.718-1.506 0-1.506 0z"/><path fill="#9C4D6E" d="M1163.229 479.873s1.84.46 6.668 11.5c4.828 11.039 4.372 13.837 4.372 13.837s.229-18.626-7.82-26.811c-8.053-8.186-3.22 1.474-3.22 1.474z"/><path fill="#9C4D6E" d="M1181.855 465.615s8.05 1.859 9.655 20.362c0 0 3.273-13.925-6.758-23.354-10.027-9.427-2.897 2.992-2.897 2.992z"/><path fill="#9C4D6E" d="M1137.593 471.306s-29.9-90.329-88.208-29.379c0 0 34.267-43.276 66.004-10.256.001 0 15.885 14.968 22.204 39.635z"/><path fill="#9C4D6E" d="M1153.799 467.684s-43.008-57.907-101.652-71.271c0 0 23.459-1.861 67.153 33.325 0-.002 23.34 21.139 34.499 37.946z"/><path fill="#9C4D6E" d="M1166.905 449.056s-74.057-9.429-77.504-71.065c0 0 3.938 32.272 28.07 50.291 24.138 18.013 45.986 15.942 49.434 20.774z"/><path fill="#5C5062" d="M1319.623 89.627c-2.108-10.57-47.033-10.517-100.342.12-53.313 10.636-94.815 27.83-92.707 38.401 2.107 10.569 47.034 10.516 100.344-.118 53.309-10.639 94.812-27.832 92.705-38.403z"/><path fill="#CBB198" d="M1255.436 97.618s6.029 32.793 2.152 60.362c0 0-3.012 3.446-19.385 6.031l-16.367 2.584-1.306 8.184-11.618 6.891-6.03-8.586v-24.635s-9.62-7.798-11.63-20.301c-2.005-12.506 3.454-45.555 33.818-46.413 30.366-.859 29.613 11.217 30.366 15.883z"/><path fill="#5E4F32" d="M1261.465 111.459c-1.724 0-5.662 3.569-27.813-4.677-22.153-8.247-22.37-5.661-22.37-5.661s-2.304 3.259-4.92 11.106l-3.479 10.432s-.002-8.185-3.877-5.601c-3.874 2.584-5.169 13.316 0 15.703 5.169 2.388 4.309 36.848 4.309 36.848s-2.508 5.598-7.716 2.586c-5.207-3.015-24.079-6.169-16.406-40.491 7.677-34.323 13.723-65.351 54.891-53.566 41.165 11.784 27.381 33.321 27.381 33.321z"/><path fill="#846465" d="M1127.867 114.24c7.751-4.742 24.62-24.75 83.199-40.256 58.582-15.511 104.24 0 104.24 0 3.019 4.305 4.315 15.644 4.315 15.644-2.108-10.57-47.033-10.517-100.343.12-53.312 10.636-94.814 27.83-92.707 38.401.003-.001-6.457-9.171 1.296-13.909z"/><path fill="#5E4F32" d="M1229.896 108.887s-1.787-1-5.011-.356c-3.225.642-6.93 3.639-6.93 3.639s1.613-6.017 5.973-6.67c4.359-.655 5.968 3.387 5.968 3.387z"/><path fill="#5E4F32" d="M1224.264 116.609c0-1.311-1.061-2.37-2.366-2.37-1.312 0-2.368 1.059-2.368 2.37v5.359c0 1.309 1.059 2.369 2.368 2.369 1.308 0 2.366-1.06 2.366-2.369v-5.359z"/><path fill="#5E4F32" d="M1250.48 115.783c0-.853-.688-1.543-1.547-1.543-.852 0-1.543.691-1.543 1.543v4.501c0 .853.691 1.544 1.543 1.544.856 0 1.547-.691 1.547-1.544v-4.501z"/><path fill="#876F53" d="M1250.266 146.349s-2.584.861-14.644 0c-12.063-.86-17.665-4.307-17.665-4.307l21.109 11.2s2.84-7.698 11.2-6.893z"/><path fill="#876F53" d="M1250.266 136.041l-9.047 2.987s6.896-3.922 4.523-7.345c-2.371-3.426-2.371-12.472-2.371-12.472s6.034 12.98 6.895 16.83z"/><path fill="#634A4B" d="M1128.958 447.116c-.625-1.895 2.183-3.575 4.563-5.629 2.38-2.054 1.116-2.854.502-3.941-.616-1.092 1.684-7.132 3.472-4.077 1.788 3.063 5.219 10.293 5.219 10.293s-6.082 4.535-11.281 4.39c.001-.003-1.925.633-2.475-1.036z"/><path fill="#634A4B" d="M1114.267 440.236s-2.62-1.871-4.771 5.24c-2.148 7.116-3.568 10.207-.281 10.449 3.282.244 3.996-3.814 3.996-3.814s4.008-9.54 1.056-11.875z"/><path fill="#634A4B" d="M1128.393 442.38c-.134.086-.289.352-.462.771-.589 1.431-1.364 4.686-2.013 9.01-.841 5.604.502 9.73 4.739 9.093 4.233-.636 3.979-18.502.856-18.688-3.121-.188-3.256-.102-3.256-.102"/><path fill="#634A4B" d="M1123.636 444.113s-.192-.693-1.564 1.003c-1.371 1.7-3.939 15.776-3.939 15.776s1.375 1.529 4.483 1.268c3.107-.262 2.183-.5 2.97-6.042.784-5.549 3.622-12.297-1.95-12.005z"/><path fill="#634A4B" d="M1119.234 440.874s-1.215-.038-3.229 2.072c-2.014 2.109-3.896 15.794-3.896 15.794s2.437 2.763 4.287 1.577c1.851-1.188 3.027-7.001 3.721-12.635.691-5.627 2.292-6.112-.883-6.808z"/><path fill="#846465" d="M1142.999 393.99c-1.175.724-34.715-.211-34.715-.211l2.843 45.799s-.556 19.258 11.346 18.399c11.9-.853 10.987-11.099 10.987-11.099l3.895-1.329s1.118-5.095 1.717-9.963c.36-2.938.537-5.794.16-7.395-.999-4.248-2.838-6.355-2.838-6.355l6.605-27.846z"/><path fill="#634A4B" d="M1193.495 351.782s2.208 2.346-4.55 5.435c-6.763 3.088-9.636 4.913-10.316 1.692-.684-3.222 3.241-4.478 3.241-4.478s8.912-5.258 11.625-2.649z"/><path fill="#634A4B" d="M1189.464 338.075c-.067.144-.309.335-.703.56-1.337.776-4.457 1.987-8.655 3.213-5.438 1.588-9.711.814-9.646-3.467.063-4.283 17.797-6.442 18.399-3.374.605 3.068.54 3.211.54 3.211"/><path fill="#634A4B" d="M1204.456 331.602c-.113.107-.407.195-.858.262-1.527.228-4.877.201-9.229-.207-5.646-.528-9.329-2.821-7.693-6.777 1.637-3.96 18.921.569 18.352 3.644-.568 3.078-.684 3.185-.684 3.185"/><path fill="#634A4B" d="M1190.117 342.669s.717.101-.781 1.687c-1.498 1.588-15.099 6.035-15.099 6.035s-1.702-1.156-1.861-4.272c-.159-3.117.199-2.229 5.589-3.757 5.389-1.53 11.693-5.252 12.152.307z"/><path fill="#634A4B" d="M1192.189 346.947s.203 1.199-1.613 3.479c-1.82 2.279-15.127 5.992-15.127 5.992s-3.063-2.042-2.141-4.035c.929-1.994 6.525-3.947 12.015-5.392s5.75-3.096 6.866-.044z"/><path fill="#634A4B" d="M1124.883 216.583"/><path fill="#5E4F32" d="M1271.523 607.325l-34.5 1.841 7.361 34.958-2.301 17.938h22.078s-5.979-2.76 0-2.76 7.357 4.602 7.357 4.602h42.319s2.757-5.52-2.302-8.279l-43.236-14.26 3.224-34.04z"/><path fill="#5E4F32" d="M1124.145 607.325l34.5 1.841-7.361 34.958 2.303 17.938h-22.08s5.979-2.76 0-2.76-7.357 4.602-7.357 4.602h-42.314s-2.761-5.52 2.298-8.279c5.063-2.76 43.237-14.26 43.237-14.26l-3.226-34.04z"/><path fill="#876F53" d="M1309.887 313.683l1.746-.093-1.746.093z"/><path fill="#876F53" d="M1311.633 313.589l.166-.008-.166.008z"/><path fill="#876F53" d="M1309.424 313.705l.463-.022-.463.022z"/><path fill="#876F53" d="M1307.829 313.788l1.595-.083-1.595.083z"/><path fill="#876F53" d="M1307.664 313.799l.165-.011-.165.011z"/><path fill="#876F53" d="M1312.117 313.565l.085-.004-.085.004z"/><path fill="#876F53" d="M1294.842 314.626c.854-.146 1.732-.252 2.654-.3 0 0 42.663 1.034 33.576 67.959h4.025s10.7-57.198-27.988-68.458l-1.765.089 1.763-.089c-4.115-1.2-8.789-1.883-14.1-1.916 0 0-4.813.338-9.736 5.213l9.81-2.125c.53-.139 1.079-.255 1.64-.355l.127-.027-.006.009zm2.719-.302l.075-.003-.075.003zm4.46-.233l1.856-.097-1.856.097zm-2.12.111l.483-.024-.483.024zm-1.454.076l.206-.012-.206.012zm-.659.034l.241-.013-.241.013z"/><path fill="#876F53" d="M1276.115 340.841c-2.596 19.078 2.062 41.444 2.062 41.444h-2.229c-3.271-17.77-3.686-31.047-2.503-40.979l2.67-.465z"/><path fill="#876F53" d="M1307.664 313.799l-.555.028h-.002l.557-.028z"/><path fill="#876F53" d="M1311.799 313.582l.318-.016-.318.016z"/><path fill="#876F53" d="M1312.202 313.561z"/><path fill="#9C4D6E" d="M1299.699 398.845s16.901-48.642-31.396-69.34c.002-.001 40.707 15.179 31.396 69.34z"/><polygon fill="#876F53" points="1268.305,440.415 1344.201,439.034 1350.408,386.943 1258.887,386.943"/><rect x="1248.574" y="380.389" fill="#6D5F43" width="107.979" height="13.107"/><path fill="#846465" d="M1254.275 317.087c-.229 1.838 4.609 39.097 4.609 39.097l-51.758-6.438-21.619 10.58-11.041-25.76 16.413-4.14 2.446-7.818 20.236 7.359 40.714-12.88z"/><g><path fill="#5E4F32" d="M1104.57 643.118v22.41h11.564s-.805-5.063 1.585-3.253c2.394 1.808 2.394 3.253 2.394 3.253l41.931-3.615s1.807-8.713-15.904-12.129c-17.713-3.413-28.418-12.416-28.418-12.416l-13.152 5.75z"/><path fill="#5E4F32" d="M1055.41 647.455l2.892 18.073h-17.712s-2.892-3.253-3.976-2.169c-1.084 1.085 0 3.254 0 3.254l-43.375 2.892s-2.53-8.312 5.061-11.022c7.59-2.711 38.315-12.833 38.315-12.833l18.795 1.805z"/><path fill="#EFE6C3" d="M1100.956 610.225c-.362 1.445 2.529 35.425 2.529 35.425s13.349-5.783 14.083-6.146c.738-.362-1.434-37.633-1.434-37.633l-15.178 8.354z"/><path opacity=".2" fill="#231F20" enable-background="new" d="M1116.136 601.871l-15.18 8.354c-.094.372.028 2.901.261 6.448 5.214-.631 10.428-1.112 15.641-1.54-.371-7.232-.722-13.262-.722-13.262z"/><path fill="#EFE6C3" d="M1036.614 616.009l4.698 27.472s1.084 5.781 6.867 6.146c5.783.361 7.229 0 7.229 0l-1.445-37.069-17.349 3.451z"/><path opacity=".2" fill="#231F20" enable-background="new" d="M1036.614 616.009l1.565 9.161c5.404.321 10.857.721 16.317 1.075l-.534-13.69-17.348 3.454z"/><path fill="#667A64" d="M1034.807 321.774s-.576 36.148-1.686 77.354c-1.11 41.209-.819 104.825-1.555 105.909-.736 1.084-.079 110.971-.079 110.971h24.646l2.893-108.438 15.543-132.97 14.818 130.438 7.953 103.018 22.771-4.338s-1.832-111.331-2.546-113.139c-.708-1.81-2.409-125.431-2.409-125.431l-.468-51.326-77.354 1.808c.003.001-1.875 1.584-2.527 6.144z"/><path opacity=".2" fill="#231F20" enable-background="new" d="M1114.902 337.191l-.211-23.368-77.354 1.808s-1.878 1.583-2.53 6.144c0 0-.062 3.918-.186 10.641 25.629 8.837 53.394 9.643 80.281 4.775z"/><path fill="#B7C0B4" d="M1023.962 162.37l46.269-11.206 14.07-2.367 43.041 11.042 31.448 122.174-5.063 28.558-2.891 9.396-14.82-6.506-.722-30.363-17.832-65.012.104 101.881s-20.227 11.206-44.808 9.398c-24.579-1.807-37.953-7.591-37.953-7.591l-4.095-103.208-21.931 64.17 2.169 22.772-20.965 7.953-6.508-27.833 40.487-123.258z"/><path opacity=".1" fill="#231F20" enable-background="new" d="M1128.28 163.487l-.938-3.648-43.041-11.042-14.068 2.367-37.989 9.2c31.516 6.858 64.751 9.938 96.036 3.123z"/><polygon fill="#846465" points="1067.7,151.164 1048.513,154.886 1043.121,177.55 1060.673,186.956"/><polygon fill="#846465" points="1081.796,149.357 1090.471,184.661 1104.208,177.912 1104.208,152.971 1081.796,148.271"/><polygon fill="#EFE6C3" points="1134.571,317.051 1102.039,349.971 1107.823,366.467 1152.282,323.222"/><polygon fill="#EFE6C3" points="1134.571,317.051 1102.039,349.971 1107.823,366.467 1152.282,323.222"/><path opacity=".2" fill="#231F20" enable-background="new" d="M1134.571 317.051l-10.69 10.818c4.704 3.156 9.971 5.643 15.186 8.208l13.218-12.856-17.714-6.17z"/><polygon fill="#EFE6C3" points="1009.346,306.899 1039.406,348.143 1035.234,364.855 991.634,316.43"/><path opacity=".2" fill="#231F20" enable-background="new" d="M1009.346 306.899l-17.712 9.531 10.911 12.119c5.584-2.64 11.147-5.321 16.628-8.166l-9.827-13.484z"/><polygon fill="#D7D9CB" points="1103.484,645.646 1100.923,637.696 1117.721,634.442 1117.721,643.84"/><path fill="#D7D9CB" d="M1038.421 645.646v-5.603s3.48 1.854 10.121 2.801c6.641.947 8.313 0 8.313 0l1.444 8.604c.003.001-15.903-1.463-19.878-5.802z"/><rect x="1102.763" y="341.412" transform="matrix(.982 -.187 .187 .982 -47.117 213.315)" fill="#443B4A" width="3.314" height="28.786"/><rect x="1036.152" y="340.573" transform="matrix(.987 .159 -.159 .987 69.589 -160.397)" fill="#443B4A" width="3.313" height="28.787"/><rect x="984.047" y="295.716" transform="matrix(.902 -.432 .432 .902 -34.489 463.209)" fill="#846465" width="35.06" height="23.495"/><rect x="1126.127" y="305.355" transform="matrix(.902 .432 -.432 .902 249.48 -463.252)" fill="#846465" width="35.059" height="23.495"/><rect x="1027.817" y="611.117" fill="#4D604A" width="35.184" height="9.229"/><rect x="1091.744" y="603.29" transform="matrix(.994 -.11 .11 .994 -60.192 125.847)" fill="#4D604A" width="35.183" height="9.229"/><path fill="#EFE6C3" d="M1028.782 65.137s-2.409 64.581 3.854 78.558c0 0 11.567 2.892 20.726 2.892 9.154 0 12.529-2.409 12.529-2.409v11.084l-6.748 30.846 17.352 9.639 13.977-11.084-6.266-33.255 1.929-52.533s8.029-6.363 6.746-11.567l-2.891-8.192s6.797-42.894-33.953-40.002c0-.003-23.882-3.377-27.255 26.023z"/><path opacity=".2" fill="#231F20" enable-background="new" d="M1056.037 39.111s-23.882-3.374-27.255 26.025c0 0-.25 6.699-.379 16.243 20.893-4.288 42.284-11.257 59.965-23.118-3.344-10.444-11.804-20.607-32.331-19.15z"/><path fill="#CBB198" d="M1037.587 126.332s1.113.823 11.226-1.016c10.11-1.839 16.547-3.492 16.547-3.492l-14.157 8.823c-.002 0-3.482-.955-13.616-4.315z"/><path fill="#CBB198" d="M1036.677 117.412c.919 0 10.479 2.573 9.929 2.389-.552-.183-6.252-3.492-5.147-6.801 1.104-3.311.735-7.17.735-7.17l-5.517 11.582z"/><path fill="#5E4F32" d="M1030.061 85.237s7.722-4.413 10.111-3.677c2.391.736 3.125-3.31-2.021-2.574-5.146.736-8.825 6.067-8.825 6.067l.735.184z"/><path fill="#5E4F32" d="M1055.063 81.377s4.777-1.653 6.803-1.103c2.021.55 6.984 3.124 6.984 3.124s-3.676-5.883-9.008-6.25c-5.332-.367-5.168 3.727-5.168 3.727"/><path fill="#5E4F32" d="M1035.93 91.638c0-1.285 1.042-2.326 2.327-2.326 1.284 0 2.326 1.042 2.326 2.326v4.65c0 1.285-1.042 2.326-2.326 2.326-1.285 0-2.327-1.041-2.327-2.326v-4.65z"/><path fill="#5E4F32" d="M1059.167 91.743c0-1.562 1.266-2.829 2.829-2.829 1.562 0 2.828 1.266 2.828 2.829v4.04c0 1.562-1.268 2.828-2.828 2.828-1.563 0-2.829-1.266-2.829-2.828v-4.04z"/><path fill="#C9A457" d="M1079.868 62.245s-10.604 6.748-33.736 11.567l-30.361 5.784s5.783-49.641 38.557-51.087c32.771-1.446 29.396 15.905 29.396 15.905s13.495 8.192 12.531 21.205c-.966 13.012-6.266 18.796-6.266 18.796s-3.375-3.375-5.784 0l-3.854 8.675-.483-30.845z"/><path fill="#CBB198" d="M1058.302 87.003c.904 0 3.978-.361 5.963 1.808l-4.517-5.422-1.446 3.614z"/><path fill="#CBB198" d="M1033.723 88.088s3.614-1.626 5.062-.181l1.446 1.446-3.254-4.879-3.254 3.614z"/></g></svg>